%TF.GenerationSoftware,KiCad,Pcbnew,8.0.1*%
%TF.CreationDate,2024-04-02T22:55:17+01:00*%
%TF.ProjectId,Controller_PCB,436f6e74-726f-46c6-9c65-725f5043422e,v0.1*%
%TF.SameCoordinates,Original*%
%TF.FileFunction,Soldermask,Bot*%
%TF.FilePolarity,Negative*%
%FSLAX46Y46*%
G04 Gerber Fmt 4.6, Leading zero omitted, Abs format (unit mm)*
G04 Created by KiCad (PCBNEW 8.0.1) date 2024-04-02 22:55:17*
%MOMM*%
%LPD*%
G01*
G04 APERTURE LIST*
G04 Aperture macros list*
%AMRoundRect*
0 Rectangle with rounded corners*
0 $1 Rounding radius*
0 $2 $3 $4 $5 $6 $7 $8 $9 X,Y pos of 4 corners*
0 Add a 4 corners polygon primitive as box body*
4,1,4,$2,$3,$4,$5,$6,$7,$8,$9,$2,$3,0*
0 Add four circle primitives for the rounded corners*
1,1,$1+$1,$2,$3*
1,1,$1+$1,$4,$5*
1,1,$1+$1,$6,$7*
1,1,$1+$1,$8,$9*
0 Add four rect primitives between the rounded corners*
20,1,$1+$1,$2,$3,$4,$5,0*
20,1,$1+$1,$4,$5,$6,$7,0*
20,1,$1+$1,$6,$7,$8,$9,0*
20,1,$1+$1,$8,$9,$2,$3,0*%
G04 Aperture macros list end*
%ADD10C,1.625600*%
%ADD11C,2.101600*%
%ADD12RoundRect,0.050800X-0.800000X-0.800000X0.800000X-0.800000X0.800000X0.800000X-0.800000X0.800000X0*%
%ADD13O,1.701600X1.701600*%
G04 APERTURE END LIST*
D10*
%TO.C,Joystick_Left1*%
X62388750Y-116840000D03*
X62388750Y-114300000D03*
X62388750Y-111760000D03*
X62388750Y-109220000D03*
X62388750Y-106680000D03*
%TD*%
%TO.C,Joystick_Right1*%
X237331250Y-138430000D03*
X237331250Y-140970000D03*
X237331250Y-143510000D03*
X237331250Y-146050000D03*
X237331250Y-148590000D03*
%TD*%
D11*
%TO.C,RIGHT_TRIGGER1*%
X251766000Y-86650000D03*
X258266000Y-86650000D03*
X251766000Y-91150000D03*
X258266000Y-91150000D03*
%TD*%
%TO.C,LEFT_TRIGGER1*%
X44248000Y-86650000D03*
X50748000Y-86650000D03*
X44248000Y-91150000D03*
X50748000Y-91150000D03*
%TD*%
%TO.C,Y1*%
X246090000Y-109526000D03*
X246090000Y-116026000D03*
X241590000Y-109526000D03*
X241590000Y-116026000D03*
%TD*%
%TO.C,X1*%
X257198000Y-104902000D03*
X250698000Y-104902000D03*
X257198000Y-100402000D03*
X250698000Y-100402000D03*
%TD*%
%TO.C,UP1*%
X48478000Y-128576000D03*
X48478000Y-135076000D03*
X43978000Y-128576000D03*
X43978000Y-135076000D03*
%TD*%
%TO.C,SEL_1*%
X94690000Y-78450000D03*
X88190000Y-78450000D03*
X94690000Y-73950000D03*
X88190000Y-73950000D03*
%TD*%
%TO.C,RIGHT1*%
X58384000Y-139498000D03*
X58384000Y-145998000D03*
X53884000Y-139498000D03*
X53884000Y-145998000D03*
%TD*%
%TO.C,LEFT1*%
X33818000Y-145998000D03*
X33818000Y-139498000D03*
X38318000Y-145998000D03*
X38318000Y-139498000D03*
%TD*%
%TO.C,DOWN1*%
X48514000Y-148844000D03*
X48514000Y-155344000D03*
X44014000Y-148844000D03*
X44014000Y-155344000D03*
%TD*%
%TO.C,B1*%
X261874000Y-116026000D03*
X261874000Y-109526000D03*
X266374000Y-116026000D03*
X266374000Y-109526000D03*
%TD*%
%TO.C,A1*%
X257250000Y-125186000D03*
X250750000Y-125186000D03*
X257250000Y-120686000D03*
X250750000Y-120686000D03*
%TD*%
D12*
%TO.C,CentralBoard1*%
X144790000Y-100330000D03*
D13*
X144790000Y-102870000D03*
X144790000Y-105410000D03*
X144790000Y-107950000D03*
X144790000Y-110490000D03*
X144790000Y-113030000D03*
X144790000Y-115570000D03*
X144790000Y-118110000D03*
X144790000Y-120650000D03*
X144790000Y-123190000D03*
X144790000Y-125730000D03*
X144790000Y-128270000D03*
X144790000Y-130810000D03*
X144790000Y-133350000D03*
X144790000Y-135890000D03*
X160030000Y-135890000D03*
X160030000Y-133350000D03*
X160030000Y-130810000D03*
X160030000Y-128270000D03*
X160030000Y-125730000D03*
X160030000Y-123190000D03*
X160030000Y-120650000D03*
X160030000Y-118110000D03*
X160030000Y-115570000D03*
X160030000Y-113030000D03*
X160030000Y-110490000D03*
X160030000Y-107950000D03*
X160030000Y-105410000D03*
X160030000Y-102870000D03*
X160030000Y-100330000D03*
%TD*%
M02*
