%TF.GenerationSoftware,KiCad,Pcbnew,8.0.1*%
%TF.CreationDate,2024-04-02T22:55:17+01:00*%
%TF.ProjectId,Controller_PCB,436f6e74-726f-46c6-9c65-725f5043422e,v0.1*%
%TF.SameCoordinates,Original*%
%TF.FileFunction,Copper,L2,Bot*%
%TF.FilePolarity,Positive*%
%FSLAX46Y46*%
G04 Gerber Fmt 4.6, Leading zero omitted, Abs format (unit mm)*
G04 Created by KiCad (PCBNEW 8.0.1) date 2024-04-02 22:55:17*
%MOMM*%
%LPD*%
G01*
G04 APERTURE LIST*
%TA.AperFunction,ComponentPad*%
%ADD10C,1.524000*%
%TD*%
%TA.AperFunction,ComponentPad*%
%ADD11C,2.000000*%
%TD*%
%TA.AperFunction,ComponentPad*%
%ADD12R,1.600000X1.600000*%
%TD*%
%TA.AperFunction,ComponentPad*%
%ADD13O,1.600000X1.600000*%
%TD*%
G04 APERTURE END LIST*
D10*
%TO.P,Joystick_Left1,1,GND*%
%TO.N,GND*%
X62388750Y-116840000D03*
%TO.P,Joystick_Left1,2,+5V*%
%TO.N,+3.3V*%
X62388750Y-114300000D03*
%TO.P,Joystick_Left1,3,VRX*%
%TO.N,/Analog_X_L*%
X62388750Y-111760000D03*
%TO.P,Joystick_Left1,4,VRY*%
%TO.N,/Analog_Y_L*%
X62388750Y-109220000D03*
%TO.P,Joystick_Left1,5,SW*%
%TO.N,/SEL_JOY_L*%
X62388750Y-106680000D03*
%TD*%
%TO.P,Joystick_Right1,1,GND*%
%TO.N,GND*%
X237331250Y-138430000D03*
%TO.P,Joystick_Right1,2,+5V*%
%TO.N,+3.3V*%
X237331250Y-140970000D03*
%TO.P,Joystick_Right1,3,VRX*%
%TO.N,/Analog_X_R*%
X237331250Y-143510000D03*
%TO.P,Joystick_Right1,4,VRY*%
%TO.N,/Analog_Y_R*%
X237331250Y-146050000D03*
%TO.P,Joystick_Right1,5,SW*%
%TO.N,/SEL_JOY_R*%
X237331250Y-148590000D03*
%TD*%
D11*
%TO.P,RIGHT_TRIGGER1,1,1*%
%TO.N,GND*%
X251766000Y-86650000D03*
X258266000Y-86650000D03*
%TO.P,RIGHT_TRIGGER1,2,2*%
%TO.N,/RIGHT_TRIGGER*%
X251766000Y-91150000D03*
X258266000Y-91150000D03*
%TD*%
%TO.P,LEFT_TRIGGER1,1,1*%
%TO.N,/LEFT_TRIGGER*%
X44248000Y-86650000D03*
X50748000Y-86650000D03*
%TO.P,LEFT_TRIGGER1,2,2*%
%TO.N,GND*%
X44248000Y-91150000D03*
X50748000Y-91150000D03*
%TD*%
%TO.P,Y1,1,1*%
%TO.N,GND*%
X246090000Y-109526000D03*
X246090000Y-116026000D03*
%TO.P,Y1,2,2*%
%TO.N,/Y*%
X241590000Y-109526000D03*
X241590000Y-116026000D03*
%TD*%
%TO.P,X1,1,1*%
%TO.N,/X*%
X257198000Y-104902000D03*
X250698000Y-104902000D03*
%TO.P,X1,2,2*%
%TO.N,GND*%
X257198000Y-100402000D03*
X250698000Y-100402000D03*
%TD*%
%TO.P,UP1,1,1*%
%TO.N,/UP*%
X48478000Y-128576000D03*
X48478000Y-135076000D03*
%TO.P,UP1,2,2*%
%TO.N,GND*%
X43978000Y-128576000D03*
X43978000Y-135076000D03*
%TD*%
%TO.P,SEL_1,1,1*%
%TO.N,/SEL_1*%
X94690000Y-78450000D03*
X88190000Y-78450000D03*
%TO.P,SEL_1,2,2*%
%TO.N,GND*%
X94690000Y-73950000D03*
X88190000Y-73950000D03*
%TD*%
%TO.P,RIGHT1,1,1*%
%TO.N,/RIGHT*%
X58384000Y-139498000D03*
X58384000Y-145998000D03*
%TO.P,RIGHT1,2,2*%
%TO.N,GND*%
X53884000Y-139498000D03*
X53884000Y-145998000D03*
%TD*%
%TO.P,LEFT1,1,1*%
%TO.N,GND*%
X33818000Y-145998000D03*
X33818000Y-139498000D03*
%TO.P,LEFT1,2,2*%
%TO.N,/LEFT*%
X38318000Y-145998000D03*
X38318000Y-139498000D03*
%TD*%
%TO.P,DOWN1,1,1*%
%TO.N,/DOWN*%
X48514000Y-148844000D03*
X48514000Y-155344000D03*
%TO.P,DOWN1,2,2*%
%TO.N,GND*%
X44014000Y-148844000D03*
X44014000Y-155344000D03*
%TD*%
%TO.P,B1,1,1*%
%TO.N,/B*%
X261874000Y-116026000D03*
X261874000Y-109526000D03*
%TO.P,B1,2,2*%
%TO.N,GND*%
X266374000Y-116026000D03*
X266374000Y-109526000D03*
%TD*%
%TO.P,A1,1,1*%
%TO.N,/A*%
X257250000Y-125186000D03*
X250750000Y-125186000D03*
%TO.P,A1,2,2*%
%TO.N,GND*%
X257250000Y-120686000D03*
X250750000Y-120686000D03*
%TD*%
D12*
%TO.P,CentralBoard1,1,D1/TX*%
%TO.N,unconnected-(CentralBoard1-D1{slash}TX-Pad1)*%
X144790000Y-100330000D03*
D13*
%TO.P,CentralBoard1,2,D0/RX*%
%TO.N,unconnected-(CentralBoard1-D0{slash}RX-Pad2)*%
X144790000Y-102870000D03*
%TO.P,CentralBoard1,3,~{RESET}*%
%TO.N,unconnected-(CentralBoard1-~{RESET}-Pad3)*%
X144790000Y-105410000D03*
%TO.P,CentralBoard1,4,GND*%
%TO.N,GND*%
X144790000Y-107950000D03*
%TO.P,CentralBoard1,5,D2*%
%TO.N,/RIGHT_TRIGGER*%
X144790000Y-110490000D03*
%TO.P,CentralBoard1,6,D3*%
%TO.N,/B*%
X144790000Y-113030000D03*
%TO.P,CentralBoard1,7,D4*%
%TO.N,/X*%
X144790000Y-115570000D03*
%TO.P,CentralBoard1,8,D5*%
%TO.N,/Y*%
X144790000Y-118110000D03*
%TO.P,CentralBoard1,9,D6*%
%TO.N,/A*%
X144790000Y-120650000D03*
%TO.P,CentralBoard1,10,D7*%
%TO.N,/SEL_1*%
X144790000Y-123190000D03*
%TO.P,CentralBoard1,11,D8*%
%TO.N,/LEFT_TRIGGER*%
X144790000Y-125730000D03*
%TO.P,CentralBoard1,12,D9*%
%TO.N,/UP*%
X144790000Y-128270000D03*
%TO.P,CentralBoard1,13,D10*%
%TO.N,/LEFT*%
X144790000Y-130810000D03*
%TO.P,CentralBoard1,14,D11*%
%TO.N,/RIGHT*%
X144790000Y-133350000D03*
%TO.P,CentralBoard1,15,D12*%
%TO.N,/DOWN*%
X144790000Y-135890000D03*
%TO.P,CentralBoard1,16,D13*%
%TO.N,unconnected-(CentralBoard1-D13-Pad16)*%
X160030000Y-135890000D03*
%TO.P,CentralBoard1,17,3V3*%
%TO.N,+3.3V*%
X160030000Y-133350000D03*
%TO.P,CentralBoard1,18,AREF*%
%TO.N,unconnected-(CentralBoard1-AREF-Pad18)*%
X160030000Y-130810000D03*
%TO.P,CentralBoard1,19,A0*%
%TO.N,/Analog_X_L*%
X160030000Y-128270000D03*
%TO.P,CentralBoard1,20,A1*%
%TO.N,/Analog_Y_L*%
X160030000Y-125730000D03*
%TO.P,CentralBoard1,21,A2*%
%TO.N,/SEL_JOY_L*%
X160030000Y-123190000D03*
%TO.P,CentralBoard1,22,A3*%
%TO.N,unconnected-(CentralBoard1-A3-Pad22)*%
X160030000Y-120650000D03*
%TO.P,CentralBoard1,23,A4*%
%TO.N,unconnected-(CentralBoard1-A4-Pad23)*%
X160030000Y-118110000D03*
%TO.P,CentralBoard1,24,A5*%
%TO.N,/SEL_JOY_R*%
X160030000Y-115570000D03*
%TO.P,CentralBoard1,25,A6*%
%TO.N,/Analog_Y_R*%
X160030000Y-113030000D03*
%TO.P,CentralBoard1,26,A7*%
%TO.N,/Analog_X_R*%
X160030000Y-110490000D03*
%TO.P,CentralBoard1,27,+5V*%
%TO.N,unconnected-(CentralBoard1-+5V-Pad27)*%
X160030000Y-107950000D03*
%TO.P,CentralBoard1,28,~{RESET}*%
%TO.N,unconnected-(CentralBoard1-~{RESET}-Pad28)*%
X160030000Y-105410000D03*
%TO.P,CentralBoard1,29,GND*%
%TO.N,GND*%
X160030000Y-102870000D03*
%TO.P,CentralBoard1,30,VIN*%
%TO.N,unconnected-(CentralBoard1-VIN-Pad30)*%
X160030000Y-100330000D03*
%TD*%
M02*
