M48
; DRILL file {KiCad 8.0.1} date 2024-04-02T22:55:15+0100
; FORMAT={-:-/ absolute / metric / decimal}
; #@! TF.CreationDate,2024-04-02T22:55:15+01:00
; #@! TF.GenerationSoftware,Kicad,Pcbnew,8.0.1
; #@! TF.FileFunction,Plated,1,2,PTH
FMAT,2
METRIC
; #@! TA.AperFunction,Plated,PTH,ComponentDrill
T1C1.000
; #@! TA.AperFunction,Plated,PTH,ComponentDrill
T2C1.100
; #@! TA.AperFunction,Plated,PTH,ComponentDrill
T3C1.143
%
G90
G05
T1
X144.79Y-100.33
X144.79Y-102.87
X144.79Y-105.41
X144.79Y-107.95
X144.79Y-110.49
X144.79Y-113.03
X144.79Y-115.57
X144.79Y-118.11
X144.79Y-120.65
X144.79Y-123.19
X144.79Y-125.73
X144.79Y-128.27
X144.79Y-130.81
X144.79Y-133.35
X144.79Y-135.89
X160.03Y-100.33
X160.03Y-102.87
X160.03Y-105.41
X160.03Y-107.95
X160.03Y-110.49
X160.03Y-113.03
X160.03Y-115.57
X160.03Y-118.11
X160.03Y-120.65
X160.03Y-123.19
X160.03Y-125.73
X160.03Y-128.27
X160.03Y-130.81
X160.03Y-133.35
X160.03Y-135.89
T2
X33.818Y-139.498
X33.818Y-145.998
X38.318Y-139.498
X38.318Y-145.998
X43.978Y-128.576
X43.978Y-135.076
X44.014Y-148.844
X44.014Y-155.344
X44.248Y-86.65
X44.248Y-91.15
X48.478Y-128.576
X48.478Y-135.076
X48.514Y-148.844
X48.514Y-155.344
X50.748Y-86.65
X50.748Y-91.15
X53.884Y-139.498
X53.884Y-145.998
X58.384Y-139.498
X58.384Y-145.998
X88.19Y-73.95
X88.19Y-78.45
X94.69Y-73.95
X94.69Y-78.45
X241.59Y-109.526
X241.59Y-116.026
X246.09Y-109.526
X246.09Y-116.026
X250.698Y-100.402
X250.698Y-104.902
X250.75Y-120.686
X250.75Y-125.186
X251.766Y-86.65
X251.766Y-91.15
X257.198Y-100.402
X257.198Y-104.902
X257.25Y-120.686
X257.25Y-125.186
X258.266Y-86.65
X258.266Y-91.15
X261.874Y-109.526
X261.874Y-116.026
X266.374Y-109.526
X266.374Y-116.026
T3
X62.389Y-106.68
X62.389Y-109.22
X62.389Y-111.76
X62.389Y-114.3
X62.389Y-116.84
X237.331Y-138.43
X237.331Y-140.97
X237.331Y-143.51
X237.331Y-146.05
X237.331Y-148.59
M30
