%TF.GenerationSoftware,KiCad,Pcbnew,8.0.2*%
%TF.CreationDate,2024-05-08T14:23:23+01:00*%
%TF.ProjectId,Right_Controller_PCB_Bluetooth,52696768-745f-4436-9f6e-74726f6c6c65,V01*%
%TF.SameCoordinates,Original*%
%TF.FileFunction,Legend,Top*%
%TF.FilePolarity,Positive*%
%FSLAX46Y46*%
G04 Gerber Fmt 4.6, Leading zero omitted, Abs format (unit mm)*
G04 Created by KiCad (PCBNEW 8.0.2) date 2024-05-08 14:23:23*
%MOMM*%
%LPD*%
G01*
G04 APERTURE LIST*
%ADD10C,0.150000*%
%ADD11C,0.203200*%
%ADD12C,0.120000*%
G04 APERTURE END LIST*
D10*
X118618095Y-49730819D02*
X118618095Y-48730819D01*
X118618095Y-49207009D02*
X119189523Y-49207009D01*
X119189523Y-49730819D02*
X119189523Y-48730819D01*
X120189523Y-49730819D02*
X119618095Y-49730819D01*
X119903809Y-49730819D02*
X119903809Y-48730819D01*
X119903809Y-48730819D02*
X119808571Y-48873676D01*
X119808571Y-48873676D02*
X119713333Y-48968914D01*
X119713333Y-48968914D02*
X119618095Y-49016533D01*
X143859618Y-104864819D02*
X143859618Y-105579104D01*
X143859618Y-105579104D02*
X143811999Y-105721961D01*
X143811999Y-105721961D02*
X143716761Y-105817200D01*
X143716761Y-105817200D02*
X143573904Y-105864819D01*
X143573904Y-105864819D02*
X143478666Y-105864819D01*
X144478666Y-105864819D02*
X144383428Y-105817200D01*
X144383428Y-105817200D02*
X144335809Y-105769580D01*
X144335809Y-105769580D02*
X144288190Y-105674342D01*
X144288190Y-105674342D02*
X144288190Y-105388628D01*
X144288190Y-105388628D02*
X144335809Y-105293390D01*
X144335809Y-105293390D02*
X144383428Y-105245771D01*
X144383428Y-105245771D02*
X144478666Y-105198152D01*
X144478666Y-105198152D02*
X144621523Y-105198152D01*
X144621523Y-105198152D02*
X144716761Y-105245771D01*
X144716761Y-105245771D02*
X144764380Y-105293390D01*
X144764380Y-105293390D02*
X144811999Y-105388628D01*
X144811999Y-105388628D02*
X144811999Y-105674342D01*
X144811999Y-105674342D02*
X144764380Y-105769580D01*
X144764380Y-105769580D02*
X144716761Y-105817200D01*
X144716761Y-105817200D02*
X144621523Y-105864819D01*
X144621523Y-105864819D02*
X144478666Y-105864819D01*
X145145333Y-105198152D02*
X145383428Y-105864819D01*
X145621523Y-105198152D02*
X145383428Y-105864819D01*
X145383428Y-105864819D02*
X145288190Y-106102914D01*
X145288190Y-106102914D02*
X145240571Y-106150533D01*
X145240571Y-106150533D02*
X145145333Y-106198152D01*
X145954857Y-105817200D02*
X146050095Y-105864819D01*
X146050095Y-105864819D02*
X146240571Y-105864819D01*
X146240571Y-105864819D02*
X146335809Y-105817200D01*
X146335809Y-105817200D02*
X146383428Y-105721961D01*
X146383428Y-105721961D02*
X146383428Y-105674342D01*
X146383428Y-105674342D02*
X146335809Y-105579104D01*
X146335809Y-105579104D02*
X146240571Y-105531485D01*
X146240571Y-105531485D02*
X146097714Y-105531485D01*
X146097714Y-105531485D02*
X146002476Y-105483866D01*
X146002476Y-105483866D02*
X145954857Y-105388628D01*
X145954857Y-105388628D02*
X145954857Y-105341009D01*
X145954857Y-105341009D02*
X146002476Y-105245771D01*
X146002476Y-105245771D02*
X146097714Y-105198152D01*
X146097714Y-105198152D02*
X146240571Y-105198152D01*
X146240571Y-105198152D02*
X146335809Y-105245771D01*
X146669143Y-105198152D02*
X147050095Y-105198152D01*
X146812000Y-104864819D02*
X146812000Y-105721961D01*
X146812000Y-105721961D02*
X146859619Y-105817200D01*
X146859619Y-105817200D02*
X146954857Y-105864819D01*
X146954857Y-105864819D02*
X147050095Y-105864819D01*
X147383429Y-105864819D02*
X147383429Y-105198152D01*
X147383429Y-104864819D02*
X147335810Y-104912438D01*
X147335810Y-104912438D02*
X147383429Y-104960057D01*
X147383429Y-104960057D02*
X147431048Y-104912438D01*
X147431048Y-104912438D02*
X147383429Y-104864819D01*
X147383429Y-104864819D02*
X147383429Y-104960057D01*
X148288190Y-105817200D02*
X148192952Y-105864819D01*
X148192952Y-105864819D02*
X148002476Y-105864819D01*
X148002476Y-105864819D02*
X147907238Y-105817200D01*
X147907238Y-105817200D02*
X147859619Y-105769580D01*
X147859619Y-105769580D02*
X147812000Y-105674342D01*
X147812000Y-105674342D02*
X147812000Y-105388628D01*
X147812000Y-105388628D02*
X147859619Y-105293390D01*
X147859619Y-105293390D02*
X147907238Y-105245771D01*
X147907238Y-105245771D02*
X148002476Y-105198152D01*
X148002476Y-105198152D02*
X148192952Y-105198152D01*
X148192952Y-105198152D02*
X148288190Y-105245771D01*
X148716762Y-105864819D02*
X148716762Y-104864819D01*
X148812000Y-105483866D02*
X149097714Y-105864819D01*
X149097714Y-105198152D02*
X148716762Y-105579104D01*
X150097714Y-105864819D02*
X149764381Y-105388628D01*
X149526286Y-105864819D02*
X149526286Y-104864819D01*
X149526286Y-104864819D02*
X149907238Y-104864819D01*
X149907238Y-104864819D02*
X150002476Y-104912438D01*
X150002476Y-104912438D02*
X150050095Y-104960057D01*
X150050095Y-104960057D02*
X150097714Y-105055295D01*
X150097714Y-105055295D02*
X150097714Y-105198152D01*
X150097714Y-105198152D02*
X150050095Y-105293390D01*
X150050095Y-105293390D02*
X150002476Y-105341009D01*
X150002476Y-105341009D02*
X149907238Y-105388628D01*
X149907238Y-105388628D02*
X149526286Y-105388628D01*
X120618666Y-59843200D02*
X120761523Y-59890819D01*
X120761523Y-59890819D02*
X120999618Y-59890819D01*
X120999618Y-59890819D02*
X121094856Y-59843200D01*
X121094856Y-59843200D02*
X121142475Y-59795580D01*
X121142475Y-59795580D02*
X121190094Y-59700342D01*
X121190094Y-59700342D02*
X121190094Y-59605104D01*
X121190094Y-59605104D02*
X121142475Y-59509866D01*
X121142475Y-59509866D02*
X121094856Y-59462247D01*
X121094856Y-59462247D02*
X120999618Y-59414628D01*
X120999618Y-59414628D02*
X120809142Y-59367009D01*
X120809142Y-59367009D02*
X120713904Y-59319390D01*
X120713904Y-59319390D02*
X120666285Y-59271771D01*
X120666285Y-59271771D02*
X120618666Y-59176533D01*
X120618666Y-59176533D02*
X120618666Y-59081295D01*
X120618666Y-59081295D02*
X120666285Y-58986057D01*
X120666285Y-58986057D02*
X120713904Y-58938438D01*
X120713904Y-58938438D02*
X120809142Y-58890819D01*
X120809142Y-58890819D02*
X121047237Y-58890819D01*
X121047237Y-58890819D02*
X121190094Y-58938438D01*
X121475809Y-58890819D02*
X122047237Y-58890819D01*
X121761523Y-59890819D02*
X121761523Y-58890819D01*
X122332952Y-59605104D02*
X122809142Y-59605104D01*
X122237714Y-59890819D02*
X122571047Y-58890819D01*
X122571047Y-58890819D02*
X122904380Y-59890819D01*
X123809142Y-59890819D02*
X123475809Y-59414628D01*
X123237714Y-59890819D02*
X123237714Y-58890819D01*
X123237714Y-58890819D02*
X123618666Y-58890819D01*
X123618666Y-58890819D02*
X123713904Y-58938438D01*
X123713904Y-58938438D02*
X123761523Y-58986057D01*
X123761523Y-58986057D02*
X123809142Y-59081295D01*
X123809142Y-59081295D02*
X123809142Y-59224152D01*
X123809142Y-59224152D02*
X123761523Y-59319390D01*
X123761523Y-59319390D02*
X123713904Y-59367009D01*
X123713904Y-59367009D02*
X123618666Y-59414628D01*
X123618666Y-59414628D02*
X123237714Y-59414628D01*
X124094857Y-58890819D02*
X124666285Y-58890819D01*
X124380571Y-59890819D02*
X124380571Y-58890819D01*
X124761524Y-59986057D02*
X125523428Y-59986057D01*
X126332952Y-59890819D02*
X125999619Y-59414628D01*
X125761524Y-59890819D02*
X125761524Y-58890819D01*
X125761524Y-58890819D02*
X126142476Y-58890819D01*
X126142476Y-58890819D02*
X126237714Y-58938438D01*
X126237714Y-58938438D02*
X126285333Y-58986057D01*
X126285333Y-58986057D02*
X126332952Y-59081295D01*
X126332952Y-59081295D02*
X126332952Y-59224152D01*
X126332952Y-59224152D02*
X126285333Y-59319390D01*
X126285333Y-59319390D02*
X126237714Y-59367009D01*
X126237714Y-59367009D02*
X126142476Y-59414628D01*
X126142476Y-59414628D02*
X125761524Y-59414628D01*
X127285333Y-59890819D02*
X126713905Y-59890819D01*
X126999619Y-59890819D02*
X126999619Y-58890819D01*
X126999619Y-58890819D02*
X126904381Y-59033676D01*
X126904381Y-59033676D02*
X126809143Y-59128914D01*
X126809143Y-59128914D02*
X126713905Y-59176533D01*
X145133714Y-84207104D02*
X145609904Y-84207104D01*
X145038476Y-84492819D02*
X145371809Y-83492819D01*
X145371809Y-83492819D02*
X145705142Y-84492819D01*
X146562285Y-84492819D02*
X145990857Y-84492819D01*
X146276571Y-84492819D02*
X146276571Y-83492819D01*
X146276571Y-83492819D02*
X146181333Y-83635676D01*
X146181333Y-83635676D02*
X146086095Y-83730914D01*
X146086095Y-83730914D02*
X145990857Y-83778533D01*
X135894476Y-73586819D02*
X136561142Y-74586819D01*
X136561142Y-73586819D02*
X135894476Y-74586819D01*
X137465904Y-74586819D02*
X136894476Y-74586819D01*
X137180190Y-74586819D02*
X137180190Y-73586819D01*
X137180190Y-73586819D02*
X137084952Y-73729676D01*
X137084952Y-73729676D02*
X136989714Y-73824914D01*
X136989714Y-73824914D02*
X136894476Y-73872533D01*
X146050761Y-51762819D02*
X145717428Y-51286628D01*
X145479333Y-51762819D02*
X145479333Y-50762819D01*
X145479333Y-50762819D02*
X145860285Y-50762819D01*
X145860285Y-50762819D02*
X145955523Y-50810438D01*
X145955523Y-50810438D02*
X146003142Y-50858057D01*
X146003142Y-50858057D02*
X146050761Y-50953295D01*
X146050761Y-50953295D02*
X146050761Y-51096152D01*
X146050761Y-51096152D02*
X146003142Y-51191390D01*
X146003142Y-51191390D02*
X145955523Y-51239009D01*
X145955523Y-51239009D02*
X145860285Y-51286628D01*
X145860285Y-51286628D02*
X145479333Y-51286628D01*
X146479333Y-51762819D02*
X146479333Y-50762819D01*
X147479332Y-50810438D02*
X147384094Y-50762819D01*
X147384094Y-50762819D02*
X147241237Y-50762819D01*
X147241237Y-50762819D02*
X147098380Y-50810438D01*
X147098380Y-50810438D02*
X147003142Y-50905676D01*
X147003142Y-50905676D02*
X146955523Y-51000914D01*
X146955523Y-51000914D02*
X146907904Y-51191390D01*
X146907904Y-51191390D02*
X146907904Y-51334247D01*
X146907904Y-51334247D02*
X146955523Y-51524723D01*
X146955523Y-51524723D02*
X147003142Y-51619961D01*
X147003142Y-51619961D02*
X147098380Y-51715200D01*
X147098380Y-51715200D02*
X147241237Y-51762819D01*
X147241237Y-51762819D02*
X147336475Y-51762819D01*
X147336475Y-51762819D02*
X147479332Y-51715200D01*
X147479332Y-51715200D02*
X147526951Y-51667580D01*
X147526951Y-51667580D02*
X147526951Y-51334247D01*
X147526951Y-51334247D02*
X147336475Y-51334247D01*
X147955523Y-51762819D02*
X147955523Y-50762819D01*
X147955523Y-51239009D02*
X148526951Y-51239009D01*
X148526951Y-51762819D02*
X148526951Y-50762819D01*
X148860285Y-50762819D02*
X149431713Y-50762819D01*
X149145999Y-51762819D02*
X149145999Y-50762819D01*
X149526952Y-51858057D02*
X150288856Y-51858057D01*
X150479333Y-51715200D02*
X150622190Y-51762819D01*
X150622190Y-51762819D02*
X150860285Y-51762819D01*
X150860285Y-51762819D02*
X150955523Y-51715200D01*
X150955523Y-51715200D02*
X151003142Y-51667580D01*
X151003142Y-51667580D02*
X151050761Y-51572342D01*
X151050761Y-51572342D02*
X151050761Y-51477104D01*
X151050761Y-51477104D02*
X151003142Y-51381866D01*
X151003142Y-51381866D02*
X150955523Y-51334247D01*
X150955523Y-51334247D02*
X150860285Y-51286628D01*
X150860285Y-51286628D02*
X150669809Y-51239009D01*
X150669809Y-51239009D02*
X150574571Y-51191390D01*
X150574571Y-51191390D02*
X150526952Y-51143771D01*
X150526952Y-51143771D02*
X150479333Y-51048533D01*
X150479333Y-51048533D02*
X150479333Y-50953295D01*
X150479333Y-50953295D02*
X150526952Y-50858057D01*
X150526952Y-50858057D02*
X150574571Y-50810438D01*
X150574571Y-50810438D02*
X150669809Y-50762819D01*
X150669809Y-50762819D02*
X150907904Y-50762819D01*
X150907904Y-50762819D02*
X151050761Y-50810438D01*
X151479333Y-51762819D02*
X151479333Y-50762819D01*
X151479333Y-51239009D02*
X152050761Y-51239009D01*
X152050761Y-51762819D02*
X152050761Y-50762819D01*
X152717428Y-50762819D02*
X152907904Y-50762819D01*
X152907904Y-50762819D02*
X153003142Y-50810438D01*
X153003142Y-50810438D02*
X153098380Y-50905676D01*
X153098380Y-50905676D02*
X153145999Y-51096152D01*
X153145999Y-51096152D02*
X153145999Y-51429485D01*
X153145999Y-51429485D02*
X153098380Y-51619961D01*
X153098380Y-51619961D02*
X153003142Y-51715200D01*
X153003142Y-51715200D02*
X152907904Y-51762819D01*
X152907904Y-51762819D02*
X152717428Y-51762819D01*
X152717428Y-51762819D02*
X152622190Y-51715200D01*
X152622190Y-51715200D02*
X152526952Y-51619961D01*
X152526952Y-51619961D02*
X152479333Y-51429485D01*
X152479333Y-51429485D02*
X152479333Y-51096152D01*
X152479333Y-51096152D02*
X152526952Y-50905676D01*
X152526952Y-50905676D02*
X152622190Y-50810438D01*
X152622190Y-50810438D02*
X152717428Y-50762819D01*
X153574571Y-50762819D02*
X153574571Y-51572342D01*
X153574571Y-51572342D02*
X153622190Y-51667580D01*
X153622190Y-51667580D02*
X153669809Y-51715200D01*
X153669809Y-51715200D02*
X153765047Y-51762819D01*
X153765047Y-51762819D02*
X153955523Y-51762819D01*
X153955523Y-51762819D02*
X154050761Y-51715200D01*
X154050761Y-51715200D02*
X154098380Y-51667580D01*
X154098380Y-51667580D02*
X154145999Y-51572342D01*
X154145999Y-51572342D02*
X154145999Y-50762819D01*
X155098380Y-51762819D02*
X154622190Y-51762819D01*
X154622190Y-51762819D02*
X154622190Y-50762819D01*
X155431714Y-51762819D02*
X155431714Y-50762819D01*
X155431714Y-50762819D02*
X155669809Y-50762819D01*
X155669809Y-50762819D02*
X155812666Y-50810438D01*
X155812666Y-50810438D02*
X155907904Y-50905676D01*
X155907904Y-50905676D02*
X155955523Y-51000914D01*
X155955523Y-51000914D02*
X156003142Y-51191390D01*
X156003142Y-51191390D02*
X156003142Y-51334247D01*
X156003142Y-51334247D02*
X155955523Y-51524723D01*
X155955523Y-51524723D02*
X155907904Y-51619961D01*
X155907904Y-51619961D02*
X155812666Y-51715200D01*
X155812666Y-51715200D02*
X155669809Y-51762819D01*
X155669809Y-51762819D02*
X155431714Y-51762819D01*
X156431714Y-51239009D02*
X156765047Y-51239009D01*
X156907904Y-51762819D02*
X156431714Y-51762819D01*
X156431714Y-51762819D02*
X156431714Y-50762819D01*
X156431714Y-50762819D02*
X156907904Y-50762819D01*
X157907904Y-51762819D02*
X157574571Y-51286628D01*
X157336476Y-51762819D02*
X157336476Y-50762819D01*
X157336476Y-50762819D02*
X157717428Y-50762819D01*
X157717428Y-50762819D02*
X157812666Y-50810438D01*
X157812666Y-50810438D02*
X157860285Y-50858057D01*
X157860285Y-50858057D02*
X157907904Y-50953295D01*
X157907904Y-50953295D02*
X157907904Y-51096152D01*
X157907904Y-51096152D02*
X157860285Y-51191390D01*
X157860285Y-51191390D02*
X157812666Y-51239009D01*
X157812666Y-51239009D02*
X157717428Y-51286628D01*
X157717428Y-51286628D02*
X157336476Y-51286628D01*
X158860285Y-51762819D02*
X158288857Y-51762819D01*
X158574571Y-51762819D02*
X158574571Y-50762819D01*
X158574571Y-50762819D02*
X158479333Y-50905676D01*
X158479333Y-50905676D02*
X158384095Y-51000914D01*
X158384095Y-51000914D02*
X158288857Y-51048533D01*
X153825238Y-74063009D02*
X153968095Y-74110628D01*
X153968095Y-74110628D02*
X154015714Y-74158247D01*
X154015714Y-74158247D02*
X154063333Y-74253485D01*
X154063333Y-74253485D02*
X154063333Y-74396342D01*
X154063333Y-74396342D02*
X154015714Y-74491580D01*
X154015714Y-74491580D02*
X153968095Y-74539200D01*
X153968095Y-74539200D02*
X153872857Y-74586819D01*
X153872857Y-74586819D02*
X153491905Y-74586819D01*
X153491905Y-74586819D02*
X153491905Y-73586819D01*
X153491905Y-73586819D02*
X153825238Y-73586819D01*
X153825238Y-73586819D02*
X153920476Y-73634438D01*
X153920476Y-73634438D02*
X153968095Y-73682057D01*
X153968095Y-73682057D02*
X154015714Y-73777295D01*
X154015714Y-73777295D02*
X154015714Y-73872533D01*
X154015714Y-73872533D02*
X153968095Y-73967771D01*
X153968095Y-73967771D02*
X153920476Y-74015390D01*
X153920476Y-74015390D02*
X153825238Y-74063009D01*
X153825238Y-74063009D02*
X153491905Y-74063009D01*
X155015714Y-74586819D02*
X154444286Y-74586819D01*
X154730000Y-74586819D02*
X154730000Y-73586819D01*
X154730000Y-73586819D02*
X154634762Y-73729676D01*
X154634762Y-73729676D02*
X154539524Y-73824914D01*
X154539524Y-73824914D02*
X154444286Y-73872533D01*
X166878095Y-49730819D02*
X166878095Y-48730819D01*
X166878095Y-49207009D02*
X167449523Y-49207009D01*
X167449523Y-49730819D02*
X167449523Y-48730819D01*
X167878095Y-48826057D02*
X167925714Y-48778438D01*
X167925714Y-48778438D02*
X168020952Y-48730819D01*
X168020952Y-48730819D02*
X168259047Y-48730819D01*
X168259047Y-48730819D02*
X168354285Y-48778438D01*
X168354285Y-48778438D02*
X168401904Y-48826057D01*
X168401904Y-48826057D02*
X168449523Y-48921295D01*
X168449523Y-48921295D02*
X168449523Y-49016533D01*
X168449523Y-49016533D02*
X168401904Y-49159390D01*
X168401904Y-49159390D02*
X167830476Y-49730819D01*
X167830476Y-49730819D02*
X168449523Y-49730819D01*
X145371809Y-64204628D02*
X145371809Y-64680819D01*
X145038476Y-63680819D02*
X145371809Y-64204628D01*
X145371809Y-64204628D02*
X145705142Y-63680819D01*
X146562285Y-64680819D02*
X145990857Y-64680819D01*
X146276571Y-64680819D02*
X146276571Y-63680819D01*
X146276571Y-63680819D02*
X146181333Y-63823676D01*
X146181333Y-63823676D02*
X146086095Y-63918914D01*
X146086095Y-63918914D02*
X145990857Y-63966533D01*
X166928895Y-147266819D02*
X166928895Y-146266819D01*
X166928895Y-146743009D02*
X167500323Y-146743009D01*
X167500323Y-147266819D02*
X167500323Y-146266819D01*
X167881276Y-146266819D02*
X168500323Y-146266819D01*
X168500323Y-146266819D02*
X168166990Y-146647771D01*
X168166990Y-146647771D02*
X168309847Y-146647771D01*
X168309847Y-146647771D02*
X168405085Y-146695390D01*
X168405085Y-146695390D02*
X168452704Y-146743009D01*
X168452704Y-146743009D02*
X168500323Y-146838247D01*
X168500323Y-146838247D02*
X168500323Y-147076342D01*
X168500323Y-147076342D02*
X168452704Y-147171580D01*
X168452704Y-147171580D02*
X168405085Y-147219200D01*
X168405085Y-147219200D02*
X168309847Y-147266819D01*
X168309847Y-147266819D02*
X168024133Y-147266819D01*
X168024133Y-147266819D02*
X167928895Y-147219200D01*
X167928895Y-147219200D02*
X167881276Y-147171580D01*
X118465695Y-147266819D02*
X118465695Y-146266819D01*
X118465695Y-146743009D02*
X119037123Y-146743009D01*
X119037123Y-147266819D02*
X119037123Y-146266819D01*
X119941885Y-146600152D02*
X119941885Y-147266819D01*
X119703790Y-146219200D02*
X119465695Y-146933485D01*
X119465695Y-146933485D02*
X120084742Y-146933485D01*
D11*
%TO.C,JoystickR1*%
X130149600Y-92710000D02*
X130152000Y-99410000D01*
X130149600Y-92710000D02*
X163482000Y-92710000D01*
X130152000Y-118100000D02*
X130152000Y-111400000D01*
X163482000Y-92710000D02*
X163482000Y-118110000D01*
X163482000Y-118110000D02*
X130152000Y-118100000D01*
X129693000Y-98910000D02*
G75*
G02*
X128931000Y-98910000I-381000J0D01*
G01*
X128931000Y-98910000D02*
G75*
G02*
X129693000Y-98910000I381000J0D01*
G01*
D12*
%TO.C,START_R1*%
X120452000Y-58686000D02*
X120452000Y-60186000D01*
X121702000Y-62686000D02*
X126202000Y-62686000D01*
X126202000Y-56186000D02*
X121702000Y-56186000D01*
X127452000Y-60186000D02*
X127452000Y-58686000D01*
%TO.C,A1*%
X142348000Y-83288000D02*
X142348000Y-84788000D01*
X143598000Y-87288000D02*
X148098000Y-87288000D01*
X148098000Y-80788000D02*
X143598000Y-80788000D01*
X149348000Y-84788000D02*
X149348000Y-83288000D01*
%TO.C,X1*%
X133204000Y-73382000D02*
X133204000Y-74882000D01*
X134454000Y-77382000D02*
X138954000Y-77382000D01*
X138954000Y-70882000D02*
X134454000Y-70882000D01*
X140204000Y-74882000D02*
X140204000Y-73382000D01*
%TO.C,RIGHT_SHOULDER1*%
X148646000Y-50558000D02*
X148646000Y-52058000D01*
X149896000Y-54558000D02*
X154396000Y-54558000D01*
X154396000Y-48058000D02*
X149896000Y-48058000D01*
X155646000Y-52058000D02*
X155646000Y-50558000D01*
%TO.C,B1*%
X150730000Y-73382000D02*
X150730000Y-74882000D01*
X151980000Y-77382000D02*
X156480000Y-77382000D01*
X156480000Y-70882000D02*
X151980000Y-70882000D01*
X157730000Y-74882000D02*
X157730000Y-73382000D01*
%TO.C,Y1*%
X142348000Y-63476000D02*
X142348000Y-64976000D01*
X143598000Y-67476000D02*
X148098000Y-67476000D01*
X148098000Y-60976000D02*
X143598000Y-60976000D01*
X149348000Y-64976000D02*
X149348000Y-63476000D01*
%TD*%
M02*
