M48
; DRILL file {KiCad 8.0.2} date 2024-05-08T14:23:22+0100
; FORMAT={-:-/ absolute / metric / decimal}
; #@! TF.CreationDate,2024-05-08T14:23:22+01:00
; #@! TF.GenerationSoftware,Kicad,Pcbnew,8.0.2
; #@! TF.FileFunction,Plated,1,2,PTH
FMAT,2
METRIC
; #@! TA.AperFunction,Plated,PTH,ComponentDrill
T1C0.660
; #@! TA.AperFunction,Plated,PTH,ComponentDrill
T2C1.000
; #@! TA.AperFunction,Plated,PTH,ComponentDrill
T3C1.100
; #@! TA.AperFunction,Plated,PTH,ComponentDrill
T4C1.143
%
G90
G05
T2
X123.952Y-128.372
X123.952Y-143.612
X126.492Y-128.372
X126.492Y-143.612
X129.032Y-128.372
X129.032Y-143.612
X131.572Y-128.372
X131.572Y-143.612
X134.112Y-128.372
X134.112Y-143.612
X136.652Y-128.372
X136.652Y-143.612
X139.192Y-128.372
X139.192Y-143.612
X141.732Y-128.372
X141.732Y-143.612
X144.272Y-128.372
X144.272Y-143.612
X146.812Y-128.372
X146.812Y-143.612
X149.352Y-128.372
X149.352Y-143.612
X151.892Y-128.372
X151.892Y-143.612
X154.432Y-128.372
X154.432Y-143.612
X156.972Y-128.372
X156.972Y-143.612
X159.512Y-128.372
X159.512Y-143.612
T3
X120.702Y-57.186
X120.702Y-61.686
X127.202Y-57.186
X127.202Y-61.686
X133.454Y-71.882
X133.454Y-76.382
X139.954Y-71.882
X139.954Y-76.382
X142.598Y-61.976
X142.598Y-66.476
X142.598Y-81.788
X142.598Y-86.288
X148.896Y-49.058
X148.896Y-53.558
X149.098Y-61.976
X149.098Y-66.476
X149.098Y-81.788
X149.098Y-86.288
X150.98Y-71.882
X150.98Y-76.382
X155.396Y-49.058
X155.396Y-53.558
X157.48Y-71.882
X157.48Y-76.382
T4
X130.143Y-100.33
X130.143Y-102.87
X130.143Y-105.41
X130.143Y-107.95
X130.143Y-110.49
T1
G00X138.049Y-122.046
M15
G01X139.659Y-122.046
M16
G05
G00X150.929Y-122.046
M15
G01X152.539Y-122.046
M16
G05
M30
