%TF.GenerationSoftware,KiCad,Pcbnew,8.0.2*%
%TF.CreationDate,2024-05-08T14:23:23+01:00*%
%TF.ProjectId,Right_Controller_PCB_Bluetooth,52696768-745f-4436-9f6e-74726f6c6c65,V01*%
%TF.SameCoordinates,Original*%
%TF.FileFunction,Copper,L1,Top*%
%TF.FilePolarity,Positive*%
%FSLAX46Y46*%
G04 Gerber Fmt 4.6, Leading zero omitted, Abs format (unit mm)*
G04 Created by KiCad (PCBNEW 8.0.2) date 2024-05-08 14:23:23*
%MOMM*%
%LPD*%
G01*
G04 APERTURE LIST*
%ADD10C,0.300000*%
%TA.AperFunction,NonConductor*%
%ADD11C,0.300000*%
%TD*%
%TA.AperFunction,ComponentPad*%
%ADD12C,1.524000*%
%TD*%
%TA.AperFunction,ComponentPad*%
%ADD13C,2.000000*%
%TD*%
%TA.AperFunction,ComponentPad*%
%ADD14R,1.600000X1.600000*%
%TD*%
%TA.AperFunction,ComponentPad*%
%ADD15O,1.600000X1.600000*%
%TD*%
%TA.AperFunction,WasherPad*%
%ADD16C,2.300000*%
%TD*%
%TA.AperFunction,ComponentPad*%
%ADD17R,4.020000X2.410000*%
%TD*%
%TA.AperFunction,ComponentPad*%
%ADD18O,4.020000X2.410000*%
%TD*%
%TA.AperFunction,Conductor*%
%ADD19C,1.000000*%
%TD*%
G04 APERTURE END LIST*
D10*
D11*
X159852225Y-146382828D02*
X160352225Y-147882828D01*
X160352225Y-147882828D02*
X160852225Y-146382828D01*
X161637939Y-146382828D02*
X161780796Y-146382828D01*
X161780796Y-146382828D02*
X161923653Y-146454257D01*
X161923653Y-146454257D02*
X161995082Y-146525685D01*
X161995082Y-146525685D02*
X162066510Y-146668542D01*
X162066510Y-146668542D02*
X162137939Y-146954257D01*
X162137939Y-146954257D02*
X162137939Y-147311400D01*
X162137939Y-147311400D02*
X162066510Y-147597114D01*
X162066510Y-147597114D02*
X161995082Y-147739971D01*
X161995082Y-147739971D02*
X161923653Y-147811400D01*
X161923653Y-147811400D02*
X161780796Y-147882828D01*
X161780796Y-147882828D02*
X161637939Y-147882828D01*
X161637939Y-147882828D02*
X161495082Y-147811400D01*
X161495082Y-147811400D02*
X161423653Y-147739971D01*
X161423653Y-147739971D02*
X161352224Y-147597114D01*
X161352224Y-147597114D02*
X161280796Y-147311400D01*
X161280796Y-147311400D02*
X161280796Y-146954257D01*
X161280796Y-146954257D02*
X161352224Y-146668542D01*
X161352224Y-146668542D02*
X161423653Y-146525685D01*
X161423653Y-146525685D02*
X161495082Y-146454257D01*
X161495082Y-146454257D02*
X161637939Y-146382828D01*
X163566510Y-147882828D02*
X162709367Y-147882828D01*
X163137938Y-147882828D02*
X163137938Y-146382828D01*
X163137938Y-146382828D02*
X162995081Y-146597114D01*
X162995081Y-146597114D02*
X162852224Y-146739971D01*
X162852224Y-146739971D02*
X162709367Y-146811400D01*
D12*
%TO.P,JoystickR1,1,GND*%
%TO.N,GND*%
X130143250Y-100330000D03*
%TO.P,JoystickR1,2,+5V*%
%TO.N,+3.3V*%
X130143250Y-102870000D03*
%TO.P,JoystickR1,3,VRX*%
%TO.N,/Analog_X_R*%
X130143250Y-105410000D03*
%TO.P,JoystickR1,4,VRY*%
%TO.N,/Analog_Y_R*%
X130143250Y-107950000D03*
%TO.P,JoystickR1,5,SW*%
%TO.N,/SEL_JOY_R*%
X130143250Y-110490000D03*
%TD*%
D13*
%TO.P,START_R1,1,1*%
%TO.N,/START_R*%
X127202000Y-61686000D03*
X120702000Y-61686000D03*
%TO.P,START_R1,2,2*%
%TO.N,GND*%
X127202000Y-57186000D03*
X120702000Y-57186000D03*
%TD*%
%TO.P,A1,1,1*%
%TO.N,/A*%
X142598000Y-81788000D03*
X149098000Y-81788000D03*
%TO.P,A1,2,2*%
%TO.N,GND*%
X142598000Y-86288000D03*
X149098000Y-86288000D03*
%TD*%
%TO.P,X1,1,1*%
%TO.N,GND*%
X133454000Y-71882000D03*
X139954000Y-71882000D03*
%TO.P,X1,2,2*%
%TO.N,/X*%
X133454000Y-76382000D03*
X139954000Y-76382000D03*
%TD*%
%TO.P,RIGHT_SHOULDER1,1,1*%
%TO.N,/RIGHT_SHOULDER*%
X148896000Y-49058000D03*
X155396000Y-49058000D03*
%TO.P,RIGHT_SHOULDER1,2,2*%
%TO.N,GND*%
X148896000Y-53558000D03*
X155396000Y-53558000D03*
%TD*%
%TO.P,B1,1,1*%
%TO.N,/B*%
X150980000Y-71882000D03*
X157480000Y-71882000D03*
%TO.P,B1,2,2*%
%TO.N,GND*%
X150980000Y-76382000D03*
X157480000Y-76382000D03*
%TD*%
%TO.P,Y1,1,1*%
%TO.N,/Y*%
X142598000Y-61976000D03*
X149098000Y-61976000D03*
%TO.P,Y1,2,2*%
%TO.N,GND*%
X142598000Y-66476000D03*
X149098000Y-66476000D03*
%TD*%
D14*
%TO.P,CentralBoard1,1,D1/TX*%
%TO.N,unconnected-(CentralBoard1-D1{slash}TX-Pad1)*%
X159512000Y-143611600D03*
D15*
%TO.P,CentralBoard1,2,D0/RX*%
%TO.N,unconnected-(CentralBoard1-D0{slash}RX-Pad2)*%
X156972000Y-143611600D03*
%TO.P,CentralBoard1,3,~{RESET}*%
%TO.N,unconnected-(CentralBoard1-~{RESET}-Pad3)*%
X154432000Y-143611600D03*
%TO.P,CentralBoard1,4,GND*%
%TO.N,GND*%
X151892000Y-143611600D03*
%TO.P,CentralBoard1,5,D2*%
%TO.N,/Y*%
X149352000Y-143611600D03*
%TO.P,CentralBoard1,6,D3*%
%TO.N,/B*%
X146812000Y-143611600D03*
%TO.P,CentralBoard1,7,D4*%
%TO.N,/A*%
X144272000Y-143611600D03*
%TO.P,CentralBoard1,8,D5*%
%TO.N,/X*%
X141732000Y-143611600D03*
%TO.P,CentralBoard1,9,D6*%
%TO.N,/SEL_JOY_R*%
X139192000Y-143611600D03*
%TO.P,CentralBoard1,10,D7*%
%TO.N,/START_R*%
X136652000Y-143611600D03*
%TO.P,CentralBoard1,11,D8*%
%TO.N,unconnected-(CentralBoard1-D8-Pad11)*%
X134112000Y-143611600D03*
%TO.P,CentralBoard1,12,D9*%
%TO.N,unconnected-(CentralBoard1-D9-Pad12)*%
X131572000Y-143611600D03*
%TO.P,CentralBoard1,13,D10*%
%TO.N,unconnected-(CentralBoard1-D10-Pad13)*%
X129032000Y-143611600D03*
%TO.P,CentralBoard1,14,D11*%
%TO.N,unconnected-(CentralBoard1-D11-Pad14)*%
X126492000Y-143611600D03*
%TO.P,CentralBoard1,15,D12*%
%TO.N,unconnected-(CentralBoard1-D12-Pad15)*%
X123952000Y-143611600D03*
%TO.P,CentralBoard1,16,D13*%
%TO.N,/RIGHT_SHOULDER*%
X123952000Y-128371600D03*
%TO.P,CentralBoard1,17,3V3*%
%TO.N,+3.3V*%
X126492000Y-128371600D03*
%TO.P,CentralBoard1,18,AREF*%
%TO.N,unconnected-(CentralBoard1-AREF-Pad18)*%
X129032000Y-128371600D03*
%TO.P,CentralBoard1,19,A0*%
%TO.N,/Analog_X_R*%
X131572000Y-128371600D03*
%TO.P,CentralBoard1,20,A1*%
%TO.N,/Analog_Y_R*%
X134112000Y-128371600D03*
%TO.P,CentralBoard1,21,A2*%
%TO.N,unconnected-(CentralBoard1-A2-Pad21)*%
X136652000Y-128371600D03*
%TO.P,CentralBoard1,22,A3*%
%TO.N,unconnected-(CentralBoard1-A3-Pad22)*%
X139192000Y-128371600D03*
%TO.P,CentralBoard1,23,A4*%
%TO.N,unconnected-(CentralBoard1-A4-Pad23)*%
X141732000Y-128371600D03*
%TO.P,CentralBoard1,24,A5*%
%TO.N,unconnected-(CentralBoard1-A5-Pad24)*%
X144272000Y-128371600D03*
%TO.P,CentralBoard1,25,A6*%
%TO.N,unconnected-(CentralBoard1-A6-Pad25)*%
X146812000Y-128371600D03*
%TO.P,CentralBoard1,26,A7*%
%TO.N,unconnected-(CentralBoard1-A7-Pad26)*%
X149352000Y-128371600D03*
%TO.P,CentralBoard1,27,+5V*%
%TO.N,unconnected-(CentralBoard1-+5V-Pad27)*%
X151892000Y-128371600D03*
%TO.P,CentralBoard1,28,~{RESET}*%
%TO.N,unconnected-(CentralBoard1-~{RESET}-Pad28)*%
X154432000Y-128371600D03*
%TO.P,CentralBoard1,29,GND*%
%TO.N,GND*%
X156972000Y-128371600D03*
%TO.P,CentralBoard1,30,VIN*%
%TO.N,+9V*%
X159512000Y-128371600D03*
%TD*%
D16*
%TO.P,BAT9V1,*%
%TO.N,*%
X134114000Y-109756000D03*
X156464000Y-96266000D03*
X134114000Y-82786000D03*
D17*
%TO.P,BAT9V1,1,+*%
%TO.N,+9V*%
X151734000Y-122046000D03*
D18*
%TO.P,BAT9V1,2,-*%
%TO.N,GND*%
X138854000Y-122046000D03*
%TD*%
D19*
%TO.N,+9V*%
X151734000Y-122046000D02*
X154644000Y-122046000D01*
X154644000Y-122046000D02*
X159512000Y-126914000D01*
X159512000Y-126914000D02*
X159512000Y-128371600D01*
%TO.N,GND*%
X133308000Y-57186000D02*
X142598000Y-66476000D01*
X130143250Y-86360000D02*
X130143250Y-75192750D01*
X139954000Y-69120000D02*
X142598000Y-66476000D01*
X142598000Y-86288000D02*
X130215250Y-86288000D01*
X138854000Y-122046000D02*
X142284000Y-125476000D01*
X154940000Y-125476000D02*
X156972000Y-127508000D01*
X146480000Y-71882000D02*
X139954000Y-71882000D01*
X142284000Y-125476000D02*
X154940000Y-125476000D01*
X149098000Y-86288000D02*
X146812000Y-84002000D01*
X148896000Y-53558000D02*
X136936000Y-53558000D01*
X139954000Y-71882000D02*
X139954000Y-69120000D01*
X127202000Y-57186000D02*
X133308000Y-57186000D01*
X146812000Y-80550000D02*
X150980000Y-76382000D01*
X130215250Y-86288000D02*
X130143250Y-86360000D01*
X156972000Y-127508000D02*
X156972000Y-128371600D01*
X130143250Y-75192750D02*
X133454000Y-71882000D01*
X130143250Y-100330000D02*
X130143250Y-88900000D01*
X150980000Y-76382000D02*
X146480000Y-71882000D01*
X136936000Y-53558000D02*
X133308000Y-57186000D01*
X146812000Y-84002000D02*
X146812000Y-80550000D01*
X130143250Y-88900000D02*
X130143250Y-86360000D01*
%TO.N,/A*%
X157480000Y-81788000D02*
X149098000Y-81788000D01*
X144272000Y-143611600D02*
X144272000Y-138938000D01*
X165354000Y-132321236D02*
X165354000Y-89662000D01*
X162039236Y-135636000D02*
X165354000Y-132321236D01*
X144272000Y-138938000D02*
X147574000Y-135636000D01*
X147574000Y-135636000D02*
X162039236Y-135636000D01*
X165354000Y-89662000D02*
X157480000Y-81788000D01*
%TO.N,/B*%
X146812000Y-143611600D02*
X146812000Y-139192000D01*
X167132000Y-133313403D02*
X167132000Y-81534000D01*
X146812000Y-139192000D02*
X148590000Y-137414000D01*
X163031403Y-137414000D02*
X167132000Y-133313403D01*
X167132000Y-81534000D02*
X157480000Y-71882000D01*
X148590000Y-137414000D02*
X163031403Y-137414000D01*
%TO.N,/Analog_X_R*%
X130143250Y-105410000D02*
X129065620Y-105410000D01*
X131572000Y-125730000D02*
X131572000Y-128371600D01*
X129065620Y-105410000D02*
X125222000Y-109253620D01*
X125222000Y-119380000D02*
X131572000Y-125730000D01*
X125222000Y-109253620D02*
X125222000Y-119380000D01*
%TO.N,/Analog_Y_R*%
X129065620Y-107950000D02*
X127254000Y-109761620D01*
X127254000Y-118364000D02*
X134112000Y-125222000D01*
X127254000Y-109761620D02*
X127254000Y-118364000D01*
X130143250Y-107950000D02*
X129065620Y-107950000D01*
X134112000Y-125222000D02*
X134112000Y-128371600D01*
%TO.N,/Y*%
X152654000Y-61976000D02*
X149098000Y-61976000D01*
X168910000Y-133959299D02*
X168910000Y-78232000D01*
X168910000Y-78232000D02*
X152654000Y-61976000D01*
X151264487Y-139311513D02*
X163557786Y-139311513D01*
X163557786Y-139311513D02*
X168910000Y-133959299D01*
X149352000Y-143611600D02*
X149352000Y-141224000D01*
X149352000Y-141224000D02*
X151264487Y-139311513D01*
%TO.N,/X*%
X141732000Y-138176000D02*
X146304000Y-133604000D01*
X163576000Y-130810000D02*
X163576000Y-109982000D01*
X160782000Y-133604000D02*
X163576000Y-130810000D01*
X146304000Y-133604000D02*
X160782000Y-133604000D01*
X145034000Y-91440000D02*
X145034000Y-80010000D01*
X163576000Y-109982000D02*
X145034000Y-91440000D01*
X145034000Y-80010000D02*
X141406000Y-76382000D01*
X141406000Y-76382000D02*
X139954000Y-76382000D01*
X141732000Y-143611600D02*
X141732000Y-138176000D01*
%TO.N,/RIGHT_SHOULDER*%
X121158000Y-64341270D02*
X122936000Y-62563270D01*
X124036000Y-128371600D02*
X124036000Y-124714000D01*
X130350000Y-49058000D02*
X148980000Y-49058000D01*
X122936000Y-56472000D02*
X130350000Y-49058000D01*
X124036000Y-124714000D02*
X121158000Y-121836000D01*
X121158000Y-121836000D02*
X121158000Y-64341270D01*
X122936000Y-62563270D02*
X122936000Y-56472000D01*
%TO.N,/START_R*%
X122936000Y-131572000D02*
X118618000Y-127254000D01*
X118618000Y-63770000D02*
X120702000Y-61686000D01*
X136652000Y-143611600D02*
X136652000Y-133096000D01*
X136652000Y-133096000D02*
X135128000Y-131572000D01*
X135128000Y-131572000D02*
X122936000Y-131572000D01*
X118618000Y-127254000D02*
X118618000Y-63770000D01*
%TO.N,+3.3V*%
X126492000Y-123952000D02*
X126492000Y-128371600D01*
X123190000Y-120650000D02*
X126492000Y-123952000D01*
X123190000Y-108745620D02*
X123190000Y-120650000D01*
X130143250Y-102870000D02*
X129065620Y-102870000D01*
X129065620Y-102870000D02*
X123190000Y-108745620D01*
%TO.N,/SEL_JOY_R*%
X131921250Y-112268000D02*
X130143250Y-110490000D01*
X139192000Y-143611600D02*
X139192000Y-137414000D01*
X159766000Y-131826000D02*
X161798000Y-129794000D01*
X161798000Y-123753544D02*
X150312456Y-112268000D01*
X139192000Y-137414000D02*
X144780000Y-131826000D01*
X144780000Y-131826000D02*
X159766000Y-131826000D01*
X161798000Y-129794000D02*
X161798000Y-123753544D01*
X150312456Y-112268000D02*
X131921250Y-112268000D01*
%TD*%
%TA.AperFunction,Conductor*%
%TO.N,GND*%
G36*
X117705703Y-128039913D02*
G01*
X117712181Y-128045945D01*
X122153926Y-132487690D01*
X122306801Y-132598760D01*
X122475168Y-132684547D01*
X122654882Y-132742940D01*
X122724870Y-132754025D01*
X122841513Y-132772500D01*
X122841518Y-132772500D01*
X122841519Y-132772500D01*
X134579374Y-132772500D01*
X134646413Y-132792185D01*
X134667055Y-132808819D01*
X135415181Y-133556945D01*
X135448666Y-133618268D01*
X135451500Y-133644626D01*
X135451500Y-142533425D01*
X135431815Y-142600464D01*
X135379011Y-142646219D01*
X135309853Y-142656163D01*
X135246297Y-142627138D01*
X135236270Y-142617408D01*
X135131744Y-142503862D01*
X134935509Y-142351126D01*
X134935507Y-142351125D01*
X134935506Y-142351124D01*
X134716811Y-142232772D01*
X134716802Y-142232769D01*
X134481616Y-142152029D01*
X134236335Y-142111100D01*
X133987665Y-142111100D01*
X133742383Y-142152029D01*
X133507197Y-142232769D01*
X133507188Y-142232772D01*
X133288493Y-142351124D01*
X133092257Y-142503861D01*
X132933230Y-142676610D01*
X132873342Y-142712601D01*
X132803504Y-142710500D01*
X132750770Y-142676610D01*
X132696270Y-142617408D01*
X132591744Y-142503862D01*
X132395509Y-142351126D01*
X132395507Y-142351125D01*
X132395506Y-142351124D01*
X132176811Y-142232772D01*
X132176802Y-142232769D01*
X131941616Y-142152029D01*
X131696335Y-142111100D01*
X131447665Y-142111100D01*
X131202383Y-142152029D01*
X130967197Y-142232769D01*
X130967188Y-142232772D01*
X130748493Y-142351124D01*
X130552257Y-142503861D01*
X130393230Y-142676610D01*
X130333342Y-142712601D01*
X130263504Y-142710500D01*
X130210770Y-142676610D01*
X130156270Y-142617408D01*
X130051744Y-142503862D01*
X129855509Y-142351126D01*
X129855507Y-142351125D01*
X129855506Y-142351124D01*
X129636811Y-142232772D01*
X129636802Y-142232769D01*
X129401616Y-142152029D01*
X129156335Y-142111100D01*
X128907665Y-142111100D01*
X128662383Y-142152029D01*
X128427197Y-142232769D01*
X128427188Y-142232772D01*
X128208493Y-142351124D01*
X128012257Y-142503861D01*
X127853230Y-142676610D01*
X127793342Y-142712601D01*
X127723504Y-142710500D01*
X127670770Y-142676610D01*
X127616270Y-142617408D01*
X127511744Y-142503862D01*
X127315509Y-142351126D01*
X127315507Y-142351125D01*
X127315506Y-142351124D01*
X127096811Y-142232772D01*
X127096802Y-142232769D01*
X126861616Y-142152029D01*
X126616335Y-142111100D01*
X126367665Y-142111100D01*
X126122383Y-142152029D01*
X125887197Y-142232769D01*
X125887188Y-142232772D01*
X125668493Y-142351124D01*
X125472257Y-142503861D01*
X125313230Y-142676610D01*
X125253342Y-142712601D01*
X125183504Y-142710500D01*
X125130770Y-142676610D01*
X125076270Y-142617408D01*
X124971744Y-142503862D01*
X124775509Y-142351126D01*
X124775507Y-142351125D01*
X124775506Y-142351124D01*
X124556811Y-142232772D01*
X124556802Y-142232769D01*
X124321616Y-142152029D01*
X124076335Y-142111100D01*
X123827665Y-142111100D01*
X123582383Y-142152029D01*
X123347197Y-142232769D01*
X123347188Y-142232772D01*
X123128493Y-142351124D01*
X122932257Y-142503861D01*
X122763833Y-142686817D01*
X122627826Y-142894993D01*
X122527936Y-143122718D01*
X122466892Y-143363775D01*
X122466890Y-143363787D01*
X122446357Y-143611594D01*
X122446357Y-143611605D01*
X122466890Y-143859412D01*
X122466892Y-143859424D01*
X122527936Y-144100481D01*
X122627826Y-144328206D01*
X122763833Y-144536382D01*
X122763835Y-144536384D01*
X122763836Y-144536385D01*
X122932256Y-144719338D01*
X123128491Y-144872074D01*
X123347190Y-144990428D01*
X123582386Y-145071171D01*
X123827665Y-145112100D01*
X124076335Y-145112100D01*
X124321614Y-145071171D01*
X124556810Y-144990428D01*
X124775509Y-144872074D01*
X124971744Y-144719338D01*
X125130771Y-144546588D01*
X125190657Y-144510599D01*
X125260495Y-144512699D01*
X125313228Y-144546588D01*
X125472256Y-144719338D01*
X125668491Y-144872074D01*
X125887190Y-144990428D01*
X126122386Y-145071171D01*
X126367665Y-145112100D01*
X126616335Y-145112100D01*
X126861614Y-145071171D01*
X127096810Y-144990428D01*
X127315509Y-144872074D01*
X127511744Y-144719338D01*
X127670771Y-144546588D01*
X127730657Y-144510599D01*
X127800495Y-144512699D01*
X127853228Y-144546588D01*
X128012256Y-144719338D01*
X128208491Y-144872074D01*
X128427190Y-144990428D01*
X128662386Y-145071171D01*
X128907665Y-145112100D01*
X129156335Y-145112100D01*
X129401614Y-145071171D01*
X129636810Y-144990428D01*
X129855509Y-144872074D01*
X130051744Y-144719338D01*
X130210771Y-144546588D01*
X130270657Y-144510599D01*
X130340495Y-144512699D01*
X130393228Y-144546588D01*
X130552256Y-144719338D01*
X130748491Y-144872074D01*
X130967190Y-144990428D01*
X131202386Y-145071171D01*
X131447665Y-145112100D01*
X131696335Y-145112100D01*
X131941614Y-145071171D01*
X132176810Y-144990428D01*
X132395509Y-144872074D01*
X132591744Y-144719338D01*
X132750771Y-144546588D01*
X132810657Y-144510599D01*
X132880495Y-144512699D01*
X132933228Y-144546588D01*
X133092256Y-144719338D01*
X133288491Y-144872074D01*
X133507190Y-144990428D01*
X133742386Y-145071171D01*
X133987665Y-145112100D01*
X134236335Y-145112100D01*
X134481614Y-145071171D01*
X134716810Y-144990428D01*
X134935509Y-144872074D01*
X135131744Y-144719338D01*
X135290771Y-144546588D01*
X135350657Y-144510599D01*
X135420495Y-144512699D01*
X135473228Y-144546588D01*
X135632256Y-144719338D01*
X135828491Y-144872074D01*
X136047190Y-144990428D01*
X136282386Y-145071171D01*
X136527665Y-145112100D01*
X136776335Y-145112100D01*
X137021614Y-145071171D01*
X137256810Y-144990428D01*
X137475509Y-144872074D01*
X137671744Y-144719338D01*
X137830771Y-144546588D01*
X137890657Y-144510599D01*
X137960495Y-144512699D01*
X138013228Y-144546588D01*
X138172256Y-144719338D01*
X138368491Y-144872074D01*
X138587190Y-144990428D01*
X138822386Y-145071171D01*
X139067665Y-145112100D01*
X139316335Y-145112100D01*
X139561614Y-145071171D01*
X139796810Y-144990428D01*
X140015509Y-144872074D01*
X140211744Y-144719338D01*
X140370771Y-144546588D01*
X140430657Y-144510599D01*
X140500495Y-144512699D01*
X140553228Y-144546588D01*
X140712256Y-144719338D01*
X140908491Y-144872074D01*
X141127190Y-144990428D01*
X141362386Y-145071171D01*
X141607665Y-145112100D01*
X141856335Y-145112100D01*
X142101614Y-145071171D01*
X142336810Y-144990428D01*
X142555509Y-144872074D01*
X142751744Y-144719338D01*
X142910771Y-144546588D01*
X142970657Y-144510599D01*
X143040495Y-144512699D01*
X143093228Y-144546588D01*
X143252256Y-144719338D01*
X143448491Y-144872074D01*
X143667190Y-144990428D01*
X143902386Y-145071171D01*
X144147665Y-145112100D01*
X144396335Y-145112100D01*
X144641614Y-145071171D01*
X144876810Y-144990428D01*
X145095509Y-144872074D01*
X145291744Y-144719338D01*
X145450771Y-144546588D01*
X145510657Y-144510599D01*
X145580495Y-144512699D01*
X145633228Y-144546588D01*
X145792256Y-144719338D01*
X145988491Y-144872074D01*
X146207190Y-144990428D01*
X146442386Y-145071171D01*
X146687665Y-145112100D01*
X146936335Y-145112100D01*
X147181614Y-145071171D01*
X147416810Y-144990428D01*
X147635509Y-144872074D01*
X147831744Y-144719338D01*
X147990771Y-144546588D01*
X148050657Y-144510599D01*
X148120495Y-144512699D01*
X148173228Y-144546588D01*
X148332256Y-144719338D01*
X148528491Y-144872074D01*
X148747190Y-144990428D01*
X148982386Y-145071171D01*
X149227665Y-145112100D01*
X149476335Y-145112100D01*
X149721614Y-145071171D01*
X149956810Y-144990428D01*
X150175509Y-144872074D01*
X150371744Y-144719338D01*
X150540164Y-144536385D01*
X150638957Y-144385169D01*
X150692103Y-144339813D01*
X150761334Y-144330389D01*
X150824670Y-144359891D01*
X150844341Y-144381868D01*
X150892339Y-144450417D01*
X151053179Y-144611257D01*
X151239517Y-144741734D01*
X151445673Y-144837865D01*
X151445682Y-144837869D01*
X151641999Y-144890472D01*
X151642000Y-144890471D01*
X151642000Y-144044612D01*
X151699007Y-144077525D01*
X151826174Y-144111600D01*
X151957826Y-144111600D01*
X152084993Y-144077525D01*
X152142000Y-144044612D01*
X152142000Y-144890472D01*
X152338317Y-144837869D01*
X152338326Y-144837865D01*
X152544482Y-144741734D01*
X152730820Y-144611257D01*
X152891658Y-144450419D01*
X152939657Y-144381869D01*
X152994234Y-144338243D01*
X153063732Y-144331049D01*
X153126087Y-144362571D01*
X153145042Y-144385169D01*
X153243836Y-144536385D01*
X153412256Y-144719338D01*
X153608491Y-144872074D01*
X153827190Y-144990428D01*
X154062386Y-145071171D01*
X154307665Y-145112100D01*
X154556335Y-145112100D01*
X154801614Y-145071171D01*
X155036810Y-144990428D01*
X155255509Y-144872074D01*
X155451744Y-144719338D01*
X155610771Y-144546588D01*
X155670657Y-144510599D01*
X155740495Y-144512699D01*
X155793228Y-144546588D01*
X155952256Y-144719338D01*
X156148491Y-144872074D01*
X156367190Y-144990428D01*
X156602386Y-145071171D01*
X156847665Y-145112100D01*
X157096335Y-145112100D01*
X157341614Y-145071171D01*
X157576810Y-144990428D01*
X157795509Y-144872074D01*
X157941310Y-144758592D01*
X158006302Y-144732950D01*
X158074842Y-144746516D01*
X158123587Y-144792295D01*
X158156528Y-144846785D01*
X158156531Y-144846789D01*
X158276811Y-144967069D01*
X158276813Y-144967070D01*
X158276815Y-144967072D01*
X158422394Y-145055078D01*
X158584804Y-145105686D01*
X158655384Y-145112100D01*
X158655387Y-145112100D01*
X160368613Y-145112100D01*
X160368616Y-145112100D01*
X160439196Y-145105686D01*
X160601606Y-145055078D01*
X160747185Y-144967072D01*
X160867472Y-144846785D01*
X160955478Y-144701206D01*
X161006086Y-144538796D01*
X161012500Y-144468216D01*
X161012500Y-142754984D01*
X161006086Y-142684404D01*
X160955478Y-142521994D01*
X160867472Y-142376415D01*
X160867470Y-142376413D01*
X160867469Y-142376411D01*
X160747188Y-142256130D01*
X160708549Y-142232772D01*
X160601606Y-142168122D01*
X160439196Y-142117514D01*
X160439194Y-142117513D01*
X160439192Y-142117513D01*
X160389778Y-142113023D01*
X160368616Y-142111100D01*
X158655384Y-142111100D01*
X158636145Y-142112848D01*
X158584807Y-142117513D01*
X158422393Y-142168122D01*
X158276811Y-142256130D01*
X158156530Y-142376411D01*
X158123587Y-142430905D01*
X158072058Y-142478091D01*
X158003199Y-142489929D01*
X157941309Y-142464607D01*
X157795506Y-142351124D01*
X157576811Y-142232772D01*
X157576802Y-142232769D01*
X157341616Y-142152029D01*
X157096335Y-142111100D01*
X156847665Y-142111100D01*
X156602383Y-142152029D01*
X156367197Y-142232769D01*
X156367188Y-142232772D01*
X156148493Y-142351124D01*
X155952257Y-142503861D01*
X155793230Y-142676610D01*
X155733342Y-142712601D01*
X155663504Y-142710500D01*
X155610770Y-142676610D01*
X155556270Y-142617408D01*
X155451744Y-142503862D01*
X155255509Y-142351126D01*
X155255507Y-142351125D01*
X155255506Y-142351124D01*
X155036811Y-142232772D01*
X155036802Y-142232769D01*
X154801616Y-142152029D01*
X154556335Y-142111100D01*
X154307665Y-142111100D01*
X154062383Y-142152029D01*
X153827197Y-142232769D01*
X153827188Y-142232772D01*
X153608493Y-142351124D01*
X153412257Y-142503861D01*
X153243832Y-142686819D01*
X153145041Y-142838030D01*
X153091895Y-142883386D01*
X153022664Y-142892810D01*
X152959328Y-142863308D01*
X152939658Y-142841331D01*
X152891659Y-142772781D01*
X152730820Y-142611942D01*
X152544482Y-142481465D01*
X152338328Y-142385334D01*
X152142000Y-142332727D01*
X152142000Y-143178588D01*
X152084993Y-143145675D01*
X151957826Y-143111600D01*
X151826174Y-143111600D01*
X151699007Y-143145675D01*
X151642000Y-143178588D01*
X151642000Y-142332727D01*
X151445671Y-142385334D01*
X151239517Y-142481465D01*
X151053179Y-142611942D01*
X150892342Y-142772779D01*
X150844341Y-142841332D01*
X150789763Y-142884957D01*
X150720265Y-142892149D01*
X150657910Y-142860627D01*
X150638957Y-142838029D01*
X150572691Y-142736600D01*
X150552503Y-142669710D01*
X150552500Y-142668779D01*
X150552500Y-141772626D01*
X150572185Y-141705587D01*
X150588819Y-141684945D01*
X151725432Y-140548332D01*
X151786755Y-140514847D01*
X151813113Y-140512013D01*
X163652272Y-140512013D01*
X163838904Y-140482453D01*
X164018618Y-140424060D01*
X164186985Y-140338273D01*
X164339860Y-140227203D01*
X169287819Y-135279242D01*
X169349142Y-135245758D01*
X169418834Y-135250742D01*
X169474767Y-135292614D01*
X169499184Y-135358078D01*
X169499500Y-135366924D01*
X169499500Y-145679386D01*
X169479815Y-145746425D01*
X169427011Y-145792180D01*
X169357853Y-145802124D01*
X169294297Y-145773099D01*
X169268115Y-145741389D01*
X169232736Y-145680111D01*
X169163021Y-145589256D01*
X169085066Y-145487663D01*
X169085060Y-145487656D01*
X168913543Y-145316139D01*
X168913536Y-145316133D01*
X168721093Y-145168467D01*
X168721092Y-145168466D01*
X168721089Y-145168464D01*
X168511012Y-145047176D01*
X168511005Y-145047173D01*
X168286904Y-144954347D01*
X168052585Y-144891561D01*
X167812089Y-144859900D01*
X167812088Y-144859900D01*
X167569512Y-144859900D01*
X167569511Y-144859900D01*
X167329014Y-144891561D01*
X167094695Y-144954347D01*
X166870594Y-145047173D01*
X166870585Y-145047177D01*
X166660506Y-145168467D01*
X166468063Y-145316133D01*
X166468056Y-145316139D01*
X166296539Y-145487656D01*
X166296533Y-145487663D01*
X166148867Y-145680106D01*
X166027577Y-145890185D01*
X166027573Y-145890194D01*
X165934747Y-146114295D01*
X165871961Y-146348614D01*
X165840300Y-146589111D01*
X165840300Y-146831688D01*
X165871961Y-147072185D01*
X165934747Y-147306504D01*
X166005784Y-147478001D01*
X166027576Y-147530612D01*
X166148864Y-147740689D01*
X166148866Y-147740692D01*
X166148867Y-147740693D01*
X166296533Y-147933136D01*
X166296539Y-147933143D01*
X166468056Y-148104660D01*
X166468062Y-148104665D01*
X166660511Y-148252336D01*
X166687840Y-148268114D01*
X166736054Y-148318681D01*
X166749276Y-148387288D01*
X166723308Y-148452153D01*
X166666393Y-148492680D01*
X166625838Y-148499500D01*
X164546010Y-148499500D01*
X164478971Y-148479815D01*
X164433216Y-148427011D01*
X164422010Y-148375500D01*
X164422010Y-145524484D01*
X158995000Y-145524484D01*
X158995000Y-148375500D01*
X158975315Y-148442539D01*
X158922511Y-148488294D01*
X158871000Y-148499500D01*
X120433479Y-148499500D01*
X120366440Y-148479815D01*
X120320685Y-148427011D01*
X120310741Y-148357853D01*
X120339766Y-148294297D01*
X120357993Y-148277124D01*
X120393809Y-148249640D01*
X120450338Y-148206265D01*
X120621865Y-148034738D01*
X120769536Y-147842289D01*
X120890824Y-147632212D01*
X120983654Y-147408100D01*
X121046438Y-147173789D01*
X121078100Y-146933288D01*
X121078100Y-146690712D01*
X121046438Y-146450211D01*
X120983654Y-146215900D01*
X120890824Y-145991788D01*
X120769536Y-145781711D01*
X120621865Y-145589262D01*
X120621860Y-145589256D01*
X120450343Y-145417739D01*
X120450336Y-145417733D01*
X120257893Y-145270067D01*
X120257892Y-145270066D01*
X120257889Y-145270064D01*
X120047812Y-145148776D01*
X120047805Y-145148773D01*
X119823704Y-145055947D01*
X119589385Y-144993161D01*
X119348889Y-144961500D01*
X119348888Y-144961500D01*
X119106312Y-144961500D01*
X119106311Y-144961500D01*
X118865814Y-144993161D01*
X118631495Y-145055947D01*
X118407394Y-145148773D01*
X118407385Y-145148777D01*
X118197306Y-145270067D01*
X118004863Y-145417733D01*
X118004856Y-145417739D01*
X117833339Y-145589256D01*
X117833333Y-145589263D01*
X117722876Y-145733214D01*
X117666448Y-145774417D01*
X117596702Y-145778572D01*
X117535782Y-145744360D01*
X117503029Y-145682642D01*
X117500500Y-145657728D01*
X117500500Y-128133626D01*
X117520185Y-128066587D01*
X117572989Y-128020832D01*
X117642147Y-128010888D01*
X117705703Y-128039913D01*
G37*
%TD.AperFunction*%
%TA.AperFunction,Conductor*%
G36*
X120023703Y-122274196D02*
G01*
X120052984Y-122311613D01*
X120131240Y-122465199D01*
X120242310Y-122618074D01*
X120242311Y-122618075D01*
X120242312Y-122618076D01*
X122799181Y-125174944D01*
X122832666Y-125236267D01*
X122835500Y-125262625D01*
X122835500Y-127320581D01*
X122815815Y-127387620D01*
X122802731Y-127404563D01*
X122763833Y-127446817D01*
X122627826Y-127654993D01*
X122527936Y-127882718D01*
X122466892Y-128123775D01*
X122466890Y-128123787D01*
X122446357Y-128371594D01*
X122446357Y-128371605D01*
X122466890Y-128619412D01*
X122466892Y-128619424D01*
X122527936Y-128860481D01*
X122627826Y-129088206D01*
X122763833Y-129296382D01*
X122763835Y-129296384D01*
X122763836Y-129296385D01*
X122932256Y-129479338D01*
X123128491Y-129632074D01*
X123347190Y-129750428D01*
X123582386Y-129831171D01*
X123827665Y-129872100D01*
X124076335Y-129872100D01*
X124321614Y-129831171D01*
X124556810Y-129750428D01*
X124775509Y-129632074D01*
X124971744Y-129479338D01*
X125130771Y-129306588D01*
X125190657Y-129270599D01*
X125260495Y-129272699D01*
X125313228Y-129306588D01*
X125472256Y-129479338D01*
X125668491Y-129632074D01*
X125887190Y-129750428D01*
X126122386Y-129831171D01*
X126367665Y-129872100D01*
X126616335Y-129872100D01*
X126861614Y-129831171D01*
X127096810Y-129750428D01*
X127315509Y-129632074D01*
X127511744Y-129479338D01*
X127670771Y-129306588D01*
X127730657Y-129270599D01*
X127800495Y-129272699D01*
X127853228Y-129306588D01*
X128012256Y-129479338D01*
X128208491Y-129632074D01*
X128427190Y-129750428D01*
X128662386Y-129831171D01*
X128907665Y-129872100D01*
X129156335Y-129872100D01*
X129401614Y-129831171D01*
X129636810Y-129750428D01*
X129855509Y-129632074D01*
X130051744Y-129479338D01*
X130210771Y-129306588D01*
X130270657Y-129270599D01*
X130340495Y-129272699D01*
X130393228Y-129306588D01*
X130552256Y-129479338D01*
X130748491Y-129632074D01*
X130967190Y-129750428D01*
X131202386Y-129831171D01*
X131447665Y-129872100D01*
X131696335Y-129872100D01*
X131941614Y-129831171D01*
X132176810Y-129750428D01*
X132395509Y-129632074D01*
X132591744Y-129479338D01*
X132750771Y-129306588D01*
X132810657Y-129270599D01*
X132880495Y-129272699D01*
X132933228Y-129306588D01*
X133092256Y-129479338D01*
X133288491Y-129632074D01*
X133507190Y-129750428D01*
X133742386Y-129831171D01*
X133987665Y-129872100D01*
X134236335Y-129872100D01*
X134481614Y-129831171D01*
X134716810Y-129750428D01*
X134935509Y-129632074D01*
X135131744Y-129479338D01*
X135290771Y-129306588D01*
X135350657Y-129270599D01*
X135420495Y-129272699D01*
X135473228Y-129306588D01*
X135632256Y-129479338D01*
X135828491Y-129632074D01*
X136047190Y-129750428D01*
X136282386Y-129831171D01*
X136527665Y-129872100D01*
X136776335Y-129872100D01*
X137021614Y-129831171D01*
X137256810Y-129750428D01*
X137475509Y-129632074D01*
X137671744Y-129479338D01*
X137830771Y-129306588D01*
X137890657Y-129270599D01*
X137960495Y-129272699D01*
X138013228Y-129306588D01*
X138172256Y-129479338D01*
X138368491Y-129632074D01*
X138587190Y-129750428D01*
X138822386Y-129831171D01*
X139067665Y-129872100D01*
X139316335Y-129872100D01*
X139561614Y-129831171D01*
X139796810Y-129750428D01*
X140015509Y-129632074D01*
X140211744Y-129479338D01*
X140370771Y-129306588D01*
X140430657Y-129270599D01*
X140500495Y-129272699D01*
X140553228Y-129306588D01*
X140712256Y-129479338D01*
X140908491Y-129632074D01*
X141127190Y-129750428D01*
X141362386Y-129831171D01*
X141607665Y-129872100D01*
X141856335Y-129872100D01*
X142101614Y-129831171D01*
X142336810Y-129750428D01*
X142555509Y-129632074D01*
X142751744Y-129479338D01*
X142910771Y-129306588D01*
X142970657Y-129270599D01*
X143040495Y-129272699D01*
X143093228Y-129306588D01*
X143252256Y-129479338D01*
X143448491Y-129632074D01*
X143667190Y-129750428D01*
X143902386Y-129831171D01*
X144147665Y-129872100D01*
X144396335Y-129872100D01*
X144641614Y-129831171D01*
X144876810Y-129750428D01*
X145095509Y-129632074D01*
X145291744Y-129479338D01*
X145450771Y-129306588D01*
X145510657Y-129270599D01*
X145580495Y-129272699D01*
X145633228Y-129306588D01*
X145792256Y-129479338D01*
X145988491Y-129632074D01*
X146207190Y-129750428D01*
X146442386Y-129831171D01*
X146687665Y-129872100D01*
X146936335Y-129872100D01*
X147181614Y-129831171D01*
X147416810Y-129750428D01*
X147635509Y-129632074D01*
X147831744Y-129479338D01*
X147990771Y-129306588D01*
X148050657Y-129270599D01*
X148120495Y-129272699D01*
X148173228Y-129306588D01*
X148332256Y-129479338D01*
X148528491Y-129632074D01*
X148747190Y-129750428D01*
X148982386Y-129831171D01*
X149227665Y-129872100D01*
X149476335Y-129872100D01*
X149721614Y-129831171D01*
X149956810Y-129750428D01*
X150175509Y-129632074D01*
X150371744Y-129479338D01*
X150530771Y-129306588D01*
X150590657Y-129270599D01*
X150660495Y-129272699D01*
X150713228Y-129306588D01*
X150872256Y-129479338D01*
X151068491Y-129632074D01*
X151287190Y-129750428D01*
X151522386Y-129831171D01*
X151767665Y-129872100D01*
X152016335Y-129872100D01*
X152261614Y-129831171D01*
X152496810Y-129750428D01*
X152715509Y-129632074D01*
X152911744Y-129479338D01*
X153070771Y-129306588D01*
X153130657Y-129270599D01*
X153200495Y-129272699D01*
X153253228Y-129306588D01*
X153412256Y-129479338D01*
X153608491Y-129632074D01*
X153827190Y-129750428D01*
X154062386Y-129831171D01*
X154307665Y-129872100D01*
X154556335Y-129872100D01*
X154801614Y-129831171D01*
X155036810Y-129750428D01*
X155255509Y-129632074D01*
X155451744Y-129479338D01*
X155620164Y-129296385D01*
X155718957Y-129145169D01*
X155772103Y-129099813D01*
X155841334Y-129090389D01*
X155904670Y-129119891D01*
X155924341Y-129141868D01*
X155972339Y-129210417D01*
X156133179Y-129371257D01*
X156319517Y-129501734D01*
X156525673Y-129597865D01*
X156525682Y-129597869D01*
X156721999Y-129650472D01*
X156722000Y-129650471D01*
X156722000Y-128804612D01*
X156779007Y-128837525D01*
X156906174Y-128871600D01*
X157037826Y-128871600D01*
X157164993Y-128837525D01*
X157222000Y-128804612D01*
X157222000Y-129650472D01*
X157418317Y-129597869D01*
X157418326Y-129597865D01*
X157624482Y-129501734D01*
X157810820Y-129371257D01*
X157971658Y-129210419D01*
X158019657Y-129141869D01*
X158074234Y-129098243D01*
X158143732Y-129091049D01*
X158206087Y-129122571D01*
X158225042Y-129145169D01*
X158323836Y-129296385D01*
X158492256Y-129479338D01*
X158688491Y-129632074D01*
X158907190Y-129750428D01*
X159142386Y-129831171D01*
X159387665Y-129872100D01*
X159636334Y-129872100D01*
X159636335Y-129872100D01*
X159717619Y-129858536D01*
X159786982Y-129866918D01*
X159840804Y-129911470D01*
X159861995Y-129978049D01*
X159843828Y-130045515D01*
X159825708Y-130068526D01*
X159305055Y-130589181D01*
X159243732Y-130622666D01*
X159217374Y-130625500D01*
X144685514Y-130625500D01*
X144498881Y-130655059D01*
X144319163Y-130713454D01*
X144150800Y-130799240D01*
X143997923Y-130910312D01*
X138276308Y-136631927D01*
X138260639Y-136653494D01*
X138253908Y-136662760D01*
X138209574Y-136723780D01*
X138165240Y-136784800D01*
X138086985Y-136938385D01*
X138039010Y-136989181D01*
X137971189Y-137005976D01*
X137905054Y-136983439D01*
X137861603Y-136928723D01*
X137852500Y-136882090D01*
X137852500Y-133001513D01*
X137822940Y-132814881D01*
X137780591Y-132684547D01*
X137764547Y-132635168D01*
X137764545Y-132635165D01*
X137764545Y-132635163D01*
X137750742Y-132608074D01*
X137750741Y-132608073D01*
X137745995Y-132598759D01*
X137689404Y-132487690D01*
X137678761Y-132466801D01*
X137662075Y-132443835D01*
X137567690Y-132313926D01*
X135910074Y-130656310D01*
X135757199Y-130545240D01*
X135588836Y-130459454D01*
X135409118Y-130401059D01*
X135222486Y-130371500D01*
X135222481Y-130371500D01*
X123484626Y-130371500D01*
X123417587Y-130351815D01*
X123396945Y-130335181D01*
X119854819Y-126793055D01*
X119821334Y-126731732D01*
X119818500Y-126705374D01*
X119818500Y-122367909D01*
X119838185Y-122300870D01*
X119890989Y-122255115D01*
X119960147Y-122245171D01*
X120023703Y-122274196D01*
G37*
%TD.AperFunction*%
%TA.AperFunction,Conductor*%
G36*
X128659703Y-110679933D02*
G01*
X128697477Y-110738711D01*
X128698706Y-110743206D01*
X128755251Y-110966498D01*
X128852611Y-111188458D01*
X128985174Y-111391362D01*
X128985177Y-111391365D01*
X129149331Y-111569684D01*
X129149334Y-111569686D01*
X129149337Y-111569689D01*
X129340588Y-111718546D01*
X129340595Y-111718550D01*
X129340597Y-111718552D01*
X129553757Y-111833908D01*
X129782997Y-111912607D01*
X129845954Y-111923112D01*
X129908839Y-111953562D01*
X129913226Y-111957740D01*
X131005560Y-113050073D01*
X131139177Y-113183690D01*
X131292051Y-113294760D01*
X131371597Y-113335290D01*
X131460413Y-113380545D01*
X131460415Y-113380545D01*
X131460418Y-113380547D01*
X131549526Y-113409500D01*
X131640131Y-113438940D01*
X131826764Y-113468500D01*
X131826769Y-113468500D01*
X133594551Y-113468500D01*
X133661590Y-113488185D01*
X133707345Y-113540989D01*
X133717289Y-113610147D01*
X133688264Y-113673703D01*
X133658980Y-113698448D01*
X133557853Y-113759944D01*
X133334950Y-113941289D01*
X133138812Y-114151299D01*
X132973098Y-114386064D01*
X132840894Y-114641206D01*
X132744667Y-114911962D01*
X132744666Y-114911965D01*
X132686201Y-115193319D01*
X132666592Y-115480000D01*
X132686201Y-115766680D01*
X132744666Y-116048034D01*
X132744667Y-116048037D01*
X132840894Y-116318793D01*
X132840893Y-116318793D01*
X132973098Y-116573935D01*
X133138812Y-116808700D01*
X133223923Y-116899831D01*
X133334947Y-117018708D01*
X133371825Y-117048710D01*
X133557853Y-117200055D01*
X133803382Y-117349365D01*
X133990237Y-117430526D01*
X134066942Y-117463844D01*
X134343642Y-117541371D01*
X134593920Y-117575771D01*
X134628321Y-117580500D01*
X134628322Y-117580500D01*
X134915679Y-117580500D01*
X134946370Y-117576281D01*
X135200358Y-117541371D01*
X135477058Y-117463844D01*
X135671549Y-117379365D01*
X135740617Y-117349365D01*
X135740620Y-117349363D01*
X135740625Y-117349361D01*
X135986147Y-117200055D01*
X136209053Y-117018708D01*
X136405189Y-116808698D01*
X136570901Y-116573936D01*
X136703104Y-116318797D01*
X136799334Y-116048032D01*
X136857798Y-115766686D01*
X136877408Y-115480000D01*
X136857798Y-115193314D01*
X136799334Y-114911968D01*
X136703105Y-114641206D01*
X136703106Y-114641206D01*
X136570901Y-114386064D01*
X136405187Y-114151299D01*
X136326554Y-114067105D01*
X136209053Y-113941292D01*
X135986147Y-113759945D01*
X135986146Y-113759944D01*
X135885020Y-113698448D01*
X135837968Y-113646796D01*
X135826311Y-113577906D01*
X135853749Y-113513649D01*
X135911571Y-113474427D01*
X135949449Y-113468500D01*
X149763830Y-113468500D01*
X149830869Y-113488185D01*
X149851511Y-113504819D01*
X160561181Y-124214489D01*
X160594666Y-124275812D01*
X160597500Y-124302170D01*
X160597500Y-126002375D01*
X160577815Y-126069414D01*
X160525011Y-126115169D01*
X160455853Y-126125113D01*
X160392297Y-126096088D01*
X160385819Y-126090056D01*
X160294073Y-125998310D01*
X155426076Y-121130312D01*
X155426075Y-121130311D01*
X155426074Y-121130310D01*
X155273199Y-121019240D01*
X155104836Y-120933454D01*
X154925118Y-120875059D01*
X154738486Y-120845500D01*
X154738481Y-120845500D01*
X154563296Y-120845500D01*
X154496257Y-120825815D01*
X154450502Y-120773011D01*
X154439805Y-120732722D01*
X154438086Y-120713807D01*
X154438086Y-120713804D01*
X154387478Y-120551394D01*
X154299472Y-120405815D01*
X154299470Y-120405813D01*
X154299469Y-120405811D01*
X154179188Y-120285530D01*
X154033606Y-120197522D01*
X153871196Y-120146914D01*
X153871194Y-120146913D01*
X153871192Y-120146913D01*
X153821778Y-120142423D01*
X153800616Y-120140500D01*
X149667384Y-120140500D01*
X149648145Y-120142248D01*
X149596807Y-120146913D01*
X149434393Y-120197522D01*
X149288811Y-120285530D01*
X149168530Y-120405811D01*
X149080522Y-120551393D01*
X149029913Y-120713807D01*
X149023500Y-120784386D01*
X149023500Y-123307613D01*
X149029913Y-123378192D01*
X149029913Y-123378194D01*
X149029914Y-123378196D01*
X149080522Y-123540606D01*
X149106614Y-123583768D01*
X149168530Y-123686188D01*
X149288811Y-123806469D01*
X149288813Y-123806470D01*
X149288815Y-123806472D01*
X149434394Y-123894478D01*
X149596804Y-123945086D01*
X149667384Y-123951500D01*
X149667387Y-123951500D01*
X153800613Y-123951500D01*
X153800616Y-123951500D01*
X153871196Y-123945086D01*
X154033606Y-123894478D01*
X154179185Y-123806472D01*
X154299472Y-123686185D01*
X154325704Y-123642792D01*
X154377230Y-123595607D01*
X154446089Y-123583768D01*
X154510418Y-123611036D01*
X154519500Y-123619263D01*
X158261806Y-127361569D01*
X158295291Y-127422892D01*
X158290307Y-127492584D01*
X158277934Y-127517071D01*
X158225042Y-127598029D01*
X158171896Y-127643386D01*
X158102665Y-127652810D01*
X158039329Y-127623308D01*
X158019658Y-127601331D01*
X157971659Y-127532781D01*
X157810820Y-127371942D01*
X157624482Y-127241465D01*
X157418328Y-127145334D01*
X157222000Y-127092727D01*
X157222000Y-127938588D01*
X157164993Y-127905675D01*
X157037826Y-127871600D01*
X156906174Y-127871600D01*
X156779007Y-127905675D01*
X156722000Y-127938588D01*
X156722000Y-127092727D01*
X156525671Y-127145334D01*
X156319517Y-127241465D01*
X156133179Y-127371942D01*
X155972342Y-127532779D01*
X155924341Y-127601332D01*
X155869763Y-127644957D01*
X155800265Y-127652149D01*
X155737910Y-127620627D01*
X155718957Y-127598029D01*
X155620166Y-127446817D01*
X155591947Y-127416163D01*
X155451744Y-127263862D01*
X155255509Y-127111126D01*
X155255507Y-127111125D01*
X155255506Y-127111124D01*
X155036811Y-126992772D01*
X155036802Y-126992769D01*
X154801616Y-126912029D01*
X154556335Y-126871100D01*
X154307665Y-126871100D01*
X154062383Y-126912029D01*
X153827197Y-126992769D01*
X153827188Y-126992772D01*
X153608493Y-127111124D01*
X153412257Y-127263861D01*
X153253230Y-127436610D01*
X153193342Y-127472601D01*
X153123504Y-127470500D01*
X153070770Y-127436610D01*
X153016270Y-127377408D01*
X152911744Y-127263862D01*
X152715509Y-127111126D01*
X152715507Y-127111125D01*
X152715506Y-127111124D01*
X152496811Y-126992772D01*
X152496802Y-126992769D01*
X152261616Y-126912029D01*
X152016335Y-126871100D01*
X151767665Y-126871100D01*
X151522383Y-126912029D01*
X151287197Y-126992769D01*
X151287188Y-126992772D01*
X151068493Y-127111124D01*
X150872257Y-127263861D01*
X150713230Y-127436610D01*
X150653342Y-127472601D01*
X150583504Y-127470500D01*
X150530770Y-127436610D01*
X150476270Y-127377408D01*
X150371744Y-127263862D01*
X150175509Y-127111126D01*
X150175507Y-127111125D01*
X150175506Y-127111124D01*
X149956811Y-126992772D01*
X149956802Y-126992769D01*
X149721616Y-126912029D01*
X149476335Y-126871100D01*
X149227665Y-126871100D01*
X148982383Y-126912029D01*
X148747197Y-126992769D01*
X148747188Y-126992772D01*
X148528493Y-127111124D01*
X148332257Y-127263861D01*
X148173230Y-127436610D01*
X148113342Y-127472601D01*
X148043504Y-127470500D01*
X147990770Y-127436610D01*
X147936270Y-127377408D01*
X147831744Y-127263862D01*
X147635509Y-127111126D01*
X147635507Y-127111125D01*
X147635506Y-127111124D01*
X147416811Y-126992772D01*
X147416802Y-126992769D01*
X147181616Y-126912029D01*
X146936335Y-126871100D01*
X146687665Y-126871100D01*
X146442383Y-126912029D01*
X146207197Y-126992769D01*
X146207188Y-126992772D01*
X145988493Y-127111124D01*
X145792257Y-127263861D01*
X145633230Y-127436610D01*
X145573342Y-127472601D01*
X145503504Y-127470500D01*
X145450770Y-127436610D01*
X145396270Y-127377408D01*
X145291744Y-127263862D01*
X145095509Y-127111126D01*
X145095507Y-127111125D01*
X145095506Y-127111124D01*
X144876811Y-126992772D01*
X144876802Y-126992769D01*
X144641616Y-126912029D01*
X144396335Y-126871100D01*
X144147665Y-126871100D01*
X143902383Y-126912029D01*
X143667197Y-126992769D01*
X143667188Y-126992772D01*
X143448493Y-127111124D01*
X143252257Y-127263861D01*
X143093230Y-127436610D01*
X143033342Y-127472601D01*
X142963504Y-127470500D01*
X142910770Y-127436610D01*
X142856270Y-127377408D01*
X142751744Y-127263862D01*
X142555509Y-127111126D01*
X142555507Y-127111125D01*
X142555506Y-127111124D01*
X142336811Y-126992772D01*
X142336802Y-126992769D01*
X142101616Y-126912029D01*
X141856335Y-126871100D01*
X141607665Y-126871100D01*
X141362383Y-126912029D01*
X141127197Y-126992769D01*
X141127188Y-126992772D01*
X140908493Y-127111124D01*
X140712257Y-127263861D01*
X140553230Y-127436610D01*
X140493342Y-127472601D01*
X140423504Y-127470500D01*
X140370770Y-127436610D01*
X140316270Y-127377408D01*
X140211744Y-127263862D01*
X140015509Y-127111126D01*
X140015507Y-127111125D01*
X140015506Y-127111124D01*
X139796811Y-126992772D01*
X139796802Y-126992769D01*
X139561616Y-126912029D01*
X139316335Y-126871100D01*
X139067665Y-126871100D01*
X138822383Y-126912029D01*
X138587197Y-126992769D01*
X138587188Y-126992772D01*
X138368493Y-127111124D01*
X138172257Y-127263861D01*
X138013230Y-127436610D01*
X137953342Y-127472601D01*
X137883504Y-127470500D01*
X137830770Y-127436610D01*
X137776270Y-127377408D01*
X137671744Y-127263862D01*
X137475509Y-127111126D01*
X137475507Y-127111125D01*
X137475506Y-127111124D01*
X137256811Y-126992772D01*
X137256802Y-126992769D01*
X137021616Y-126912029D01*
X136776335Y-126871100D01*
X136527665Y-126871100D01*
X136282383Y-126912029D01*
X136047197Y-126992769D01*
X136047188Y-126992772D01*
X135828493Y-127111124D01*
X135632257Y-127263861D01*
X135632256Y-127263862D01*
X135532762Y-127371942D01*
X135527730Y-127377408D01*
X135467843Y-127413398D01*
X135398005Y-127411298D01*
X135340388Y-127371774D01*
X135313287Y-127307375D01*
X135312500Y-127293425D01*
X135312500Y-125127513D01*
X135282940Y-124940881D01*
X135224545Y-124761163D01*
X135138759Y-124592800D01*
X135027690Y-124439927D01*
X134894073Y-124306310D01*
X132383763Y-121796000D01*
X136362201Y-121796000D01*
X137832309Y-121796000D01*
X137784934Y-121843375D01*
X137741489Y-121918625D01*
X137719000Y-122002555D01*
X137719000Y-122089445D01*
X137741489Y-122173375D01*
X137784934Y-122248625D01*
X137832309Y-122296000D01*
X136362201Y-122296000D01*
X136373172Y-122379339D01*
X136431020Y-122595230D01*
X136516546Y-122801711D01*
X136516554Y-122801727D01*
X136628298Y-122995272D01*
X136628309Y-122995288D01*
X136764361Y-123172595D01*
X136764367Y-123172602D01*
X136922397Y-123330632D01*
X136922404Y-123330638D01*
X137099711Y-123466690D01*
X137099727Y-123466701D01*
X137293272Y-123578445D01*
X137293288Y-123578453D01*
X137499769Y-123663979D01*
X137715660Y-123721827D01*
X137937238Y-123750998D01*
X137937255Y-123751000D01*
X138604000Y-123751000D01*
X138604000Y-122376000D01*
X139104000Y-122376000D01*
X139104000Y-123751000D01*
X139770745Y-123751000D01*
X139770761Y-123750998D01*
X139992339Y-123721827D01*
X140208230Y-123663979D01*
X140414711Y-123578453D01*
X140414727Y-123578445D01*
X140608272Y-123466701D01*
X140608288Y-123466690D01*
X140785595Y-123330638D01*
X140785602Y-123330632D01*
X140943632Y-123172602D01*
X140943638Y-123172595D01*
X141079690Y-122995288D01*
X141079701Y-122995272D01*
X141191445Y-122801727D01*
X141191453Y-122801711D01*
X141276979Y-122595230D01*
X141334827Y-122379339D01*
X141345799Y-122296000D01*
X139875691Y-122296000D01*
X139923066Y-122248625D01*
X139966511Y-122173375D01*
X139989000Y-122089445D01*
X139989000Y-122002555D01*
X139966511Y-121918625D01*
X139923066Y-121843375D01*
X139875691Y-121796000D01*
X141345798Y-121796000D01*
X141334827Y-121712660D01*
X141276979Y-121496769D01*
X141191453Y-121290288D01*
X141191445Y-121290272D01*
X141079701Y-121096727D01*
X141079690Y-121096711D01*
X140943638Y-120919404D01*
X140943632Y-120919397D01*
X140785602Y-120761367D01*
X140785595Y-120761361D01*
X140608288Y-120625309D01*
X140608272Y-120625298D01*
X140414727Y-120513554D01*
X140414711Y-120513546D01*
X140208230Y-120428020D01*
X139992339Y-120370172D01*
X139770761Y-120341001D01*
X139770745Y-120341000D01*
X139104000Y-120341000D01*
X139104000Y-121716000D01*
X138604000Y-121716000D01*
X138604000Y-120341000D01*
X137937255Y-120341000D01*
X137937238Y-120341001D01*
X137715660Y-120370172D01*
X137499769Y-120428020D01*
X137293288Y-120513546D01*
X137293272Y-120513554D01*
X137099727Y-120625298D01*
X137099711Y-120625309D01*
X136922404Y-120761361D01*
X136922397Y-120761367D01*
X136764367Y-120919397D01*
X136764361Y-120919404D01*
X136628309Y-121096711D01*
X136628298Y-121096727D01*
X136516554Y-121290272D01*
X136516546Y-121290288D01*
X136431020Y-121496769D01*
X136373172Y-121712660D01*
X136362201Y-121796000D01*
X132383763Y-121796000D01*
X131718073Y-121130310D01*
X128490819Y-117903055D01*
X128457334Y-117841732D01*
X128454500Y-117815374D01*
X128454500Y-110773646D01*
X128474185Y-110706607D01*
X128526989Y-110660852D01*
X128596147Y-110650908D01*
X128659703Y-110679933D01*
G37*
%TD.AperFunction*%
%TA.AperFunction,Conductor*%
G36*
X154326765Y-47520185D02*
G01*
X154372520Y-47572989D01*
X154382464Y-47642147D01*
X154353439Y-47705703D01*
X154335942Y-47721282D01*
X154336413Y-47721873D01*
X154332788Y-47724763D01*
X154145952Y-47898121D01*
X154145950Y-47898123D01*
X153987041Y-48097388D01*
X153859608Y-48318109D01*
X153766492Y-48555362D01*
X153766490Y-48555369D01*
X153709777Y-48803845D01*
X153690732Y-49057995D01*
X153690732Y-49058004D01*
X153709777Y-49312154D01*
X153729208Y-49397288D01*
X153766492Y-49560637D01*
X153859607Y-49797888D01*
X153987041Y-50018612D01*
X154145950Y-50217877D01*
X154332783Y-50391232D01*
X154543366Y-50534805D01*
X154543371Y-50534807D01*
X154543372Y-50534808D01*
X154543373Y-50534809D01*
X154665328Y-50593538D01*
X154772992Y-50645387D01*
X154772993Y-50645387D01*
X154772996Y-50645389D01*
X155016542Y-50720513D01*
X155268565Y-50758500D01*
X155523435Y-50758500D01*
X155775458Y-50720513D01*
X156019004Y-50645389D01*
X156248634Y-50534805D01*
X156459217Y-50391232D01*
X156646050Y-50217877D01*
X156804959Y-50018612D01*
X156932393Y-49797888D01*
X157025508Y-49560637D01*
X157082222Y-49312157D01*
X157101268Y-49058000D01*
X157082222Y-48803843D01*
X157025508Y-48555363D01*
X156932393Y-48318112D01*
X156804959Y-48097388D01*
X156646050Y-47898123D01*
X156459217Y-47724768D01*
X156459214Y-47724766D01*
X156459211Y-47724763D01*
X156455587Y-47721873D01*
X156456905Y-47720219D01*
X156418129Y-47672945D01*
X156410058Y-47603543D01*
X156440789Y-47540795D01*
X156500567Y-47504622D01*
X156532274Y-47500500D01*
X166551483Y-47500500D01*
X166618522Y-47520185D01*
X166664277Y-47572989D01*
X166674221Y-47642147D01*
X166645196Y-47705703D01*
X166613483Y-47731885D01*
X166610976Y-47733333D01*
X166609707Y-47734066D01*
X166417263Y-47881733D01*
X166417256Y-47881739D01*
X166245739Y-48053256D01*
X166245733Y-48053263D01*
X166098067Y-48245706D01*
X165976777Y-48455785D01*
X165976773Y-48455794D01*
X165883947Y-48679895D01*
X165821161Y-48914214D01*
X165789500Y-49154711D01*
X165789500Y-49397288D01*
X165821161Y-49637785D01*
X165883947Y-49872104D01*
X165944633Y-50018612D01*
X165976776Y-50096212D01*
X166098064Y-50306289D01*
X166098066Y-50306292D01*
X166098067Y-50306293D01*
X166245733Y-50498736D01*
X166245739Y-50498743D01*
X166417256Y-50670260D01*
X166417263Y-50670266D01*
X166530321Y-50757018D01*
X166609711Y-50817936D01*
X166819788Y-50939224D01*
X167043900Y-51032054D01*
X167278211Y-51094838D01*
X167458586Y-51118584D01*
X167518711Y-51126500D01*
X167518712Y-51126500D01*
X167761289Y-51126500D01*
X167809388Y-51120167D01*
X168001789Y-51094838D01*
X168236100Y-51032054D01*
X168460212Y-50939224D01*
X168670289Y-50817936D01*
X168862738Y-50670265D01*
X169034265Y-50498738D01*
X169181936Y-50306289D01*
X169268114Y-50157023D01*
X169318680Y-50108809D01*
X169387287Y-50095586D01*
X169452152Y-50121554D01*
X169492680Y-50178469D01*
X169499500Y-50219025D01*
X169499500Y-76824374D01*
X169479815Y-76891413D01*
X169427011Y-76937168D01*
X169357853Y-76947112D01*
X169294297Y-76918087D01*
X169287819Y-76912055D01*
X153436076Y-61060312D01*
X153436074Y-61060310D01*
X153283199Y-60949240D01*
X153277054Y-60946109D01*
X153114836Y-60863454D01*
X152935118Y-60805059D01*
X152748486Y-60775500D01*
X152748481Y-60775500D01*
X150352935Y-60775500D01*
X150285896Y-60755815D01*
X150268594Y-60742399D01*
X150250260Y-60725388D01*
X150161217Y-60642768D01*
X149950634Y-60499195D01*
X149950630Y-60499193D01*
X149950627Y-60499191D01*
X149950626Y-60499190D01*
X149721006Y-60388612D01*
X149721008Y-60388612D01*
X149477466Y-60313489D01*
X149477462Y-60313488D01*
X149477458Y-60313487D01*
X149356231Y-60295214D01*
X149225440Y-60275500D01*
X149225435Y-60275500D01*
X148970565Y-60275500D01*
X148970559Y-60275500D01*
X148813609Y-60299157D01*
X148718542Y-60313487D01*
X148718539Y-60313488D01*
X148718533Y-60313489D01*
X148474992Y-60388612D01*
X148245373Y-60499190D01*
X148245372Y-60499191D01*
X148034782Y-60642768D01*
X147847952Y-60816121D01*
X147847950Y-60816123D01*
X147689041Y-61015388D01*
X147561608Y-61236109D01*
X147468492Y-61473362D01*
X147468490Y-61473369D01*
X147411777Y-61721845D01*
X147392732Y-61975995D01*
X147392732Y-61976004D01*
X147411777Y-62230154D01*
X147456452Y-62425890D01*
X147468492Y-62478637D01*
X147561607Y-62715888D01*
X147689041Y-62936612D01*
X147847950Y-63135877D01*
X148034783Y-63309232D01*
X148245366Y-63452805D01*
X148245371Y-63452807D01*
X148245372Y-63452808D01*
X148245373Y-63452809D01*
X148367328Y-63511538D01*
X148474992Y-63563387D01*
X148474993Y-63563387D01*
X148474996Y-63563389D01*
X148718542Y-63638513D01*
X148970565Y-63676500D01*
X149225435Y-63676500D01*
X149477458Y-63638513D01*
X149721004Y-63563389D01*
X149950634Y-63452805D01*
X150161217Y-63309232D01*
X150268594Y-63209600D01*
X150331126Y-63178433D01*
X150352935Y-63176500D01*
X152105374Y-63176500D01*
X152172413Y-63196185D01*
X152193055Y-63212819D01*
X167673181Y-78692944D01*
X167706666Y-78754267D01*
X167709500Y-78780625D01*
X167709500Y-80114374D01*
X167689815Y-80181413D01*
X167637011Y-80227168D01*
X167567853Y-80237112D01*
X167504297Y-80208087D01*
X167497819Y-80202055D01*
X159218409Y-71922645D01*
X159184924Y-71861322D01*
X159182438Y-71844238D01*
X159166222Y-71627843D01*
X159109508Y-71379363D01*
X159016393Y-71142112D01*
X158888959Y-70921388D01*
X158730050Y-70722123D01*
X158543217Y-70548768D01*
X158332634Y-70405195D01*
X158332630Y-70405193D01*
X158332627Y-70405191D01*
X158332626Y-70405190D01*
X158103006Y-70294612D01*
X158103008Y-70294612D01*
X157859466Y-70219489D01*
X157859462Y-70219488D01*
X157859458Y-70219487D01*
X157738231Y-70201214D01*
X157607440Y-70181500D01*
X157607435Y-70181500D01*
X157352565Y-70181500D01*
X157352559Y-70181500D01*
X157195609Y-70205157D01*
X157100542Y-70219487D01*
X157100539Y-70219488D01*
X157100533Y-70219489D01*
X156856992Y-70294612D01*
X156627373Y-70405190D01*
X156627372Y-70405191D01*
X156416782Y-70548768D01*
X156229952Y-70722121D01*
X156229950Y-70722123D01*
X156071041Y-70921388D01*
X155943608Y-71142109D01*
X155850492Y-71379362D01*
X155850490Y-71379369D01*
X155793777Y-71627845D01*
X155774732Y-71881995D01*
X155774732Y-71882004D01*
X155793777Y-72136154D01*
X155847314Y-72370717D01*
X155850492Y-72384637D01*
X155943607Y-72621888D01*
X156071041Y-72842612D01*
X156229950Y-73041877D01*
X156416783Y-73215232D01*
X156627366Y-73358805D01*
X156627371Y-73358807D01*
X156627372Y-73358808D01*
X156627373Y-73358809D01*
X156749328Y-73417538D01*
X156856992Y-73469387D01*
X156856993Y-73469387D01*
X156856996Y-73469389D01*
X157100542Y-73544513D01*
X157352565Y-73582500D01*
X157431374Y-73582500D01*
X157498413Y-73602185D01*
X157519055Y-73618819D01*
X165895181Y-81994945D01*
X165928666Y-82056268D01*
X165931500Y-82082626D01*
X165931500Y-88242374D01*
X165911815Y-88309413D01*
X165859011Y-88355168D01*
X165789853Y-88365112D01*
X165726297Y-88336087D01*
X165719819Y-88330055D01*
X158262076Y-80872312D01*
X158262074Y-80872310D01*
X158109199Y-80761240D01*
X157940836Y-80675454D01*
X157761118Y-80617059D01*
X157574486Y-80587500D01*
X157574481Y-80587500D01*
X150352935Y-80587500D01*
X150285896Y-80567815D01*
X150268594Y-80554399D01*
X150217793Y-80507263D01*
X150161217Y-80454768D01*
X149950634Y-80311195D01*
X149950630Y-80311193D01*
X149950627Y-80311191D01*
X149950626Y-80311190D01*
X149721006Y-80200612D01*
X149721008Y-80200612D01*
X149477466Y-80125489D01*
X149477462Y-80125488D01*
X149477458Y-80125487D01*
X149356231Y-80107214D01*
X149225440Y-80087500D01*
X149225435Y-80087500D01*
X148970565Y-80087500D01*
X148970559Y-80087500D01*
X148813609Y-80111157D01*
X148718542Y-80125487D01*
X148718539Y-80125488D01*
X148718533Y-80125489D01*
X148474992Y-80200612D01*
X148245373Y-80311190D01*
X148245372Y-80311191D01*
X148034782Y-80454768D01*
X147847952Y-80628121D01*
X147847950Y-80628123D01*
X147689041Y-80827388D01*
X147561608Y-81048109D01*
X147468492Y-81285362D01*
X147468490Y-81285369D01*
X147411777Y-81533845D01*
X147392732Y-81787995D01*
X147392732Y-81788004D01*
X147411777Y-82042154D01*
X147462257Y-82263322D01*
X147468492Y-82290637D01*
X147561607Y-82527888D01*
X147689041Y-82748612D01*
X147847950Y-82947877D01*
X148034783Y-83121232D01*
X148245366Y-83264805D01*
X148245371Y-83264807D01*
X148245372Y-83264808D01*
X148245373Y-83264809D01*
X148336469Y-83308678D01*
X148474992Y-83375387D01*
X148474993Y-83375387D01*
X148474996Y-83375389D01*
X148718542Y-83450513D01*
X148970565Y-83488500D01*
X149225435Y-83488500D01*
X149477458Y-83450513D01*
X149721004Y-83375389D01*
X149950634Y-83264805D01*
X150161217Y-83121232D01*
X150268594Y-83021600D01*
X150331126Y-82990433D01*
X150352935Y-82988500D01*
X156931374Y-82988500D01*
X156998413Y-83008185D01*
X157019055Y-83024819D01*
X164117181Y-90122944D01*
X164150666Y-90184267D01*
X164153500Y-90210625D01*
X164153500Y-108562374D01*
X164133815Y-108629413D01*
X164081011Y-108675168D01*
X164011853Y-108685112D01*
X163948297Y-108656087D01*
X163941819Y-108650055D01*
X151557762Y-96265998D01*
X154608773Y-96265998D01*
X154608773Y-96266001D01*
X154627657Y-96530027D01*
X154627658Y-96530034D01*
X154683921Y-96788673D01*
X154776426Y-97036690D01*
X154776428Y-97036694D01*
X154903280Y-97269005D01*
X154903285Y-97269013D01*
X155061906Y-97480907D01*
X155061922Y-97480925D01*
X155249074Y-97668077D01*
X155249092Y-97668093D01*
X155460986Y-97826714D01*
X155460994Y-97826719D01*
X155693305Y-97953571D01*
X155693309Y-97953573D01*
X155693311Y-97953574D01*
X155941322Y-98046077D01*
X155941325Y-98046077D01*
X155941326Y-98046078D01*
X156136552Y-98088546D01*
X156199974Y-98102343D01*
X156443660Y-98119772D01*
X156463999Y-98121227D01*
X156464000Y-98121227D01*
X156464001Y-98121227D01*
X156482885Y-98119876D01*
X156728026Y-98102343D01*
X156986678Y-98046077D01*
X157234689Y-97953574D01*
X157467011Y-97826716D01*
X157678915Y-97668087D01*
X157866087Y-97480915D01*
X158024716Y-97269011D01*
X158151574Y-97036689D01*
X158244077Y-96788678D01*
X158300343Y-96530026D01*
X158319227Y-96266000D01*
X158300343Y-96001974D01*
X158244077Y-95743322D01*
X158151574Y-95495311D01*
X158050386Y-95310000D01*
X158786592Y-95310000D01*
X158806201Y-95596680D01*
X158864666Y-95878034D01*
X158864667Y-95878037D01*
X158960894Y-96148793D01*
X158960893Y-96148793D01*
X159093098Y-96403935D01*
X159258812Y-96638700D01*
X159343923Y-96729831D01*
X159454947Y-96848708D01*
X159677853Y-97030055D01*
X159923382Y-97179365D01*
X160110237Y-97260526D01*
X160186942Y-97293844D01*
X160463642Y-97371371D01*
X160713920Y-97405771D01*
X160748321Y-97410500D01*
X160748322Y-97410500D01*
X161035679Y-97410500D01*
X161066370Y-97406281D01*
X161320358Y-97371371D01*
X161597058Y-97293844D01*
X161710015Y-97244779D01*
X161860617Y-97179365D01*
X161860620Y-97179363D01*
X161860625Y-97179361D01*
X162106147Y-97030055D01*
X162329053Y-96848708D01*
X162525189Y-96638698D01*
X162690901Y-96403936D01*
X162823104Y-96148797D01*
X162919334Y-95878032D01*
X162977798Y-95596686D01*
X162997408Y-95310000D01*
X162977798Y-95023314D01*
X162919334Y-94741968D01*
X162906296Y-94705284D01*
X162823105Y-94471206D01*
X162823106Y-94471206D01*
X162690901Y-94216064D01*
X162525187Y-93981299D01*
X162446554Y-93897105D01*
X162329053Y-93771292D01*
X162117640Y-93599295D01*
X162106146Y-93589944D01*
X161860617Y-93440634D01*
X161597063Y-93326158D01*
X161597061Y-93326157D01*
X161597058Y-93326156D01*
X161467578Y-93289877D01*
X161320364Y-93248630D01*
X161320359Y-93248629D01*
X161320358Y-93248629D01*
X161178018Y-93229064D01*
X161035679Y-93209500D01*
X161035678Y-93209500D01*
X160748322Y-93209500D01*
X160748321Y-93209500D01*
X160463642Y-93248629D01*
X160463635Y-93248630D01*
X160255861Y-93306845D01*
X160186942Y-93326156D01*
X160186939Y-93326156D01*
X160186936Y-93326158D01*
X160186935Y-93326158D01*
X159923382Y-93440634D01*
X159677853Y-93589944D01*
X159454950Y-93771289D01*
X159454947Y-93771291D01*
X159454947Y-93771292D01*
X159446215Y-93780642D01*
X159258812Y-93981299D01*
X159093098Y-94216064D01*
X158960894Y-94471206D01*
X158864667Y-94741962D01*
X158864666Y-94741965D01*
X158806201Y-95023319D01*
X158786592Y-95310000D01*
X158050386Y-95310000D01*
X158024716Y-95262989D01*
X157915668Y-95117317D01*
X157866093Y-95051092D01*
X157866077Y-95051074D01*
X157678925Y-94863922D01*
X157678907Y-94863906D01*
X157467013Y-94705285D01*
X157467005Y-94705280D01*
X157234694Y-94578428D01*
X157234690Y-94578426D01*
X156986673Y-94485921D01*
X156728034Y-94429658D01*
X156728027Y-94429657D01*
X156464001Y-94410773D01*
X156463999Y-94410773D01*
X156199972Y-94429657D01*
X156199965Y-94429658D01*
X155941326Y-94485921D01*
X155693309Y-94578426D01*
X155693305Y-94578428D01*
X155460994Y-94705280D01*
X155460986Y-94705285D01*
X155249092Y-94863906D01*
X155249074Y-94863922D01*
X155061922Y-95051074D01*
X155061906Y-95051092D01*
X154903285Y-95262986D01*
X154903280Y-95262994D01*
X154776428Y-95495305D01*
X154776426Y-95495309D01*
X154683921Y-95743326D01*
X154627658Y-96001965D01*
X154627657Y-96001972D01*
X154608773Y-96265998D01*
X151557762Y-96265998D01*
X146270819Y-90979055D01*
X146237334Y-90917732D01*
X146234500Y-90891374D01*
X146234500Y-86287994D01*
X147592859Y-86287994D01*
X147592859Y-86288005D01*
X147613385Y-86535729D01*
X147613387Y-86535738D01*
X147674412Y-86776717D01*
X147774266Y-87004364D01*
X147874564Y-87157882D01*
X148574212Y-86458234D01*
X148585482Y-86500292D01*
X148657890Y-86625708D01*
X148760292Y-86728110D01*
X148885708Y-86800518D01*
X148927765Y-86811787D01*
X148227942Y-87511609D01*
X148274768Y-87548055D01*
X148274770Y-87548056D01*
X148493385Y-87666364D01*
X148493396Y-87666369D01*
X148728506Y-87747083D01*
X148973707Y-87788000D01*
X149222293Y-87788000D01*
X149467493Y-87747083D01*
X149702603Y-87666369D01*
X149702614Y-87666364D01*
X149921228Y-87548057D01*
X149921231Y-87548055D01*
X149968056Y-87511609D01*
X149268234Y-86811787D01*
X149310292Y-86800518D01*
X149435708Y-86728110D01*
X149538110Y-86625708D01*
X149610518Y-86500292D01*
X149621787Y-86458235D01*
X150321434Y-87157882D01*
X150421731Y-87004369D01*
X150521587Y-86776717D01*
X150582612Y-86535738D01*
X150582614Y-86535729D01*
X150603141Y-86288005D01*
X150603141Y-86287994D01*
X150582614Y-86040270D01*
X150582612Y-86040261D01*
X150521587Y-85799282D01*
X150421731Y-85571630D01*
X150321434Y-85418116D01*
X149621787Y-86117764D01*
X149610518Y-86075708D01*
X149538110Y-85950292D01*
X149435708Y-85847890D01*
X149310292Y-85775482D01*
X149268235Y-85764212D01*
X149968057Y-85064390D01*
X149968056Y-85064389D01*
X149921229Y-85027943D01*
X149702614Y-84909635D01*
X149702603Y-84909630D01*
X149467493Y-84828916D01*
X149222293Y-84788000D01*
X148973707Y-84788000D01*
X148728506Y-84828916D01*
X148493396Y-84909630D01*
X148493390Y-84909632D01*
X148274761Y-85027949D01*
X148227942Y-85064388D01*
X148227942Y-85064390D01*
X148927765Y-85764212D01*
X148885708Y-85775482D01*
X148760292Y-85847890D01*
X148657890Y-85950292D01*
X148585482Y-86075708D01*
X148574212Y-86117764D01*
X147874564Y-85418116D01*
X147774267Y-85571632D01*
X147674412Y-85799282D01*
X147613387Y-86040261D01*
X147613385Y-86040270D01*
X147592859Y-86287994D01*
X146234500Y-86287994D01*
X146234500Y-79915513D01*
X146204940Y-79728881D01*
X146146545Y-79549163D01*
X146060759Y-79380800D01*
X145949690Y-79227927D01*
X145816073Y-79094310D01*
X143103758Y-76381994D01*
X149474859Y-76381994D01*
X149474859Y-76382005D01*
X149495385Y-76629729D01*
X149495387Y-76629738D01*
X149556412Y-76870717D01*
X149656266Y-77098364D01*
X149756564Y-77251882D01*
X150456212Y-76552234D01*
X150467482Y-76594292D01*
X150539890Y-76719708D01*
X150642292Y-76822110D01*
X150767708Y-76894518D01*
X150809765Y-76905787D01*
X150109942Y-77605609D01*
X150156768Y-77642055D01*
X150156770Y-77642056D01*
X150375385Y-77760364D01*
X150375396Y-77760369D01*
X150610506Y-77841083D01*
X150855707Y-77882000D01*
X151104293Y-77882000D01*
X151349493Y-77841083D01*
X151584603Y-77760369D01*
X151584614Y-77760364D01*
X151803228Y-77642057D01*
X151803231Y-77642055D01*
X151850056Y-77605609D01*
X151150234Y-76905787D01*
X151192292Y-76894518D01*
X151317708Y-76822110D01*
X151420110Y-76719708D01*
X151492518Y-76594292D01*
X151503787Y-76552235D01*
X152203434Y-77251882D01*
X152303731Y-77098369D01*
X152403587Y-76870717D01*
X152464612Y-76629738D01*
X152464614Y-76629729D01*
X152485141Y-76382005D01*
X152485141Y-76381994D01*
X155974859Y-76381994D01*
X155974859Y-76382005D01*
X155995385Y-76629729D01*
X155995387Y-76629738D01*
X156056412Y-76870717D01*
X156156266Y-77098364D01*
X156256564Y-77251882D01*
X156956212Y-76552234D01*
X156967482Y-76594292D01*
X157039890Y-76719708D01*
X157142292Y-76822110D01*
X157267708Y-76894518D01*
X157309765Y-76905787D01*
X156609942Y-77605609D01*
X156656768Y-77642055D01*
X156656770Y-77642056D01*
X156875385Y-77760364D01*
X156875396Y-77760369D01*
X157110506Y-77841083D01*
X157355707Y-77882000D01*
X157604293Y-77882000D01*
X157849493Y-77841083D01*
X158084603Y-77760369D01*
X158084614Y-77760364D01*
X158303228Y-77642057D01*
X158303231Y-77642055D01*
X158350056Y-77605609D01*
X157650234Y-76905787D01*
X157692292Y-76894518D01*
X157817708Y-76822110D01*
X157920110Y-76719708D01*
X157992518Y-76594292D01*
X158003787Y-76552235D01*
X158703434Y-77251882D01*
X158803731Y-77098369D01*
X158903587Y-76870717D01*
X158964612Y-76629738D01*
X158964614Y-76629729D01*
X158985141Y-76382005D01*
X158985141Y-76381994D01*
X158964614Y-76134270D01*
X158964612Y-76134261D01*
X158903587Y-75893282D01*
X158803731Y-75665630D01*
X158703434Y-75512116D01*
X158003787Y-76211764D01*
X157992518Y-76169708D01*
X157920110Y-76044292D01*
X157817708Y-75941890D01*
X157692292Y-75869482D01*
X157650235Y-75858212D01*
X158350057Y-75158390D01*
X158350056Y-75158389D01*
X158303229Y-75121943D01*
X158084614Y-75003635D01*
X158084603Y-75003630D01*
X157849493Y-74922916D01*
X157604293Y-74882000D01*
X157355707Y-74882000D01*
X157110506Y-74922916D01*
X156875396Y-75003630D01*
X156875390Y-75003632D01*
X156656761Y-75121949D01*
X156609942Y-75158388D01*
X156609942Y-75158390D01*
X157309765Y-75858212D01*
X157267708Y-75869482D01*
X157142292Y-75941890D01*
X157039890Y-76044292D01*
X156967482Y-76169708D01*
X156956212Y-76211764D01*
X156256564Y-75512116D01*
X156156267Y-75665632D01*
X156056412Y-75893282D01*
X155995387Y-76134261D01*
X155995385Y-76134270D01*
X155974859Y-76381994D01*
X152485141Y-76381994D01*
X152464614Y-76134270D01*
X152464612Y-76134261D01*
X152403587Y-75893282D01*
X152303731Y-75665630D01*
X152203434Y-75512116D01*
X151503787Y-76211764D01*
X151492518Y-76169708D01*
X151420110Y-76044292D01*
X151317708Y-75941890D01*
X151192292Y-75869482D01*
X151150235Y-75858212D01*
X151850057Y-75158390D01*
X151850056Y-75158389D01*
X151803229Y-75121943D01*
X151584614Y-75003635D01*
X151584603Y-75003630D01*
X151349493Y-74922916D01*
X151104293Y-74882000D01*
X150855707Y-74882000D01*
X150610506Y-74922916D01*
X150375396Y-75003630D01*
X150375390Y-75003632D01*
X150156761Y-75121949D01*
X150109942Y-75158388D01*
X150109942Y-75158390D01*
X150809765Y-75858212D01*
X150767708Y-75869482D01*
X150642292Y-75941890D01*
X150539890Y-76044292D01*
X150467482Y-76169708D01*
X150456212Y-76211764D01*
X149756564Y-75512116D01*
X149656267Y-75665632D01*
X149556412Y-75893282D01*
X149495387Y-76134261D01*
X149495385Y-76134270D01*
X149474859Y-76381994D01*
X143103758Y-76381994D01*
X142188074Y-75466310D01*
X142035199Y-75355240D01*
X141866836Y-75269454D01*
X141687118Y-75211059D01*
X141500486Y-75181500D01*
X141500481Y-75181500D01*
X141208935Y-75181500D01*
X141141896Y-75161815D01*
X141124594Y-75148399D01*
X141017217Y-75048768D01*
X140951019Y-75003635D01*
X140806634Y-74905195D01*
X140806630Y-74905193D01*
X140806627Y-74905191D01*
X140806626Y-74905190D01*
X140577006Y-74794612D01*
X140577008Y-74794612D01*
X140333466Y-74719489D01*
X140333462Y-74719488D01*
X140333458Y-74719487D01*
X140212231Y-74701214D01*
X140081440Y-74681500D01*
X140081435Y-74681500D01*
X139826565Y-74681500D01*
X139826559Y-74681500D01*
X139669609Y-74705157D01*
X139574542Y-74719487D01*
X139574539Y-74719488D01*
X139574533Y-74719489D01*
X139330992Y-74794612D01*
X139101373Y-74905190D01*
X139101372Y-74905191D01*
X138890782Y-75048768D01*
X138703952Y-75222121D01*
X138703950Y-75222123D01*
X138545041Y-75421388D01*
X138417608Y-75642109D01*
X138324492Y-75879362D01*
X138324490Y-75879369D01*
X138267777Y-76127845D01*
X138248732Y-76381995D01*
X138248732Y-76382004D01*
X138267777Y-76636154D01*
X138321314Y-76870717D01*
X138324492Y-76884637D01*
X138417607Y-77121888D01*
X138545041Y-77342612D01*
X138703950Y-77541877D01*
X138890783Y-77715232D01*
X139101366Y-77858805D01*
X139101371Y-77858807D01*
X139101372Y-77858808D01*
X139101373Y-77858809D01*
X139223328Y-77917538D01*
X139330992Y-77969387D01*
X139330993Y-77969387D01*
X139330996Y-77969389D01*
X139574542Y-78044513D01*
X139826565Y-78082500D01*
X140081435Y-78082500D01*
X140333458Y-78044513D01*
X140577004Y-77969389D01*
X140806634Y-77858805D01*
X140946751Y-77763274D01*
X141013229Y-77741774D01*
X141080779Y-77759628D01*
X141104283Y-77778047D01*
X143309721Y-79983485D01*
X143343206Y-80044808D01*
X143338222Y-80114500D01*
X143296350Y-80170433D01*
X143230886Y-80194850D01*
X143185493Y-80189657D01*
X143066960Y-80153094D01*
X142977466Y-80125489D01*
X142977462Y-80125488D01*
X142977458Y-80125487D01*
X142856231Y-80107214D01*
X142725440Y-80087500D01*
X142725435Y-80087500D01*
X142470565Y-80087500D01*
X142470559Y-80087500D01*
X142313609Y-80111157D01*
X142218542Y-80125487D01*
X142218539Y-80125488D01*
X142218533Y-80125489D01*
X141974992Y-80200612D01*
X141745373Y-80311190D01*
X141745372Y-80311191D01*
X141534782Y-80454768D01*
X141347952Y-80628121D01*
X141347950Y-80628123D01*
X141189041Y-80827388D01*
X141061608Y-81048109D01*
X140968492Y-81285362D01*
X140968490Y-81285369D01*
X140911777Y-81533845D01*
X140892732Y-81787995D01*
X140892732Y-81788004D01*
X140911777Y-82042154D01*
X140962257Y-82263322D01*
X140968492Y-82290637D01*
X141061607Y-82527888D01*
X141189041Y-82748612D01*
X141347950Y-82947877D01*
X141534783Y-83121232D01*
X141745366Y-83264805D01*
X141745371Y-83264807D01*
X141745372Y-83264808D01*
X141745373Y-83264809D01*
X141836469Y-83308678D01*
X141974992Y-83375387D01*
X141974993Y-83375387D01*
X141974996Y-83375389D01*
X142218542Y-83450513D01*
X142470565Y-83488500D01*
X142725435Y-83488500D01*
X142977458Y-83450513D01*
X143221004Y-83375389D01*
X143450634Y-83264805D01*
X143639649Y-83135936D01*
X143706127Y-83114436D01*
X143773677Y-83132290D01*
X143820852Y-83183830D01*
X143833500Y-83238390D01*
X143833500Y-85354689D01*
X143813815Y-85421728D01*
X143797181Y-85442370D01*
X143121787Y-86117764D01*
X143110518Y-86075708D01*
X143038110Y-85950292D01*
X142935708Y-85847890D01*
X142810292Y-85775482D01*
X142768235Y-85764212D01*
X143468057Y-85064390D01*
X143468056Y-85064389D01*
X143421229Y-85027943D01*
X143202614Y-84909635D01*
X143202603Y-84909630D01*
X142967493Y-84828916D01*
X142722293Y-84788000D01*
X142473707Y-84788000D01*
X142228506Y-84828916D01*
X141993396Y-84909630D01*
X141993390Y-84909632D01*
X141774761Y-85027949D01*
X141727942Y-85064388D01*
X141727942Y-85064390D01*
X142427765Y-85764212D01*
X142385708Y-85775482D01*
X142260292Y-85847890D01*
X142157890Y-85950292D01*
X142085482Y-86075708D01*
X142074212Y-86117764D01*
X141374564Y-85418116D01*
X141274267Y-85571632D01*
X141174412Y-85799282D01*
X141113387Y-86040261D01*
X141113385Y-86040270D01*
X141092859Y-86287994D01*
X141092859Y-86288005D01*
X141113385Y-86535729D01*
X141113387Y-86535738D01*
X141174412Y-86776717D01*
X141274266Y-87004364D01*
X141374564Y-87157882D01*
X142074212Y-86458234D01*
X142085482Y-86500292D01*
X142157890Y-86625708D01*
X142260292Y-86728110D01*
X142385708Y-86800518D01*
X142427765Y-86811787D01*
X141727942Y-87511609D01*
X141774768Y-87548055D01*
X141774770Y-87548056D01*
X141993385Y-87666364D01*
X141993396Y-87666369D01*
X142228506Y-87747083D01*
X142473707Y-87788000D01*
X142722293Y-87788000D01*
X142967493Y-87747083D01*
X143202603Y-87666369D01*
X143202614Y-87666364D01*
X143421228Y-87548057D01*
X143421231Y-87548055D01*
X143468056Y-87511609D01*
X142768234Y-86811787D01*
X142810292Y-86800518D01*
X142935708Y-86728110D01*
X143038110Y-86625708D01*
X143110518Y-86500292D01*
X143121787Y-86458235D01*
X143797181Y-87133629D01*
X143830666Y-87194952D01*
X143833500Y-87221310D01*
X143833500Y-91534486D01*
X143863059Y-91721118D01*
X143921454Y-91900836D01*
X144007240Y-92069199D01*
X144118310Y-92222074D01*
X144118311Y-92222075D01*
X144118312Y-92222076D01*
X162339181Y-110442944D01*
X162372666Y-110504267D01*
X162375500Y-110530625D01*
X162375500Y-113748345D01*
X162355815Y-113815384D01*
X162303011Y-113861139D01*
X162233853Y-113871083D01*
X162173246Y-113844534D01*
X162106147Y-113789945D01*
X161860625Y-113640639D01*
X161860617Y-113640634D01*
X161597063Y-113526158D01*
X161597061Y-113526157D01*
X161597058Y-113526156D01*
X161467578Y-113489877D01*
X161320364Y-113448630D01*
X161320359Y-113448629D01*
X161320358Y-113448629D01*
X161178018Y-113429064D01*
X161035679Y-113409500D01*
X161035678Y-113409500D01*
X160748322Y-113409500D01*
X160748321Y-113409500D01*
X160463642Y-113448629D01*
X160463635Y-113448630D01*
X160294014Y-113496156D01*
X160186942Y-113526156D01*
X160186939Y-113526156D01*
X160186936Y-113526158D01*
X160186935Y-113526158D01*
X159923382Y-113640634D01*
X159677853Y-113789944D01*
X159454950Y-113971289D01*
X159258812Y-114181299D01*
X159093098Y-114416064D01*
X158960894Y-114671206D01*
X158864667Y-114941962D01*
X158864666Y-114941965D01*
X158806201Y-115223319D01*
X158786592Y-115510000D01*
X158806201Y-115796680D01*
X158864666Y-116078034D01*
X158864667Y-116078037D01*
X158960894Y-116348793D01*
X158960893Y-116348793D01*
X159093098Y-116603935D01*
X159258812Y-116838700D01*
X159343923Y-116929831D01*
X159454947Y-117048708D01*
X159677853Y-117230055D01*
X159874042Y-117349361D01*
X159923382Y-117379365D01*
X160110237Y-117460526D01*
X160186942Y-117493844D01*
X160463642Y-117571371D01*
X160713920Y-117605771D01*
X160748321Y-117610500D01*
X160748322Y-117610500D01*
X161035679Y-117610500D01*
X161066370Y-117606281D01*
X161320358Y-117571371D01*
X161597058Y-117493844D01*
X161710015Y-117444779D01*
X161860617Y-117379365D01*
X161860620Y-117379363D01*
X161860625Y-117379361D01*
X162106147Y-117230055D01*
X162173247Y-117175465D01*
X162237671Y-117148428D01*
X162306487Y-117160513D01*
X162357846Y-117207884D01*
X162375500Y-117271654D01*
X162375500Y-122333918D01*
X162355815Y-122400957D01*
X162303011Y-122446712D01*
X162233853Y-122456656D01*
X162170297Y-122427631D01*
X162163819Y-122421599D01*
X151094532Y-111352312D01*
X151094530Y-111352310D01*
X150941655Y-111241240D01*
X150773292Y-111155454D01*
X150593574Y-111097059D01*
X150406942Y-111067500D01*
X150406937Y-111067500D01*
X135691505Y-111067500D01*
X135624466Y-111047815D01*
X135578711Y-110995011D01*
X135568767Y-110925853D01*
X135592238Y-110869190D01*
X135663760Y-110773646D01*
X135674716Y-110759011D01*
X135801574Y-110526689D01*
X135894077Y-110278678D01*
X135950343Y-110020026D01*
X135969227Y-109756000D01*
X135950343Y-109491974D01*
X135912466Y-109317854D01*
X135894078Y-109233326D01*
X135878429Y-109191370D01*
X135801574Y-108985311D01*
X135674716Y-108752989D01*
X135616460Y-108675168D01*
X135516093Y-108541092D01*
X135516077Y-108541074D01*
X135328925Y-108353922D01*
X135328907Y-108353906D01*
X135117013Y-108195285D01*
X135117005Y-108195280D01*
X134884694Y-108068428D01*
X134884690Y-108068426D01*
X134636673Y-107975921D01*
X134378034Y-107919658D01*
X134378027Y-107919657D01*
X134114001Y-107900773D01*
X134113999Y-107900773D01*
X133849972Y-107919657D01*
X133849965Y-107919658D01*
X133591326Y-107975921D01*
X133343309Y-108068426D01*
X133343305Y-108068428D01*
X133110994Y-108195280D01*
X133110986Y-108195285D01*
X132899092Y-108353906D01*
X132899074Y-108353922D01*
X132711922Y-108541074D01*
X132711906Y-108541092D01*
X132553285Y-108752986D01*
X132553280Y-108752994D01*
X132426428Y-108985305D01*
X132426426Y-108985309D01*
X132333921Y-109233326D01*
X132277658Y-109491965D01*
X132277657Y-109491972D01*
X132258773Y-109755998D01*
X132258773Y-109756001D01*
X132277657Y-110020027D01*
X132277658Y-110020034D01*
X132333921Y-110278673D01*
X132426426Y-110526690D01*
X132426428Y-110526694D01*
X132553280Y-110759005D01*
X132553285Y-110759013D01*
X132635762Y-110869190D01*
X132660179Y-110934654D01*
X132645327Y-111002927D01*
X132595921Y-111052332D01*
X132536495Y-111067500D01*
X132469875Y-111067500D01*
X132402836Y-111047815D01*
X132382194Y-111031181D01*
X132001921Y-110650908D01*
X131611932Y-110260918D01*
X131579407Y-110203677D01*
X131532902Y-110020034D01*
X131531248Y-110013500D01*
X131433888Y-109791541D01*
X131410667Y-109755998D01*
X131301325Y-109588637D01*
X131212340Y-109491974D01*
X131137169Y-109410316D01*
X131018372Y-109317852D01*
X130977560Y-109261143D01*
X130973885Y-109191370D01*
X131008516Y-109130687D01*
X131018367Y-109122150D01*
X131137169Y-109029684D01*
X131301323Y-108851365D01*
X131433888Y-108648459D01*
X131531248Y-108426500D01*
X131590747Y-108191545D01*
X131608614Y-107975923D01*
X131610762Y-107950005D01*
X131610762Y-107949994D01*
X131590748Y-107708463D01*
X131590746Y-107708451D01*
X131531248Y-107473501D01*
X131433888Y-107251541D01*
X131301325Y-107048637D01*
X131280263Y-107025758D01*
X131137169Y-106870316D01*
X131018372Y-106777852D01*
X130977560Y-106721143D01*
X130973885Y-106651370D01*
X131008516Y-106590687D01*
X131018367Y-106582150D01*
X131137169Y-106489684D01*
X131301323Y-106311365D01*
X131433888Y-106108459D01*
X131531248Y-105886500D01*
X131590747Y-105651545D01*
X131610762Y-105410000D01*
X131590747Y-105168455D01*
X131531248Y-104933500D01*
X131433888Y-104711541D01*
X131301325Y-104508637D01*
X131280263Y-104485758D01*
X131137169Y-104330316D01*
X131018372Y-104237852D01*
X130977560Y-104181143D01*
X130973885Y-104111370D01*
X131008516Y-104050687D01*
X131018367Y-104042150D01*
X131137169Y-103949684D01*
X131301323Y-103771365D01*
X131433888Y-103568459D01*
X131531248Y-103346500D01*
X131590747Y-103111545D01*
X131610762Y-102870000D01*
X131590747Y-102628455D01*
X131531248Y-102393500D01*
X131433888Y-102171541D01*
X131301325Y-101968637D01*
X131282658Y-101948359D01*
X131137169Y-101790316D01*
X131137164Y-101790312D01*
X131137162Y-101790310D01*
X130945911Y-101641453D01*
X130945905Y-101641449D01*
X130854272Y-101591860D01*
X130804682Y-101542640D01*
X130789574Y-101474424D01*
X130813744Y-101408868D01*
X130841419Y-101381957D01*
X130841438Y-101381741D01*
X130331039Y-100871342D01*
X130363841Y-100862553D01*
X130494159Y-100787313D01*
X130600563Y-100680909D01*
X130675803Y-100550591D01*
X130684592Y-100517789D01*
X131194991Y-101028188D01*
X131240344Y-100963417D01*
X131240350Y-100963407D01*
X131333669Y-100763284D01*
X131333674Y-100763270D01*
X131390823Y-100549986D01*
X131390825Y-100549976D01*
X131410071Y-100330000D01*
X131410071Y-100329999D01*
X131390825Y-100110023D01*
X131390823Y-100110013D01*
X131333674Y-99896729D01*
X131333670Y-99896720D01*
X131240346Y-99696586D01*
X131194991Y-99631811D01*
X131194990Y-99631810D01*
X130684591Y-100142209D01*
X130675803Y-100109409D01*
X130600563Y-99979091D01*
X130494159Y-99872687D01*
X130363841Y-99797447D01*
X130331039Y-99788657D01*
X130841438Y-99278259D01*
X130841437Y-99278258D01*
X130776661Y-99232901D01*
X130776655Y-99232898D01*
X130576534Y-99139580D01*
X130576520Y-99139575D01*
X130363236Y-99082426D01*
X130363226Y-99082424D01*
X130143251Y-99063179D01*
X130143249Y-99063179D01*
X129923273Y-99082424D01*
X129923263Y-99082426D01*
X129709979Y-99139575D01*
X129709970Y-99139579D01*
X129509840Y-99232901D01*
X129445061Y-99278258D01*
X129955460Y-99788657D01*
X129922659Y-99797447D01*
X129792341Y-99872687D01*
X129685937Y-99979091D01*
X129610697Y-100109409D01*
X129601907Y-100142210D01*
X129091508Y-99631811D01*
X129046151Y-99696590D01*
X128952829Y-99896720D01*
X128952825Y-99896729D01*
X128895676Y-100110013D01*
X128895674Y-100110023D01*
X128876429Y-100329999D01*
X128876429Y-100330000D01*
X128895674Y-100549976D01*
X128895676Y-100549986D01*
X128952825Y-100763270D01*
X128952830Y-100763284D01*
X129046148Y-100963405D01*
X129046151Y-100963411D01*
X129091508Y-101028187D01*
X129091509Y-101028188D01*
X129601907Y-100517789D01*
X129610697Y-100550591D01*
X129685937Y-100680909D01*
X129792341Y-100787313D01*
X129922659Y-100862553D01*
X129955460Y-100871342D01*
X129445060Y-101381740D01*
X129445099Y-101382190D01*
X129487957Y-101435806D01*
X129495151Y-101505304D01*
X129463629Y-101567659D01*
X129432227Y-101591859D01*
X129340606Y-101641441D01*
X129340595Y-101641449D01*
X129338147Y-101643355D01*
X129336966Y-101643820D01*
X129336311Y-101644249D01*
X129336222Y-101644114D01*
X129273152Y-101668996D01*
X129261987Y-101669500D01*
X128971134Y-101669500D01*
X128784501Y-101699059D01*
X128604783Y-101757454D01*
X128436415Y-101843242D01*
X128283552Y-101954306D01*
X128283543Y-101954313D01*
X122570181Y-107667675D01*
X122508858Y-107701160D01*
X122439166Y-107696176D01*
X122383233Y-107654304D01*
X122358816Y-107588840D01*
X122358500Y-107579994D01*
X122358500Y-95319350D01*
X132656592Y-95319350D01*
X132676201Y-95606030D01*
X132734666Y-95887384D01*
X132734667Y-95887387D01*
X132830894Y-96158143D01*
X132830893Y-96158143D01*
X132963098Y-96413285D01*
X133128812Y-96648050D01*
X133213923Y-96739181D01*
X133324947Y-96858058D01*
X133547853Y-97039405D01*
X133778006Y-97179365D01*
X133793382Y-97188715D01*
X133978231Y-97269005D01*
X134056942Y-97303194D01*
X134333642Y-97380721D01*
X134583920Y-97415121D01*
X134618321Y-97419850D01*
X134618322Y-97419850D01*
X134905679Y-97419850D01*
X134936370Y-97415631D01*
X135190358Y-97380721D01*
X135467058Y-97303194D01*
X135580015Y-97254129D01*
X135730617Y-97188715D01*
X135730620Y-97188713D01*
X135730625Y-97188711D01*
X135976147Y-97039405D01*
X136199053Y-96858058D01*
X136395189Y-96648048D01*
X136560901Y-96413286D01*
X136693104Y-96158147D01*
X136789334Y-95887382D01*
X136847798Y-95606036D01*
X136867408Y-95319350D01*
X136847798Y-95032664D01*
X136789334Y-94751318D01*
X136772973Y-94705284D01*
X136724635Y-94569272D01*
X136693105Y-94480556D01*
X136693106Y-94480556D01*
X136560901Y-94225414D01*
X136395187Y-93990649D01*
X136316554Y-93906455D01*
X136199053Y-93780642D01*
X135976147Y-93599295D01*
X135976146Y-93599294D01*
X135730617Y-93449984D01*
X135467063Y-93335508D01*
X135467061Y-93335507D01*
X135467058Y-93335506D01*
X135337578Y-93299227D01*
X135190364Y-93257980D01*
X135190359Y-93257979D01*
X135190358Y-93257979D01*
X135048018Y-93238414D01*
X134905679Y-93218850D01*
X134905678Y-93218850D01*
X134618322Y-93218850D01*
X134618321Y-93218850D01*
X134333642Y-93257979D01*
X134333635Y-93257980D01*
X134125861Y-93316195D01*
X134056942Y-93335506D01*
X134056939Y-93335506D01*
X134056936Y-93335508D01*
X134056935Y-93335508D01*
X133793382Y-93449984D01*
X133547853Y-93599294D01*
X133324950Y-93780639D01*
X133128812Y-93990649D01*
X132963098Y-94225414D01*
X132830894Y-94480556D01*
X132734667Y-94751312D01*
X132734666Y-94751315D01*
X132676201Y-95032669D01*
X132656592Y-95319350D01*
X122358500Y-95319350D01*
X122358500Y-82785998D01*
X132258773Y-82785998D01*
X132258773Y-82786001D01*
X132277657Y-83050027D01*
X132277658Y-83050034D01*
X132333921Y-83308673D01*
X132426426Y-83556690D01*
X132426428Y-83556694D01*
X132553280Y-83789005D01*
X132553285Y-83789013D01*
X132711906Y-84000907D01*
X132711922Y-84000925D01*
X132899074Y-84188077D01*
X132899092Y-84188093D01*
X133110986Y-84346714D01*
X133110994Y-84346719D01*
X133343305Y-84473571D01*
X133343309Y-84473573D01*
X133343311Y-84473574D01*
X133591322Y-84566077D01*
X133591325Y-84566077D01*
X133591326Y-84566078D01*
X133786552Y-84608546D01*
X133849974Y-84622343D01*
X134093660Y-84639772D01*
X134113999Y-84641227D01*
X134114000Y-84641227D01*
X134114001Y-84641227D01*
X134132885Y-84639876D01*
X134378026Y-84622343D01*
X134636678Y-84566077D01*
X134884689Y-84473574D01*
X135117011Y-84346716D01*
X135328915Y-84188087D01*
X135516087Y-84000915D01*
X135674716Y-83789011D01*
X135801574Y-83556689D01*
X135894077Y-83308678D01*
X135950343Y-83050026D01*
X135969227Y-82786000D01*
X135950343Y-82521974D01*
X135900019Y-82290637D01*
X135894078Y-82263326D01*
X135801573Y-82015309D01*
X135801571Y-82015305D01*
X135674719Y-81782994D01*
X135674714Y-81782986D01*
X135516093Y-81571092D01*
X135516077Y-81571074D01*
X135328925Y-81383922D01*
X135328907Y-81383906D01*
X135117013Y-81225285D01*
X135117005Y-81225280D01*
X134884694Y-81098428D01*
X134884690Y-81098426D01*
X134636673Y-81005921D01*
X134378034Y-80949658D01*
X134378027Y-80949657D01*
X134114001Y-80930773D01*
X134113999Y-80930773D01*
X133849972Y-80949657D01*
X133849965Y-80949658D01*
X133591326Y-81005921D01*
X133343309Y-81098426D01*
X133343305Y-81098428D01*
X133110994Y-81225280D01*
X133110986Y-81225285D01*
X132899092Y-81383906D01*
X132899074Y-81383922D01*
X132711922Y-81571074D01*
X132711906Y-81571092D01*
X132553285Y-81782986D01*
X132553280Y-81782994D01*
X132426428Y-82015305D01*
X132426426Y-82015309D01*
X132333921Y-82263326D01*
X132277658Y-82521965D01*
X132277657Y-82521972D01*
X132258773Y-82785998D01*
X122358500Y-82785998D01*
X122358500Y-76381995D01*
X131748732Y-76381995D01*
X131748732Y-76382004D01*
X131767777Y-76636154D01*
X131821314Y-76870717D01*
X131824492Y-76884637D01*
X131917607Y-77121888D01*
X132045041Y-77342612D01*
X132203950Y-77541877D01*
X132390783Y-77715232D01*
X132601366Y-77858805D01*
X132601371Y-77858807D01*
X132601372Y-77858808D01*
X132601373Y-77858809D01*
X132723328Y-77917538D01*
X132830992Y-77969387D01*
X132830993Y-77969387D01*
X132830996Y-77969389D01*
X133074542Y-78044513D01*
X133326565Y-78082500D01*
X133581435Y-78082500D01*
X133833458Y-78044513D01*
X134077004Y-77969389D01*
X134306634Y-77858805D01*
X134517217Y-77715232D01*
X134704050Y-77541877D01*
X134862959Y-77342612D01*
X134990393Y-77121888D01*
X135083508Y-76884637D01*
X135140222Y-76636157D01*
X135159268Y-76382000D01*
X135140222Y-76127843D01*
X135083508Y-75879363D01*
X134990393Y-75642112D01*
X134862959Y-75421388D01*
X134704050Y-75222123D01*
X134517217Y-75048768D01*
X134306634Y-74905195D01*
X134306630Y-74905193D01*
X134306627Y-74905191D01*
X134306626Y-74905190D01*
X134077006Y-74794612D01*
X134077008Y-74794612D01*
X133833466Y-74719489D01*
X133833462Y-74719488D01*
X133833458Y-74719487D01*
X133712231Y-74701214D01*
X133581440Y-74681500D01*
X133581435Y-74681500D01*
X133326565Y-74681500D01*
X133326559Y-74681500D01*
X133169609Y-74705157D01*
X133074542Y-74719487D01*
X133074539Y-74719488D01*
X133074533Y-74719489D01*
X132830992Y-74794612D01*
X132601373Y-74905190D01*
X132601372Y-74905191D01*
X132390782Y-75048768D01*
X132203952Y-75222121D01*
X132203950Y-75222123D01*
X132045041Y-75421388D01*
X131917608Y-75642109D01*
X131824492Y-75879362D01*
X131824490Y-75879369D01*
X131767777Y-76127845D01*
X131748732Y-76381995D01*
X122358500Y-76381995D01*
X122358500Y-71881994D01*
X131948859Y-71881994D01*
X131948859Y-71882005D01*
X131969385Y-72129729D01*
X131969387Y-72129738D01*
X132030412Y-72370717D01*
X132130266Y-72598364D01*
X132230564Y-72751882D01*
X132930212Y-72052234D01*
X132941482Y-72094292D01*
X133013890Y-72219708D01*
X133116292Y-72322110D01*
X133241708Y-72394518D01*
X133283765Y-72405787D01*
X132583942Y-73105609D01*
X132630768Y-73142055D01*
X132630770Y-73142056D01*
X132849385Y-73260364D01*
X132849396Y-73260369D01*
X133084506Y-73341083D01*
X133329707Y-73382000D01*
X133578293Y-73382000D01*
X133823493Y-73341083D01*
X134058603Y-73260369D01*
X134058614Y-73260364D01*
X134277228Y-73142057D01*
X134277231Y-73142055D01*
X134324056Y-73105609D01*
X133624234Y-72405787D01*
X133666292Y-72394518D01*
X133791708Y-72322110D01*
X133894110Y-72219708D01*
X133966518Y-72094292D01*
X133977787Y-72052235D01*
X134677434Y-72751882D01*
X134777731Y-72598369D01*
X134877587Y-72370717D01*
X134938612Y-72129738D01*
X134938614Y-72129729D01*
X134959141Y-71882005D01*
X134959141Y-71881994D01*
X138448859Y-71881994D01*
X138448859Y-71882005D01*
X138469385Y-72129729D01*
X138469387Y-72129738D01*
X138530412Y-72370717D01*
X138630266Y-72598364D01*
X138730564Y-72751882D01*
X139430212Y-72052234D01*
X139441482Y-72094292D01*
X139513890Y-72219708D01*
X139616292Y-72322110D01*
X139741708Y-72394518D01*
X139783765Y-72405787D01*
X139083942Y-73105609D01*
X139130768Y-73142055D01*
X139130770Y-73142056D01*
X139349385Y-73260364D01*
X139349396Y-73260369D01*
X139584506Y-73341083D01*
X139829707Y-73382000D01*
X140078293Y-73382000D01*
X140323493Y-73341083D01*
X140558603Y-73260369D01*
X140558614Y-73260364D01*
X140777228Y-73142057D01*
X140777231Y-73142055D01*
X140824056Y-73105609D01*
X140124234Y-72405787D01*
X140166292Y-72394518D01*
X140291708Y-72322110D01*
X140394110Y-72219708D01*
X140466518Y-72094292D01*
X140477787Y-72052235D01*
X141177434Y-72751882D01*
X141277731Y-72598369D01*
X141377587Y-72370717D01*
X141438612Y-72129738D01*
X141438614Y-72129729D01*
X141459141Y-71882005D01*
X141459141Y-71881995D01*
X149274732Y-71881995D01*
X149274732Y-71882004D01*
X149293777Y-72136154D01*
X149347314Y-72370717D01*
X149350492Y-72384637D01*
X149443607Y-72621888D01*
X149571041Y-72842612D01*
X149729950Y-73041877D01*
X149916783Y-73215232D01*
X150127366Y-73358805D01*
X150127371Y-73358807D01*
X150127372Y-73358808D01*
X150127373Y-73358809D01*
X150249328Y-73417538D01*
X150356992Y-73469387D01*
X150356993Y-73469387D01*
X150356996Y-73469389D01*
X150600542Y-73544513D01*
X150852565Y-73582500D01*
X151107435Y-73582500D01*
X151359458Y-73544513D01*
X151603004Y-73469389D01*
X151832634Y-73358805D01*
X152043217Y-73215232D01*
X152230050Y-73041877D01*
X152388959Y-72842612D01*
X152516393Y-72621888D01*
X152609508Y-72384637D01*
X152666222Y-72136157D01*
X152685268Y-71882000D01*
X152683718Y-71861322D01*
X152669359Y-71669708D01*
X152666222Y-71627843D01*
X152609508Y-71379363D01*
X152516393Y-71142112D01*
X152388959Y-70921388D01*
X152230050Y-70722123D01*
X152043217Y-70548768D01*
X151832634Y-70405195D01*
X151832630Y-70405193D01*
X151832627Y-70405191D01*
X151832626Y-70405190D01*
X151603006Y-70294612D01*
X151603008Y-70294612D01*
X151359466Y-70219489D01*
X151359462Y-70219488D01*
X151359458Y-70219487D01*
X151238231Y-70201214D01*
X151107440Y-70181500D01*
X151107435Y-70181500D01*
X150852565Y-70181500D01*
X150852559Y-70181500D01*
X150695609Y-70205157D01*
X150600542Y-70219487D01*
X150600539Y-70219488D01*
X150600533Y-70219489D01*
X150356992Y-70294612D01*
X150127373Y-70405190D01*
X150127372Y-70405191D01*
X149916782Y-70548768D01*
X149729952Y-70722121D01*
X149729950Y-70722123D01*
X149571041Y-70921388D01*
X149443608Y-71142109D01*
X149350492Y-71379362D01*
X149350490Y-71379369D01*
X149293777Y-71627845D01*
X149274732Y-71881995D01*
X141459141Y-71881995D01*
X141459141Y-71881994D01*
X141438614Y-71634270D01*
X141438612Y-71634261D01*
X141377587Y-71393282D01*
X141277731Y-71165630D01*
X141177434Y-71012116D01*
X140477787Y-71711764D01*
X140466518Y-71669708D01*
X140394110Y-71544292D01*
X140291708Y-71441890D01*
X140166292Y-71369482D01*
X140124235Y-71358212D01*
X140824057Y-70658390D01*
X140824056Y-70658389D01*
X140777229Y-70621943D01*
X140558614Y-70503635D01*
X140558603Y-70503630D01*
X140323493Y-70422916D01*
X140078293Y-70382000D01*
X139829707Y-70382000D01*
X139584506Y-70422916D01*
X139349396Y-70503630D01*
X139349390Y-70503632D01*
X139130761Y-70621949D01*
X139083942Y-70658388D01*
X139083942Y-70658390D01*
X139783765Y-71358212D01*
X139741708Y-71369482D01*
X139616292Y-71441890D01*
X139513890Y-71544292D01*
X139441482Y-71669708D01*
X139430212Y-71711764D01*
X138730564Y-71012116D01*
X138630267Y-71165632D01*
X138530412Y-71393282D01*
X138469387Y-71634261D01*
X138469385Y-71634270D01*
X138448859Y-71881994D01*
X134959141Y-71881994D01*
X134938614Y-71634270D01*
X134938612Y-71634261D01*
X134877587Y-71393282D01*
X134777731Y-71165630D01*
X134677434Y-71012116D01*
X133977787Y-71711764D01*
X133966518Y-71669708D01*
X133894110Y-71544292D01*
X133791708Y-71441890D01*
X133666292Y-71369482D01*
X133624235Y-71358212D01*
X134324057Y-70658390D01*
X134324056Y-70658389D01*
X134277229Y-70621943D01*
X134058614Y-70503635D01*
X134058603Y-70503630D01*
X133823493Y-70422916D01*
X133578293Y-70382000D01*
X133329707Y-70382000D01*
X133084506Y-70422916D01*
X132849396Y-70503630D01*
X132849390Y-70503632D01*
X132630761Y-70621949D01*
X132583942Y-70658388D01*
X132583942Y-70658390D01*
X133283765Y-71358212D01*
X133241708Y-71369482D01*
X133116292Y-71441890D01*
X133013890Y-71544292D01*
X132941482Y-71669708D01*
X132930212Y-71711764D01*
X132230564Y-71012116D01*
X132130267Y-71165632D01*
X132030412Y-71393282D01*
X131969387Y-71634261D01*
X131969385Y-71634270D01*
X131948859Y-71881994D01*
X122358500Y-71881994D01*
X122358500Y-66475994D01*
X141092859Y-66475994D01*
X141092859Y-66476005D01*
X141113385Y-66723729D01*
X141113387Y-66723738D01*
X141174412Y-66964717D01*
X141274266Y-67192364D01*
X141374564Y-67345882D01*
X142074212Y-66646234D01*
X142085482Y-66688292D01*
X142157890Y-66813708D01*
X142260292Y-66916110D01*
X142385708Y-66988518D01*
X142427765Y-66999787D01*
X141727942Y-67699609D01*
X141774768Y-67736055D01*
X141774770Y-67736056D01*
X141993385Y-67854364D01*
X141993396Y-67854369D01*
X142228506Y-67935083D01*
X142473707Y-67976000D01*
X142722293Y-67976000D01*
X142967493Y-67935083D01*
X143202603Y-67854369D01*
X143202614Y-67854364D01*
X143421228Y-67736057D01*
X143421231Y-67736055D01*
X143468056Y-67699609D01*
X142768234Y-66999787D01*
X142810292Y-66988518D01*
X142935708Y-66916110D01*
X143038110Y-66813708D01*
X143110518Y-66688292D01*
X143121787Y-66646234D01*
X143821434Y-67345882D01*
X143921731Y-67192369D01*
X144021587Y-66964717D01*
X144082612Y-66723738D01*
X144082614Y-66723729D01*
X144103141Y-66476005D01*
X144103141Y-66475994D01*
X147592859Y-66475994D01*
X147592859Y-66476005D01*
X147613385Y-66723729D01*
X147613387Y-66723738D01*
X147674412Y-66964717D01*
X147774266Y-67192364D01*
X147874564Y-67345882D01*
X148574212Y-66646234D01*
X148585482Y-66688292D01*
X148657890Y-66813708D01*
X148760292Y-66916110D01*
X148885708Y-66988518D01*
X148927765Y-66999787D01*
X148227942Y-67699609D01*
X148274768Y-67736055D01*
X148274770Y-67736056D01*
X148493385Y-67854364D01*
X148493396Y-67854369D01*
X148728506Y-67935083D01*
X148973707Y-67976000D01*
X149222293Y-67976000D01*
X149467493Y-67935083D01*
X149702603Y-67854369D01*
X149702614Y-67854364D01*
X149921228Y-67736057D01*
X149921231Y-67736055D01*
X149968056Y-67699609D01*
X149268234Y-66999787D01*
X149310292Y-66988518D01*
X149435708Y-66916110D01*
X149538110Y-66813708D01*
X149610518Y-66688292D01*
X149621787Y-66646235D01*
X150321434Y-67345882D01*
X150421731Y-67192369D01*
X150521587Y-66964717D01*
X150582612Y-66723738D01*
X150582614Y-66723729D01*
X150603141Y-66476005D01*
X150603141Y-66475994D01*
X150582614Y-66228270D01*
X150582612Y-66228261D01*
X150521587Y-65987282D01*
X150421731Y-65759630D01*
X150321434Y-65606116D01*
X149621787Y-66305764D01*
X149610518Y-66263708D01*
X149538110Y-66138292D01*
X149435708Y-66035890D01*
X149310292Y-65963482D01*
X149268235Y-65952212D01*
X149968057Y-65252390D01*
X149968056Y-65252389D01*
X149921229Y-65215943D01*
X149702614Y-65097635D01*
X149702603Y-65097630D01*
X149467493Y-65016916D01*
X149222293Y-64976000D01*
X148973707Y-64976000D01*
X148728506Y-65016916D01*
X148493396Y-65097630D01*
X148493390Y-65097632D01*
X148274761Y-65215949D01*
X148227942Y-65252388D01*
X148227942Y-65252390D01*
X148927765Y-65952212D01*
X148885708Y-65963482D01*
X148760292Y-66035890D01*
X148657890Y-66138292D01*
X148585482Y-66263708D01*
X148574212Y-66305764D01*
X147874564Y-65606116D01*
X147774267Y-65759632D01*
X147674412Y-65987282D01*
X147613387Y-66228261D01*
X147613385Y-66228270D01*
X147592859Y-66475994D01*
X144103141Y-66475994D01*
X144082614Y-66228270D01*
X144082612Y-66228261D01*
X144021587Y-65987282D01*
X143921731Y-65759630D01*
X143821434Y-65606116D01*
X143121787Y-66305764D01*
X143110518Y-66263708D01*
X143038110Y-66138292D01*
X142935708Y-66035890D01*
X142810292Y-65963482D01*
X142768235Y-65952212D01*
X143468057Y-65252390D01*
X143468056Y-65252389D01*
X143421229Y-65215943D01*
X143202614Y-65097635D01*
X143202603Y-65097630D01*
X142967493Y-65016916D01*
X142722293Y-64976000D01*
X142473707Y-64976000D01*
X142228506Y-65016916D01*
X141993396Y-65097630D01*
X141993390Y-65097632D01*
X141774761Y-65215949D01*
X141727942Y-65252388D01*
X141727942Y-65252390D01*
X142427765Y-65952212D01*
X142385708Y-65963482D01*
X142260292Y-66035890D01*
X142157890Y-66138292D01*
X142085482Y-66263708D01*
X142074212Y-66305764D01*
X141374564Y-65606116D01*
X141274267Y-65759632D01*
X141174412Y-65987282D01*
X141113387Y-66228261D01*
X141113385Y-66228270D01*
X141092859Y-66475994D01*
X122358500Y-66475994D01*
X122358500Y-64889895D01*
X122378185Y-64822856D01*
X122394819Y-64802214D01*
X123091074Y-64105959D01*
X123851690Y-63345343D01*
X123962760Y-63192469D01*
X124048547Y-63024102D01*
X124106940Y-62844388D01*
X124127292Y-62715890D01*
X124136500Y-62657756D01*
X124136500Y-61685995D01*
X125496732Y-61685995D01*
X125496732Y-61686004D01*
X125515777Y-61940154D01*
X125523957Y-61975995D01*
X125572492Y-62188637D01*
X125665607Y-62425888D01*
X125793041Y-62646612D01*
X125951950Y-62845877D01*
X126138783Y-63019232D01*
X126349366Y-63162805D01*
X126349371Y-63162807D01*
X126349372Y-63162808D01*
X126349373Y-63162809D01*
X126418680Y-63196185D01*
X126578992Y-63273387D01*
X126578993Y-63273387D01*
X126578996Y-63273389D01*
X126822542Y-63348513D01*
X127074565Y-63386500D01*
X127329435Y-63386500D01*
X127581458Y-63348513D01*
X127825004Y-63273389D01*
X128054634Y-63162805D01*
X128265217Y-63019232D01*
X128452050Y-62845877D01*
X128610959Y-62646612D01*
X128738393Y-62425888D01*
X128831508Y-62188637D01*
X128880042Y-61975995D01*
X140892732Y-61975995D01*
X140892732Y-61976004D01*
X140911777Y-62230154D01*
X140956452Y-62425890D01*
X140968492Y-62478637D01*
X141061607Y-62715888D01*
X141189041Y-62936612D01*
X141347950Y-63135877D01*
X141534783Y-63309232D01*
X141745366Y-63452805D01*
X141745371Y-63452807D01*
X141745372Y-63452808D01*
X141745373Y-63452809D01*
X141867328Y-63511538D01*
X141974992Y-63563387D01*
X141974993Y-63563387D01*
X141974996Y-63563389D01*
X142218542Y-63638513D01*
X142470565Y-63676500D01*
X142725435Y-63676500D01*
X142977458Y-63638513D01*
X143221004Y-63563389D01*
X143450634Y-63452805D01*
X143661217Y-63309232D01*
X143848050Y-63135877D01*
X144006959Y-62936612D01*
X144134393Y-62715888D01*
X144227508Y-62478637D01*
X144284222Y-62230157D01*
X144303268Y-61976000D01*
X144284222Y-61721843D01*
X144227508Y-61473363D01*
X144134393Y-61236112D01*
X144006959Y-61015388D01*
X143848050Y-60816123D01*
X143661217Y-60642768D01*
X143450634Y-60499195D01*
X143450630Y-60499193D01*
X143450627Y-60499191D01*
X143450626Y-60499190D01*
X143221006Y-60388612D01*
X143221008Y-60388612D01*
X142977466Y-60313489D01*
X142977462Y-60313488D01*
X142977458Y-60313487D01*
X142856231Y-60295214D01*
X142725440Y-60275500D01*
X142725435Y-60275500D01*
X142470565Y-60275500D01*
X142470559Y-60275500D01*
X142313609Y-60299157D01*
X142218542Y-60313487D01*
X142218539Y-60313488D01*
X142218533Y-60313489D01*
X141974992Y-60388612D01*
X141745373Y-60499190D01*
X141745372Y-60499191D01*
X141534782Y-60642768D01*
X141347952Y-60816121D01*
X141347950Y-60816123D01*
X141189041Y-61015388D01*
X141061608Y-61236109D01*
X140968492Y-61473362D01*
X140968490Y-61473369D01*
X140911777Y-61721845D01*
X140892732Y-61975995D01*
X128880042Y-61975995D01*
X128888222Y-61940157D01*
X128907268Y-61686000D01*
X128888222Y-61431843D01*
X128831508Y-61183363D01*
X128738393Y-60946112D01*
X128610959Y-60725388D01*
X128452050Y-60526123D01*
X128265217Y-60352768D01*
X128054634Y-60209195D01*
X128054630Y-60209193D01*
X128054627Y-60209191D01*
X128054626Y-60209190D01*
X127825006Y-60098612D01*
X127825008Y-60098612D01*
X127581466Y-60023489D01*
X127581462Y-60023488D01*
X127581458Y-60023487D01*
X127460231Y-60005214D01*
X127329440Y-59985500D01*
X127329435Y-59985500D01*
X127074565Y-59985500D01*
X127074559Y-59985500D01*
X126917609Y-60009157D01*
X126822542Y-60023487D01*
X126822539Y-60023488D01*
X126822533Y-60023489D01*
X126578992Y-60098612D01*
X126349373Y-60209190D01*
X126349372Y-60209191D01*
X126138782Y-60352768D01*
X125951952Y-60526121D01*
X125951950Y-60526123D01*
X125793041Y-60725388D01*
X125665608Y-60946109D01*
X125572492Y-61183362D01*
X125572490Y-61183369D01*
X125515777Y-61431845D01*
X125496732Y-61685995D01*
X124136500Y-61685995D01*
X124136500Y-57185994D01*
X125696859Y-57185994D01*
X125696859Y-57186005D01*
X125717385Y-57433729D01*
X125717387Y-57433738D01*
X125778412Y-57674717D01*
X125878266Y-57902364D01*
X125978564Y-58055882D01*
X126678212Y-57356234D01*
X126689482Y-57398292D01*
X126761890Y-57523708D01*
X126864292Y-57626110D01*
X126989708Y-57698518D01*
X127031765Y-57709787D01*
X126331942Y-58409609D01*
X126378768Y-58446055D01*
X126378770Y-58446056D01*
X126597385Y-58564364D01*
X126597396Y-58564369D01*
X126832506Y-58645083D01*
X127077707Y-58686000D01*
X127326293Y-58686000D01*
X127571493Y-58645083D01*
X127806603Y-58564369D01*
X127806614Y-58564364D01*
X128025228Y-58446057D01*
X128025231Y-58446055D01*
X128072056Y-58409609D01*
X127372234Y-57709787D01*
X127414292Y-57698518D01*
X127539708Y-57626110D01*
X127642110Y-57523708D01*
X127714518Y-57398292D01*
X127725787Y-57356235D01*
X128425434Y-58055882D01*
X128525731Y-57902369D01*
X128625587Y-57674717D01*
X128686612Y-57433738D01*
X128686614Y-57433729D01*
X128707141Y-57186005D01*
X128707141Y-57185994D01*
X128686614Y-56938270D01*
X128686612Y-56938261D01*
X128625587Y-56697282D01*
X128525731Y-56469630D01*
X128425434Y-56316116D01*
X127725787Y-57015764D01*
X127714518Y-56973708D01*
X127642110Y-56848292D01*
X127539708Y-56745890D01*
X127414292Y-56673482D01*
X127372235Y-56662212D01*
X128072057Y-55962390D01*
X128072056Y-55962389D01*
X128025229Y-55925943D01*
X127806614Y-55807635D01*
X127806603Y-55807630D01*
X127571493Y-55726916D01*
X127326293Y-55686000D01*
X127077707Y-55686000D01*
X126832506Y-55726916D01*
X126597396Y-55807630D01*
X126597390Y-55807632D01*
X126378761Y-55925949D01*
X126331942Y-55962388D01*
X126331942Y-55962390D01*
X127031765Y-56662212D01*
X126989708Y-56673482D01*
X126864292Y-56745890D01*
X126761890Y-56848292D01*
X126689482Y-56973708D01*
X126678212Y-57015764D01*
X125978564Y-56316116D01*
X125878267Y-56469632D01*
X125778412Y-56697282D01*
X125717387Y-56938261D01*
X125717385Y-56938270D01*
X125696859Y-57185994D01*
X124136500Y-57185994D01*
X124136500Y-57020626D01*
X124156185Y-56953587D01*
X124172819Y-56932945D01*
X127547770Y-53557994D01*
X147390859Y-53557994D01*
X147390859Y-53558005D01*
X147411385Y-53805729D01*
X147411387Y-53805738D01*
X147472412Y-54046717D01*
X147572266Y-54274364D01*
X147672564Y-54427882D01*
X148372212Y-53728234D01*
X148383482Y-53770292D01*
X148455890Y-53895708D01*
X148558292Y-53998110D01*
X148683708Y-54070518D01*
X148725765Y-54081787D01*
X148025942Y-54781609D01*
X148072768Y-54818055D01*
X148072770Y-54818056D01*
X148291385Y-54936364D01*
X148291396Y-54936369D01*
X148526506Y-55017083D01*
X148771707Y-55058000D01*
X149020293Y-55058000D01*
X149265493Y-55017083D01*
X149500603Y-54936369D01*
X149500614Y-54936364D01*
X149719228Y-54818057D01*
X149719231Y-54818055D01*
X149766056Y-54781609D01*
X149066234Y-54081787D01*
X149108292Y-54070518D01*
X149233708Y-53998110D01*
X149336110Y-53895708D01*
X149408518Y-53770292D01*
X149419787Y-53728235D01*
X150119434Y-54427882D01*
X150219731Y-54274369D01*
X150319587Y-54046717D01*
X150380612Y-53805738D01*
X150380614Y-53805729D01*
X150401141Y-53558005D01*
X150401141Y-53557994D01*
X153890859Y-53557994D01*
X153890859Y-53558005D01*
X153911385Y-53805729D01*
X153911387Y-53805738D01*
X153972412Y-54046717D01*
X154072266Y-54274364D01*
X154172564Y-54427882D01*
X154872212Y-53728234D01*
X154883482Y-53770292D01*
X154955890Y-53895708D01*
X155058292Y-53998110D01*
X155183708Y-54070518D01*
X155225765Y-54081787D01*
X154525942Y-54781609D01*
X154572768Y-54818055D01*
X154572770Y-54818056D01*
X154791385Y-54936364D01*
X154791396Y-54936369D01*
X155026506Y-55017083D01*
X155271707Y-55058000D01*
X155520293Y-55058000D01*
X155765493Y-55017083D01*
X156000603Y-54936369D01*
X156000614Y-54936364D01*
X156219228Y-54818057D01*
X156219231Y-54818055D01*
X156266056Y-54781609D01*
X155566234Y-54081787D01*
X155608292Y-54070518D01*
X155733708Y-53998110D01*
X155836110Y-53895708D01*
X155908518Y-53770292D01*
X155919787Y-53728235D01*
X156619434Y-54427882D01*
X156719731Y-54274369D01*
X156819587Y-54046717D01*
X156880612Y-53805738D01*
X156880614Y-53805729D01*
X156901141Y-53558005D01*
X156901141Y-53557994D01*
X156880614Y-53310270D01*
X156880612Y-53310261D01*
X156819587Y-53069282D01*
X156719731Y-52841630D01*
X156619434Y-52688116D01*
X155919787Y-53387764D01*
X155908518Y-53345708D01*
X155836110Y-53220292D01*
X155733708Y-53117890D01*
X155608292Y-53045482D01*
X155566235Y-53034212D01*
X156266057Y-52334390D01*
X156266056Y-52334389D01*
X156219229Y-52297943D01*
X156000614Y-52179635D01*
X156000603Y-52179630D01*
X155765493Y-52098916D01*
X155520293Y-52058000D01*
X155271707Y-52058000D01*
X155026506Y-52098916D01*
X154791396Y-52179630D01*
X154791390Y-52179632D01*
X154572761Y-52297949D01*
X154525942Y-52334388D01*
X154525942Y-52334390D01*
X155225765Y-53034212D01*
X155183708Y-53045482D01*
X155058292Y-53117890D01*
X154955890Y-53220292D01*
X154883482Y-53345708D01*
X154872212Y-53387764D01*
X154172564Y-52688116D01*
X154072267Y-52841632D01*
X153972412Y-53069282D01*
X153911387Y-53310261D01*
X153911385Y-53310270D01*
X153890859Y-53557994D01*
X150401141Y-53557994D01*
X150380614Y-53310270D01*
X150380612Y-53310261D01*
X150319587Y-53069282D01*
X150219731Y-52841630D01*
X150119434Y-52688116D01*
X149419787Y-53387764D01*
X149408518Y-53345708D01*
X149336110Y-53220292D01*
X149233708Y-53117890D01*
X149108292Y-53045482D01*
X149066235Y-53034212D01*
X149766057Y-52334390D01*
X149766056Y-52334389D01*
X149719229Y-52297943D01*
X149500614Y-52179635D01*
X149500603Y-52179630D01*
X149265493Y-52098916D01*
X149020293Y-52058000D01*
X148771707Y-52058000D01*
X148526506Y-52098916D01*
X148291396Y-52179630D01*
X148291390Y-52179632D01*
X148072761Y-52297949D01*
X148025942Y-52334388D01*
X148025942Y-52334390D01*
X148725765Y-53034212D01*
X148683708Y-53045482D01*
X148558292Y-53117890D01*
X148455890Y-53220292D01*
X148383482Y-53345708D01*
X148372212Y-53387764D01*
X147672564Y-52688116D01*
X147572267Y-52841632D01*
X147472412Y-53069282D01*
X147411387Y-53310261D01*
X147411385Y-53310270D01*
X147390859Y-53557994D01*
X127547770Y-53557994D01*
X130810945Y-50294819D01*
X130872268Y-50261334D01*
X130898626Y-50258500D01*
X147641065Y-50258500D01*
X147708104Y-50278185D01*
X147725403Y-50291599D01*
X147832783Y-50391232D01*
X148043366Y-50534805D01*
X148043371Y-50534807D01*
X148043372Y-50534808D01*
X148043373Y-50534809D01*
X148165328Y-50593538D01*
X148272992Y-50645387D01*
X148272993Y-50645387D01*
X148272996Y-50645389D01*
X148516542Y-50720513D01*
X148768565Y-50758500D01*
X149023435Y-50758500D01*
X149275458Y-50720513D01*
X149519004Y-50645389D01*
X149748634Y-50534805D01*
X149959217Y-50391232D01*
X150146050Y-50217877D01*
X150304959Y-50018612D01*
X150432393Y-49797888D01*
X150525508Y-49560637D01*
X150582222Y-49312157D01*
X150601268Y-49058000D01*
X150582222Y-48803843D01*
X150525508Y-48555363D01*
X150432393Y-48318112D01*
X150304959Y-48097388D01*
X150146050Y-47898123D01*
X149959217Y-47724768D01*
X149959214Y-47724766D01*
X149959211Y-47724763D01*
X149955587Y-47721873D01*
X149956905Y-47720219D01*
X149918129Y-47672945D01*
X149910058Y-47603543D01*
X149940789Y-47540795D01*
X150000567Y-47504622D01*
X150032274Y-47500500D01*
X154259726Y-47500500D01*
X154326765Y-47520185D01*
G37*
%TD.AperFunction*%
%TA.AperFunction,Conductor*%
G36*
X147826765Y-47520185D02*
G01*
X147872520Y-47572989D01*
X147882464Y-47642147D01*
X147853439Y-47705703D01*
X147835942Y-47721282D01*
X147836413Y-47721873D01*
X147832787Y-47724764D01*
X147725406Y-47824399D01*
X147662874Y-47855567D01*
X147641065Y-47857500D01*
X130255514Y-47857500D01*
X130068881Y-47887059D01*
X129889163Y-47945454D01*
X129720800Y-48031240D01*
X129567923Y-48142312D01*
X122020312Y-55689923D01*
X121909240Y-55842800D01*
X121838024Y-55982569D01*
X121790049Y-56033365D01*
X121722228Y-56050160D01*
X121656093Y-56027622D01*
X121651377Y-56024127D01*
X121525237Y-55925948D01*
X121525228Y-55925942D01*
X121306614Y-55807635D01*
X121306603Y-55807630D01*
X121071493Y-55726916D01*
X120826293Y-55686000D01*
X120577707Y-55686000D01*
X120332506Y-55726916D01*
X120097396Y-55807630D01*
X120097390Y-55807632D01*
X119878761Y-55925949D01*
X119831942Y-55962388D01*
X119831942Y-55962390D01*
X120531765Y-56662212D01*
X120489708Y-56673482D01*
X120364292Y-56745890D01*
X120261890Y-56848292D01*
X120189482Y-56973708D01*
X120178212Y-57015764D01*
X119478564Y-56316116D01*
X119378267Y-56469632D01*
X119278412Y-56697282D01*
X119217387Y-56938261D01*
X119217385Y-56938270D01*
X119196859Y-57185994D01*
X119196859Y-57186005D01*
X119217385Y-57433729D01*
X119217387Y-57433738D01*
X119278412Y-57674717D01*
X119378266Y-57902364D01*
X119478564Y-58055882D01*
X120178212Y-57356234D01*
X120189482Y-57398292D01*
X120261890Y-57523708D01*
X120364292Y-57626110D01*
X120489708Y-57698518D01*
X120531763Y-57709787D01*
X119831942Y-58409609D01*
X119878768Y-58446055D01*
X119878770Y-58446056D01*
X120097385Y-58564364D01*
X120097396Y-58564369D01*
X120332506Y-58645083D01*
X120577707Y-58686000D01*
X120826293Y-58686000D01*
X121071493Y-58645083D01*
X121306603Y-58564369D01*
X121306614Y-58564364D01*
X121525227Y-58446057D01*
X121535334Y-58438191D01*
X121600327Y-58412546D01*
X121668868Y-58426110D01*
X121719194Y-58474577D01*
X121735500Y-58536042D01*
X121735500Y-60098950D01*
X121715815Y-60165989D01*
X121663011Y-60211744D01*
X121593853Y-60221688D01*
X121557699Y-60210670D01*
X121325006Y-60098612D01*
X121325008Y-60098612D01*
X121081466Y-60023489D01*
X121081462Y-60023488D01*
X121081458Y-60023487D01*
X120960231Y-60005214D01*
X120829440Y-59985500D01*
X120829435Y-59985500D01*
X120574565Y-59985500D01*
X120574559Y-59985500D01*
X120417609Y-60009157D01*
X120322542Y-60023487D01*
X120322539Y-60023488D01*
X120322533Y-60023489D01*
X120078992Y-60098612D01*
X119849373Y-60209190D01*
X119849372Y-60209191D01*
X119638782Y-60352768D01*
X119451952Y-60526121D01*
X119451950Y-60526123D01*
X119293041Y-60725388D01*
X119165608Y-60946109D01*
X119072492Y-61183362D01*
X119072490Y-61183369D01*
X119015777Y-61431845D01*
X118999562Y-61648230D01*
X118974923Y-61713611D01*
X118963590Y-61726645D01*
X117712181Y-62978054D01*
X117650858Y-63011539D01*
X117581166Y-63006555D01*
X117525233Y-62964683D01*
X117500816Y-62899219D01*
X117500500Y-62890373D01*
X117500500Y-50184384D01*
X117520185Y-50117345D01*
X117572989Y-50071590D01*
X117642147Y-50061646D01*
X117705703Y-50090671D01*
X117731885Y-50122381D01*
X117838064Y-50306289D01*
X117838066Y-50306292D01*
X117838067Y-50306293D01*
X117985733Y-50498736D01*
X117985739Y-50498743D01*
X118157256Y-50670260D01*
X118157263Y-50670266D01*
X118270321Y-50757018D01*
X118349711Y-50817936D01*
X118559788Y-50939224D01*
X118783900Y-51032054D01*
X119018211Y-51094838D01*
X119198586Y-51118584D01*
X119258711Y-51126500D01*
X119258712Y-51126500D01*
X119501289Y-51126500D01*
X119549388Y-51120167D01*
X119741789Y-51094838D01*
X119976100Y-51032054D01*
X120200212Y-50939224D01*
X120410289Y-50817936D01*
X120602738Y-50670265D01*
X120774265Y-50498738D01*
X120921936Y-50306289D01*
X121043224Y-50096212D01*
X121136054Y-49872100D01*
X121198838Y-49637789D01*
X121230500Y-49397288D01*
X121230500Y-49154712D01*
X121198838Y-48914211D01*
X121136054Y-48679900D01*
X121043224Y-48455788D01*
X120921936Y-48245711D01*
X120774265Y-48053262D01*
X120774260Y-48053256D01*
X120602743Y-47881739D01*
X120602736Y-47881733D01*
X120410292Y-47734066D01*
X120410289Y-47734064D01*
X120406517Y-47731886D01*
X120358302Y-47681322D01*
X120345078Y-47612715D01*
X120371045Y-47547850D01*
X120427959Y-47507321D01*
X120468517Y-47500500D01*
X147759726Y-47500500D01*
X147826765Y-47520185D01*
G37*
%TD.AperFunction*%
%TD*%
M02*
