M48
; DRILL file {KiCad 8.0.2} date 2024-05-07T20:43:22+0100
; FORMAT={-:-/ absolute / metric / decimal}
; #@! TF.CreationDate,2024-05-07T20:43:22+01:00
; #@! TF.GenerationSoftware,Kicad,Pcbnew,8.0.2
; #@! TF.FileFunction,Plated,1,2,PTH
FMAT,2
METRIC
; #@! TA.AperFunction,Plated,PTH,ComponentDrill
T1C0.660
; #@! TA.AperFunction,Plated,PTH,ComponentDrill
T2C1.000
; #@! TA.AperFunction,Plated,PTH,ComponentDrill
T3C1.100
; #@! TA.AperFunction,Plated,PTH,ComponentDrill
T4C1.143
%
G90
G05
T2
X127.152Y-128.372
X127.152Y-143.612
X129.692Y-128.372
X129.692Y-143.612
X132.232Y-128.372
X132.232Y-143.612
X134.772Y-128.372
X134.772Y-143.612
X137.312Y-128.372
X137.312Y-143.612
X139.852Y-128.372
X139.852Y-143.612
X142.392Y-128.372
X142.392Y-143.612
X144.932Y-128.372
X144.932Y-143.612
X147.472Y-128.372
X147.472Y-143.612
X150.012Y-128.372
X150.012Y-143.612
X152.552Y-128.372
X152.552Y-143.612
X155.092Y-128.372
X155.092Y-143.612
X157.632Y-128.372
X157.632Y-143.612
X160.172Y-128.372
X160.172Y-143.612
X162.712Y-128.372
X162.712Y-143.612
T3
X129.595Y-97.862
X129.595Y-102.362
X131.881Y-49.15
X131.881Y-53.65
X136.095Y-97.862
X136.095Y-102.362
X138.381Y-49.15
X138.381Y-53.65
X138.739Y-87.956
X138.739Y-92.456
X138.739Y-107.768
X138.739Y-112.268
X145.239Y-87.956
X145.239Y-92.456
X145.239Y-107.768
X145.239Y-112.268
X147.121Y-97.862
X147.121Y-102.362
X153.621Y-97.862
X153.621Y-102.362
X160.072Y-56.424
X160.072Y-60.924
X166.572Y-56.424
X166.572Y-60.924
T4
X158.499Y-64.862
X158.499Y-67.402
X158.499Y-69.942
X158.499Y-72.482
X158.499Y-75.022
T1
G00X138.895Y-122.626
M15
G01X140.505Y-122.626
M16
G05
G00X151.775Y-122.626
M15
G01X153.385Y-122.626
M16
G05
M30
