%TF.GenerationSoftware,KiCad,Pcbnew,8.0.2*%
%TF.CreationDate,2024-05-08T14:27:53+01:00*%
%TF.ProjectId,Left_Controller_PCB_Bluetooth,4c656674-5f43-46f6-9e74-726f6c6c6572,V01*%
%TF.SameCoordinates,Original*%
%TF.FileFunction,Copper,L1,Top*%
%TF.FilePolarity,Positive*%
%FSLAX46Y46*%
G04 Gerber Fmt 4.6, Leading zero omitted, Abs format (unit mm)*
G04 Created by KiCad (PCBNEW 8.0.2) date 2024-05-08 14:27:53*
%MOMM*%
%LPD*%
G01*
G04 APERTURE LIST*
%ADD10C,0.300000*%
%TA.AperFunction,NonConductor*%
%ADD11C,0.300000*%
%TD*%
%TA.AperFunction,ComponentPad*%
%ADD12C,1.524000*%
%TD*%
%TA.AperFunction,ComponentPad*%
%ADD13C,2.000000*%
%TD*%
%TA.AperFunction,ComponentPad*%
%ADD14R,1.600000X1.600000*%
%TD*%
%TA.AperFunction,ComponentPad*%
%ADD15O,1.600000X1.600000*%
%TD*%
%TA.AperFunction,WasherPad*%
%ADD16C,2.300000*%
%TD*%
%TA.AperFunction,ComponentPad*%
%ADD17R,4.020000X2.410000*%
%TD*%
%TA.AperFunction,ComponentPad*%
%ADD18O,4.020000X2.410000*%
%TD*%
%TA.AperFunction,Conductor*%
%ADD19C,1.000000*%
%TD*%
G04 APERTURE END LIST*
D10*
D11*
X159852225Y-146382828D02*
X160352225Y-147882828D01*
X160352225Y-147882828D02*
X160852225Y-146382828D01*
X161637939Y-146382828D02*
X161780796Y-146382828D01*
X161780796Y-146382828D02*
X161923653Y-146454257D01*
X161923653Y-146454257D02*
X161995082Y-146525685D01*
X161995082Y-146525685D02*
X162066510Y-146668542D01*
X162066510Y-146668542D02*
X162137939Y-146954257D01*
X162137939Y-146954257D02*
X162137939Y-147311400D01*
X162137939Y-147311400D02*
X162066510Y-147597114D01*
X162066510Y-147597114D02*
X161995082Y-147739971D01*
X161995082Y-147739971D02*
X161923653Y-147811400D01*
X161923653Y-147811400D02*
X161780796Y-147882828D01*
X161780796Y-147882828D02*
X161637939Y-147882828D01*
X161637939Y-147882828D02*
X161495082Y-147811400D01*
X161495082Y-147811400D02*
X161423653Y-147739971D01*
X161423653Y-147739971D02*
X161352224Y-147597114D01*
X161352224Y-147597114D02*
X161280796Y-147311400D01*
X161280796Y-147311400D02*
X161280796Y-146954257D01*
X161280796Y-146954257D02*
X161352224Y-146668542D01*
X161352224Y-146668542D02*
X161423653Y-146525685D01*
X161423653Y-146525685D02*
X161495082Y-146454257D01*
X161495082Y-146454257D02*
X161637939Y-146382828D01*
X163566510Y-147882828D02*
X162709367Y-147882828D01*
X163137938Y-147882828D02*
X163137938Y-146382828D01*
X163137938Y-146382828D02*
X162995081Y-146597114D01*
X162995081Y-146597114D02*
X162852224Y-146739971D01*
X162852224Y-146739971D02*
X162709367Y-146811400D01*
D12*
%TO.P,JoystickL1,1,GND*%
%TO.N,GND*%
X158498800Y-75021932D03*
%TO.P,JoystickL1,2,+5V*%
%TO.N,+3.3V*%
X158498800Y-72481932D03*
%TO.P,JoystickL1,3,VRX*%
%TO.N,/Analog_X_L*%
X158498800Y-69941932D03*
%TO.P,JoystickL1,4,VRY*%
%TO.N,/Analog_Y_L*%
X158498800Y-67401932D03*
%TO.P,JoystickL1,5,SW*%
%TO.N,/SEL_JOY_L*%
X158498800Y-64861932D03*
%TD*%
D13*
%TO.P,SEL_L1,1,1*%
%TO.N,/SEL_L*%
X166572000Y-60924000D03*
X160072000Y-60924000D03*
%TO.P,SEL_L1,2,2*%
%TO.N,GND*%
X166572000Y-56424000D03*
X160072000Y-56424000D03*
%TD*%
%TO.P,DOWN1,1,1*%
%TO.N,/DOWN*%
X138738800Y-107768000D03*
X145238800Y-107768000D03*
%TO.P,DOWN1,2,2*%
%TO.N,GND*%
X138738800Y-112268000D03*
X145238800Y-112268000D03*
%TD*%
%TO.P,LEFT1,1,1*%
%TO.N,GND*%
X129594800Y-97862000D03*
X136094800Y-97862000D03*
%TO.P,LEFT1,2,2*%
%TO.N,/LEFT*%
X129594800Y-102362000D03*
X136094800Y-102362000D03*
%TD*%
%TO.P,LEFT_SHOULDER1,1,1*%
%TO.N,/LEFT_SHOULDER*%
X138380800Y-53649932D03*
X131880800Y-53649932D03*
%TO.P,LEFT_SHOULDER1,2,2*%
%TO.N,GND*%
X138380800Y-49149932D03*
X131880800Y-49149932D03*
%TD*%
%TO.P,RIGHT1,1,1*%
%TO.N,/RIGHT*%
X147120800Y-97862000D03*
X153620800Y-97862000D03*
%TO.P,RIGHT1,2,2*%
%TO.N,GND*%
X147120800Y-102362000D03*
X153620800Y-102362000D03*
%TD*%
%TO.P,UP1,1,1*%
%TO.N,/UP*%
X138738800Y-87956000D03*
X145238800Y-87956000D03*
%TO.P,UP1,2,2*%
%TO.N,GND*%
X138738800Y-92456000D03*
X145238800Y-92456000D03*
%TD*%
D14*
%TO.P,CentralBoard1,1,D1/TX*%
%TO.N,unconnected-(CentralBoard1-D1{slash}TX-Pad1)*%
X162712400Y-143611600D03*
D15*
%TO.P,CentralBoard1,2,D0/RX*%
%TO.N,unconnected-(CentralBoard1-D0{slash}RX-Pad2)*%
X160172400Y-143611600D03*
%TO.P,CentralBoard1,3,~{RESET}*%
%TO.N,unconnected-(CentralBoard1-~{RESET}-Pad3)*%
X157632400Y-143611600D03*
%TO.P,CentralBoard1,4,GND*%
%TO.N,GND*%
X155092400Y-143611600D03*
%TO.P,CentralBoard1,5,D2*%
%TO.N,unconnected-(CentralBoard1-D2-Pad5)*%
X152552400Y-143611600D03*
%TO.P,CentralBoard1,6,D3*%
%TO.N,unconnected-(CentralBoard1-D3-Pad6)*%
X150012400Y-143611600D03*
%TO.P,CentralBoard1,7,D4*%
%TO.N,unconnected-(CentralBoard1-D4-Pad7)*%
X147472400Y-143611600D03*
%TO.P,CentralBoard1,8,D5*%
%TO.N,unconnected-(CentralBoard1-D5-Pad8)*%
X144932400Y-143611600D03*
%TO.P,CentralBoard1,9,D6*%
%TO.N,/SEL_L*%
X142392400Y-143611600D03*
%TO.P,CentralBoard1,10,D7*%
%TO.N,/SEL_JOY_L*%
X139852400Y-143611600D03*
%TO.P,CentralBoard1,11,D8*%
%TO.N,unconnected-(CentralBoard1-D8-Pad11)*%
X137312400Y-143611600D03*
%TO.P,CentralBoard1,12,D9*%
%TO.N,/DOWN*%
X134772400Y-143611600D03*
%TO.P,CentralBoard1,13,D10*%
%TO.N,/RIGHT*%
X132232400Y-143611600D03*
%TO.P,CentralBoard1,14,D11*%
%TO.N,/LEFT*%
X129692400Y-143611600D03*
%TO.P,CentralBoard1,15,D12*%
%TO.N,/UP*%
X127152400Y-143611600D03*
%TO.P,CentralBoard1,16,D13*%
%TO.N,/LEFT_SHOULDER*%
X127152400Y-128371600D03*
%TO.P,CentralBoard1,17,3V3*%
%TO.N,+3.3V*%
X129692400Y-128371600D03*
%TO.P,CentralBoard1,18,AREF*%
%TO.N,unconnected-(CentralBoard1-AREF-Pad18)*%
X132232400Y-128371600D03*
%TO.P,CentralBoard1,19,A0*%
%TO.N,/Analog_X_L*%
X134772400Y-128371600D03*
%TO.P,CentralBoard1,20,A1*%
%TO.N,/Analog_Y_L*%
X137312400Y-128371600D03*
%TO.P,CentralBoard1,21,A2*%
%TO.N,unconnected-(CentralBoard1-A2-Pad21)*%
X139852400Y-128371600D03*
%TO.P,CentralBoard1,22,A3*%
%TO.N,unconnected-(CentralBoard1-A3-Pad22)*%
X142392400Y-128371600D03*
%TO.P,CentralBoard1,23,A4*%
%TO.N,unconnected-(CentralBoard1-A4-Pad23)*%
X144932400Y-128371600D03*
%TO.P,CentralBoard1,24,A5*%
%TO.N,unconnected-(CentralBoard1-A5-Pad24)*%
X147472400Y-128371600D03*
%TO.P,CentralBoard1,25,A6*%
%TO.N,unconnected-(CentralBoard1-A6-Pad25)*%
X150012400Y-128371600D03*
%TO.P,CentralBoard1,26,A7*%
%TO.N,unconnected-(CentralBoard1-A7-Pad26)*%
X152552400Y-128371600D03*
%TO.P,CentralBoard1,27,+5V*%
%TO.N,unconnected-(CentralBoard1-+5V-Pad27)*%
X155092400Y-128371600D03*
%TO.P,CentralBoard1,28,~{RESET}*%
%TO.N,unconnected-(CentralBoard1-~{RESET}-Pad28)*%
X157632400Y-128371600D03*
%TO.P,CentralBoard1,29,GND*%
%TO.N,GND*%
X160172400Y-128371600D03*
%TO.P,CentralBoard1,30,VIN*%
%TO.N,+9V*%
X162712400Y-128371600D03*
%TD*%
D16*
%TO.P,BAT9V1,*%
%TO.N,*%
X134960000Y-110336068D03*
X157310000Y-96846068D03*
X134960000Y-83366068D03*
D17*
%TO.P,BAT9V1,1,+*%
%TO.N,+9V*%
X152580000Y-122626068D03*
D18*
%TO.P,BAT9V1,2,-*%
%TO.N,GND*%
X139700000Y-122626068D03*
%TD*%
D19*
%TO.N,+9V*%
X162712400Y-127240230D02*
X162712400Y-128371600D01*
X152580000Y-122626068D02*
X158098238Y-122626068D01*
X158098238Y-122626068D02*
X162712400Y-127240230D01*
%TO.N,GND*%
X148844000Y-102362000D02*
X147120800Y-102362000D01*
X126644400Y-147980400D02*
X118008400Y-139344400D01*
X150368000Y-100838000D02*
X148844000Y-102362000D01*
X148336000Y-92456000D02*
X150368000Y-94488000D01*
X150368000Y-107138800D02*
X150368000Y-103886000D01*
X158498800Y-75021932D02*
X157228800Y-75021932D01*
X136094800Y-95100000D02*
X138738800Y-92456000D01*
X118008400Y-103987600D02*
X122176800Y-99819200D01*
X157228800Y-75021932D02*
X156210000Y-74003132D01*
X155092400Y-143900028D02*
X151012028Y-147980400D01*
X158073228Y-125984000D02*
X160172400Y-128083172D01*
X157099932Y-49149932D02*
X138380800Y-49149932D01*
X156718000Y-56388000D02*
X160036000Y-56388000D01*
X139700000Y-122626068D02*
X143057932Y-125984000D01*
X156210000Y-74003132D02*
X156210000Y-56896000D01*
X156210000Y-56896000D02*
X156718000Y-56388000D01*
X150368000Y-103886000D02*
X148844000Y-102362000D01*
X124134000Y-97862000D02*
X122176800Y-99819200D01*
X145238800Y-92456000D02*
X148336000Y-92456000D01*
X160036000Y-56388000D02*
X160072000Y-56424000D01*
X145238800Y-112268000D02*
X150368000Y-107138800D01*
X151012028Y-147980400D02*
X126644400Y-147980400D01*
X118008400Y-139344400D02*
X118008400Y-103987600D01*
X155092400Y-143611600D02*
X155092400Y-143900028D01*
X143057932Y-125984000D02*
X158073228Y-125984000D01*
X160072000Y-52122000D02*
X157099932Y-49149932D01*
X150368000Y-94488000D02*
X150368000Y-100838000D01*
X122176800Y-58853932D02*
X131880800Y-49149932D01*
X160172400Y-128083172D02*
X160172400Y-128371600D01*
X136094800Y-97862000D02*
X136094800Y-95100000D01*
X122176800Y-99819200D02*
X122176800Y-58853932D01*
X160072000Y-56424000D02*
X160072000Y-52122000D01*
X129594800Y-97862000D02*
X124134000Y-97862000D01*
%TO.N,/LEFT_SHOULDER*%
X127152400Y-119848005D02*
X127152400Y-128371600D01*
X154180800Y-54447932D02*
X154180800Y-86197932D01*
X153409132Y-116179600D02*
X130820805Y-116179600D01*
X130820805Y-116179600D02*
X127152400Y-119848005D01*
X159768800Y-91785932D02*
X159768800Y-109819932D01*
X154180800Y-86197932D02*
X159768800Y-91785932D01*
X153382800Y-53649932D02*
X154180800Y-54447932D01*
X138380800Y-53649932D02*
X153382800Y-53649932D01*
X127203200Y-128320800D02*
X127152400Y-128371600D01*
X159768800Y-109819932D02*
X153409132Y-116179600D01*
%TO.N,/UP*%
X124882000Y-100162000D02*
X130406070Y-100162000D01*
X134366000Y-96202070D02*
X134366000Y-92328800D01*
X119708400Y-136167600D02*
X119708400Y-105335600D01*
X119708400Y-105335600D02*
X124882000Y-100162000D01*
X127152400Y-143611600D02*
X119708400Y-136167600D01*
X134366000Y-92328800D02*
X138738800Y-87956000D01*
X130406070Y-100162000D02*
X134366000Y-96202070D01*
%TO.N,/Analog_X_L*%
X134772400Y-119579600D02*
X134772400Y-128371600D01*
X155343132Y-119579600D02*
X134772400Y-119579600D01*
X158498800Y-69941932D02*
X158264112Y-69941932D01*
X158498800Y-69941932D02*
X159006800Y-69941932D01*
X163324800Y-74259932D02*
X163324800Y-111597932D01*
X159006800Y-69941932D02*
X163324800Y-74259932D01*
X163324800Y-111597932D02*
X155343132Y-119579600D01*
%TO.N,/Analog_Y_L*%
X165102800Y-72928302D02*
X165102800Y-132842000D01*
X137312400Y-128660028D02*
X137312400Y-128371600D01*
X158498800Y-67401932D02*
X159576430Y-67401932D01*
X165102800Y-132842000D02*
X141494372Y-132842000D01*
X159576430Y-67401932D02*
X165102800Y-72928302D01*
X141494372Y-132842000D02*
X137312400Y-128660028D01*
%TO.N,/LEFT*%
X121408400Y-135039172D02*
X121408400Y-110548400D01*
X129692400Y-143323172D02*
X121408400Y-135039172D01*
X129692400Y-143611600D02*
X129692400Y-143323172D01*
X121408400Y-110548400D02*
X129594800Y-102362000D01*
%TO.N,/DOWN*%
X124815600Y-115722400D02*
X124815600Y-131724400D01*
X132770000Y-107768000D02*
X124815600Y-115722400D01*
X138738800Y-107768000D02*
X132770000Y-107768000D01*
X124815600Y-131724400D02*
X134772400Y-141681200D01*
X134772400Y-141681200D02*
X134772400Y-143611600D01*
%TO.N,/RIGHT*%
X132232400Y-142348489D02*
X123108400Y-133224489D01*
X123108400Y-115025437D02*
X132723837Y-105410000D01*
X132723837Y-105410000D02*
X139572800Y-105410000D01*
X123108400Y-133224489D02*
X123108400Y-115025437D01*
X139572800Y-105410000D02*
X147120800Y-97862000D01*
X132232400Y-143611600D02*
X132232400Y-142348489D01*
%TO.N,/SEL_JOY_L*%
X139852400Y-139039600D02*
X139852400Y-143611600D01*
X159440594Y-64861932D02*
X167222800Y-72644138D01*
X167222800Y-136235932D02*
X142656068Y-136235932D01*
X167222800Y-72644138D02*
X167222800Y-136235932D01*
X158498800Y-64861932D02*
X159440594Y-64861932D01*
X142656068Y-136235932D02*
X139852400Y-139039600D01*
%TO.N,+3.3V*%
X154113296Y-117879600D02*
X132767600Y-117879600D01*
X161468800Y-110524096D02*
X154113296Y-117879600D01*
X158498800Y-72481932D02*
X158733488Y-72481932D01*
X132767600Y-117879600D02*
X129692400Y-120954800D01*
X161468800Y-75217244D02*
X161468800Y-110524096D01*
X158733488Y-72481932D02*
X161468800Y-75217244D01*
X129692400Y-120954800D02*
X129692400Y-128371600D01*
%TO.N,/SEL_L*%
X169000000Y-137812298D02*
X168808366Y-138003932D01*
X169000000Y-63352000D02*
X169000000Y-137812298D01*
X166572000Y-60924000D02*
X169000000Y-63352000D01*
X168808366Y-138003932D02*
X147711640Y-138003932D01*
X142392400Y-143323172D02*
X142392400Y-143611600D01*
X147711640Y-138003932D02*
X142392400Y-143323172D01*
%TD*%
%TA.AperFunction,Conductor*%
%TO.N,GND*%
G36*
X131389722Y-47520185D02*
G01*
X131435477Y-47572989D01*
X131445421Y-47642147D01*
X131416396Y-47705703D01*
X131362946Y-47741781D01*
X131276196Y-47771562D01*
X131276190Y-47771564D01*
X131057561Y-47889881D01*
X131010742Y-47926320D01*
X131010742Y-47926322D01*
X131710565Y-48626144D01*
X131668508Y-48637414D01*
X131543092Y-48709822D01*
X131440690Y-48812224D01*
X131368282Y-48937640D01*
X131357012Y-48979696D01*
X130657364Y-48280048D01*
X130557067Y-48433564D01*
X130457212Y-48661214D01*
X130396187Y-48902193D01*
X130396185Y-48902202D01*
X130375659Y-49149926D01*
X130375659Y-49149937D01*
X130396185Y-49397661D01*
X130396187Y-49397670D01*
X130457212Y-49638649D01*
X130557066Y-49866296D01*
X130657364Y-50019814D01*
X131357012Y-49320166D01*
X131368282Y-49362224D01*
X131440690Y-49487640D01*
X131543092Y-49590042D01*
X131668508Y-49662450D01*
X131710565Y-49673719D01*
X131010742Y-50373541D01*
X131057568Y-50409987D01*
X131057570Y-50409988D01*
X131276185Y-50528296D01*
X131276196Y-50528301D01*
X131511306Y-50609015D01*
X131756507Y-50649932D01*
X132005093Y-50649932D01*
X132250293Y-50609015D01*
X132485403Y-50528301D01*
X132485414Y-50528296D01*
X132704028Y-50409989D01*
X132704031Y-50409987D01*
X132750856Y-50373541D01*
X132051034Y-49673719D01*
X132093092Y-49662450D01*
X132218508Y-49590042D01*
X132320910Y-49487640D01*
X132393318Y-49362224D01*
X132404587Y-49320167D01*
X133104234Y-50019814D01*
X133204531Y-49866301D01*
X133304387Y-49638649D01*
X133365412Y-49397670D01*
X133365414Y-49397661D01*
X133385941Y-49149937D01*
X133385941Y-49149926D01*
X133365414Y-48902202D01*
X133365412Y-48902193D01*
X133304387Y-48661214D01*
X133204531Y-48433562D01*
X133104234Y-48280048D01*
X132404587Y-48979696D01*
X132393318Y-48937640D01*
X132320910Y-48812224D01*
X132218508Y-48709822D01*
X132093092Y-48637414D01*
X132051035Y-48626144D01*
X132750857Y-47926322D01*
X132750856Y-47926321D01*
X132704029Y-47889875D01*
X132485414Y-47771567D01*
X132485403Y-47771562D01*
X132398654Y-47741781D01*
X132341639Y-47701395D01*
X132315508Y-47636596D01*
X132328560Y-47567956D01*
X132376648Y-47517268D01*
X132438917Y-47500500D01*
X137822683Y-47500500D01*
X137889722Y-47520185D01*
X137935477Y-47572989D01*
X137945421Y-47642147D01*
X137916396Y-47705703D01*
X137862946Y-47741781D01*
X137776196Y-47771562D01*
X137776190Y-47771564D01*
X137557561Y-47889881D01*
X137510742Y-47926320D01*
X137510742Y-47926322D01*
X138210565Y-48626144D01*
X138168508Y-48637414D01*
X138043092Y-48709822D01*
X137940690Y-48812224D01*
X137868282Y-48937640D01*
X137857012Y-48979696D01*
X137157364Y-48280048D01*
X137057067Y-48433564D01*
X136957212Y-48661214D01*
X136896187Y-48902193D01*
X136896185Y-48902202D01*
X136875659Y-49149926D01*
X136875659Y-49149937D01*
X136896185Y-49397661D01*
X136896187Y-49397670D01*
X136957212Y-49638649D01*
X137057066Y-49866296D01*
X137157364Y-50019814D01*
X137857012Y-49320166D01*
X137868282Y-49362224D01*
X137940690Y-49487640D01*
X138043092Y-49590042D01*
X138168508Y-49662450D01*
X138210565Y-49673719D01*
X137510742Y-50373541D01*
X137557568Y-50409987D01*
X137557570Y-50409988D01*
X137776185Y-50528296D01*
X137776196Y-50528301D01*
X138011306Y-50609015D01*
X138256507Y-50649932D01*
X138505093Y-50649932D01*
X138750293Y-50609015D01*
X138985403Y-50528301D01*
X138985414Y-50528296D01*
X139204028Y-50409989D01*
X139204031Y-50409987D01*
X139250856Y-50373541D01*
X138551034Y-49673719D01*
X138593092Y-49662450D01*
X138718508Y-49590042D01*
X138820910Y-49487640D01*
X138893318Y-49362224D01*
X138904587Y-49320167D01*
X139604234Y-50019814D01*
X139704531Y-49866301D01*
X139804387Y-49638649D01*
X139865412Y-49397670D01*
X139865414Y-49397661D01*
X139885941Y-49149937D01*
X139885941Y-49149926D01*
X139865414Y-48902202D01*
X139865412Y-48902193D01*
X139804387Y-48661214D01*
X139704531Y-48433562D01*
X139604234Y-48280048D01*
X138904587Y-48979696D01*
X138893318Y-48937640D01*
X138820910Y-48812224D01*
X138718508Y-48709822D01*
X138593092Y-48637414D01*
X138551035Y-48626144D01*
X139250857Y-47926322D01*
X139250856Y-47926321D01*
X139204029Y-47889875D01*
X138985414Y-47771567D01*
X138985403Y-47771562D01*
X138898654Y-47741781D01*
X138841639Y-47701395D01*
X138815508Y-47636596D01*
X138828560Y-47567956D01*
X138876648Y-47517268D01*
X138938917Y-47500500D01*
X166551483Y-47500500D01*
X166618522Y-47520185D01*
X166664277Y-47572989D01*
X166674221Y-47642147D01*
X166645196Y-47705703D01*
X166613483Y-47731885D01*
X166610976Y-47733333D01*
X166609707Y-47734066D01*
X166417263Y-47881733D01*
X166417256Y-47881739D01*
X166245739Y-48053256D01*
X166245733Y-48053263D01*
X166098067Y-48245706D01*
X165976777Y-48455785D01*
X165976773Y-48455794D01*
X165883947Y-48679895D01*
X165821161Y-48914214D01*
X165789500Y-49154711D01*
X165789500Y-49154712D01*
X165789500Y-49397288D01*
X165821162Y-49637789D01*
X165827770Y-49662450D01*
X165883947Y-49872104D01*
X165945131Y-50019814D01*
X165976776Y-50096212D01*
X166098064Y-50306289D01*
X166098066Y-50306292D01*
X166098067Y-50306293D01*
X166245733Y-50498736D01*
X166245739Y-50498743D01*
X166417256Y-50670260D01*
X166417262Y-50670265D01*
X166609711Y-50817936D01*
X166819788Y-50939224D01*
X167043900Y-51032054D01*
X167278211Y-51094838D01*
X167458586Y-51118584D01*
X167518711Y-51126500D01*
X167518712Y-51126500D01*
X167761289Y-51126500D01*
X167809388Y-51120167D01*
X168001789Y-51094838D01*
X168236100Y-51032054D01*
X168460212Y-50939224D01*
X168670289Y-50817936D01*
X168862738Y-50670265D01*
X169034265Y-50498738D01*
X169181936Y-50306289D01*
X169268114Y-50157023D01*
X169318680Y-50108809D01*
X169387287Y-50095586D01*
X169452152Y-50121554D01*
X169492680Y-50178469D01*
X169499500Y-50219025D01*
X169499500Y-61854374D01*
X169479815Y-61921413D01*
X169427011Y-61967168D01*
X169357853Y-61977112D01*
X169294297Y-61948087D01*
X169287819Y-61942055D01*
X168310409Y-60964646D01*
X168276924Y-60903323D01*
X168274438Y-60886240D01*
X168258222Y-60669843D01*
X168201508Y-60421363D01*
X168108393Y-60184112D01*
X167980959Y-59963388D01*
X167822050Y-59764123D01*
X167635217Y-59590768D01*
X167424634Y-59447195D01*
X167424630Y-59447193D01*
X167424627Y-59447191D01*
X167424626Y-59447190D01*
X167195006Y-59336612D01*
X167195008Y-59336612D01*
X166951466Y-59261489D01*
X166951462Y-59261488D01*
X166951458Y-59261487D01*
X166830231Y-59243214D01*
X166699440Y-59223500D01*
X166699435Y-59223500D01*
X166444565Y-59223500D01*
X166444559Y-59223500D01*
X166287609Y-59247157D01*
X166192542Y-59261487D01*
X166192539Y-59261488D01*
X166192533Y-59261489D01*
X165948992Y-59336612D01*
X165719373Y-59447190D01*
X165719372Y-59447191D01*
X165508782Y-59590768D01*
X165321952Y-59764121D01*
X165321950Y-59764123D01*
X165163041Y-59963388D01*
X165035608Y-60184109D01*
X164942492Y-60421362D01*
X164942490Y-60421369D01*
X164885777Y-60669845D01*
X164866732Y-60923995D01*
X164866732Y-60924004D01*
X164885777Y-61178154D01*
X164938840Y-61410640D01*
X164942492Y-61426637D01*
X165035607Y-61663888D01*
X165163041Y-61884612D01*
X165321950Y-62083877D01*
X165508783Y-62257232D01*
X165719366Y-62400805D01*
X165719371Y-62400807D01*
X165719372Y-62400808D01*
X165719373Y-62400809D01*
X165841328Y-62459538D01*
X165948992Y-62511387D01*
X165948993Y-62511387D01*
X165948996Y-62511389D01*
X166192542Y-62586513D01*
X166444565Y-62624500D01*
X166523374Y-62624500D01*
X166590413Y-62644185D01*
X166611055Y-62660819D01*
X167763181Y-63812944D01*
X167796666Y-63874267D01*
X167799500Y-63900625D01*
X167799500Y-71223712D01*
X167779815Y-71290751D01*
X167727011Y-71336506D01*
X167657853Y-71346450D01*
X167594297Y-71317425D01*
X167587819Y-71311393D01*
X160222670Y-63946244D01*
X160222668Y-63946242D01*
X160069793Y-63835172D01*
X160026168Y-63812944D01*
X159901430Y-63749386D01*
X159721712Y-63690991D01*
X159535080Y-63661432D01*
X159535075Y-63661432D01*
X159380063Y-63661432D01*
X159313024Y-63641747D01*
X159303903Y-63635287D01*
X159301454Y-63633381D01*
X159301447Y-63633376D01*
X159088299Y-63518027D01*
X159088296Y-63518026D01*
X159088293Y-63518024D01*
X159088287Y-63518022D01*
X159088285Y-63518021D01*
X158859056Y-63439325D01*
X158679752Y-63409405D01*
X158619986Y-63399432D01*
X158377614Y-63399432D01*
X158329800Y-63407410D01*
X158138543Y-63439325D01*
X157909314Y-63518021D01*
X157909300Y-63518027D01*
X157696149Y-63633378D01*
X157696138Y-63633385D01*
X157504887Y-63782242D01*
X157504884Y-63782245D01*
X157340724Y-63960569D01*
X157208161Y-64163473D01*
X157110801Y-64385433D01*
X157051303Y-64620383D01*
X157051301Y-64620395D01*
X157031288Y-64861926D01*
X157031288Y-64861937D01*
X157051301Y-65103468D01*
X157051303Y-65103480D01*
X157110801Y-65338430D01*
X157208161Y-65560390D01*
X157340724Y-65763294D01*
X157340727Y-65763297D01*
X157504881Y-65941616D01*
X157564627Y-65988118D01*
X157623677Y-66034079D01*
X157664490Y-66090789D01*
X157668164Y-66160562D01*
X157633532Y-66221245D01*
X157623677Y-66229785D01*
X157504883Y-66322246D01*
X157340724Y-66500569D01*
X157208161Y-66703473D01*
X157110801Y-66925433D01*
X157051303Y-67160383D01*
X157051301Y-67160395D01*
X157031288Y-67401926D01*
X157031288Y-67401937D01*
X157051301Y-67643468D01*
X157051303Y-67643480D01*
X157110801Y-67878430D01*
X157208161Y-68100390D01*
X157340724Y-68303294D01*
X157340727Y-68303297D01*
X157504881Y-68481616D01*
X157564627Y-68528118D01*
X157623677Y-68574079D01*
X157664490Y-68630789D01*
X157668164Y-68700562D01*
X157633532Y-68761245D01*
X157623677Y-68769785D01*
X157504883Y-68862246D01*
X157340724Y-69040569D01*
X157208161Y-69243473D01*
X157110801Y-69465433D01*
X157051303Y-69700383D01*
X157051301Y-69700395D01*
X157031288Y-69941926D01*
X157031288Y-69941937D01*
X157051301Y-70183468D01*
X157051303Y-70183480D01*
X157110801Y-70418430D01*
X157208161Y-70640390D01*
X157340724Y-70843294D01*
X157340727Y-70843297D01*
X157504881Y-71021616D01*
X157564627Y-71068118D01*
X157623677Y-71114079D01*
X157664490Y-71170789D01*
X157668164Y-71240562D01*
X157633532Y-71301245D01*
X157623677Y-71309785D01*
X157504883Y-71402246D01*
X157340724Y-71580569D01*
X157208161Y-71783473D01*
X157110801Y-72005433D01*
X157051303Y-72240383D01*
X157051301Y-72240395D01*
X157031288Y-72481926D01*
X157031288Y-72481937D01*
X157051301Y-72723468D01*
X157051303Y-72723480D01*
X157110801Y-72958430D01*
X157208161Y-73180390D01*
X157340724Y-73383294D01*
X157340727Y-73383297D01*
X157504881Y-73561616D01*
X157504884Y-73561618D01*
X157504887Y-73561621D01*
X157696138Y-73710478D01*
X157696148Y-73710485D01*
X157744428Y-73736612D01*
X157787775Y-73760070D01*
X157837366Y-73809289D01*
X157852474Y-73877505D01*
X157828304Y-73943061D01*
X157800630Y-73969971D01*
X157800610Y-73970189D01*
X158311010Y-74480589D01*
X158278209Y-74489379D01*
X158147891Y-74564619D01*
X158041487Y-74671023D01*
X157966247Y-74801341D01*
X157957457Y-74834142D01*
X157447058Y-74323743D01*
X157401701Y-74388522D01*
X157308379Y-74588652D01*
X157308375Y-74588661D01*
X157251226Y-74801945D01*
X157251224Y-74801955D01*
X157231979Y-75021931D01*
X157231979Y-75021932D01*
X157251224Y-75241908D01*
X157251226Y-75241918D01*
X157308375Y-75455202D01*
X157308380Y-75455216D01*
X157401698Y-75655337D01*
X157401701Y-75655343D01*
X157447058Y-75720119D01*
X157447059Y-75720120D01*
X157957457Y-75209721D01*
X157966247Y-75242523D01*
X158041487Y-75372841D01*
X158147891Y-75479245D01*
X158278209Y-75554485D01*
X158311010Y-75563274D01*
X157800610Y-76073672D01*
X157865390Y-76119031D01*
X157865392Y-76119032D01*
X158065515Y-76212351D01*
X158065529Y-76212356D01*
X158278813Y-76269505D01*
X158278823Y-76269507D01*
X158498799Y-76288753D01*
X158498801Y-76288753D01*
X158718776Y-76269507D01*
X158718786Y-76269505D01*
X158932070Y-76212356D01*
X158932084Y-76212351D01*
X159132207Y-76119032D01*
X159132217Y-76119026D01*
X159196988Y-76073673D01*
X158686589Y-75563274D01*
X158719391Y-75554485D01*
X158849709Y-75479245D01*
X158956113Y-75372841D01*
X159031353Y-75242523D01*
X159040142Y-75209721D01*
X159550541Y-75720120D01*
X159595894Y-75655349D01*
X159595900Y-75655339D01*
X159689219Y-75455216D01*
X159689222Y-75455208D01*
X159701210Y-75410465D01*
X159737574Y-75350804D01*
X159800420Y-75320273D01*
X159869796Y-75328567D01*
X159908667Y-75354875D01*
X160231981Y-75678189D01*
X160265466Y-75739512D01*
X160268300Y-75765870D01*
X160268300Y-90288306D01*
X160248615Y-90355345D01*
X160195811Y-90401100D01*
X160126653Y-90411044D01*
X160063097Y-90382019D01*
X160056619Y-90375987D01*
X155417619Y-85736987D01*
X155384134Y-85675664D01*
X155381300Y-85649306D01*
X155381300Y-81551450D01*
X155400985Y-81484411D01*
X155414677Y-81466813D01*
X155504507Y-81370630D01*
X155513239Y-81361280D01*
X155678951Y-81126518D01*
X155811154Y-80871379D01*
X155907384Y-80600614D01*
X155965848Y-80319268D01*
X155985458Y-80032582D01*
X155965848Y-79745896D01*
X155907384Y-79464550D01*
X155811155Y-79193788D01*
X155811156Y-79193788D01*
X155678951Y-78938646D01*
X155513237Y-78703881D01*
X155414676Y-78598348D01*
X155383305Y-78535918D01*
X155381300Y-78513712D01*
X155381300Y-61380093D01*
X155400985Y-61313054D01*
X155414677Y-61295456D01*
X155503237Y-61200632D01*
X155503236Y-61200632D01*
X155503239Y-61200630D01*
X155668951Y-60965868D01*
X155690648Y-60923995D01*
X158366732Y-60923995D01*
X158366732Y-60924004D01*
X158385777Y-61178154D01*
X158438840Y-61410640D01*
X158442492Y-61426637D01*
X158535607Y-61663888D01*
X158663041Y-61884612D01*
X158821950Y-62083877D01*
X159008783Y-62257232D01*
X159219366Y-62400805D01*
X159219371Y-62400807D01*
X159219372Y-62400808D01*
X159219373Y-62400809D01*
X159341328Y-62459538D01*
X159448992Y-62511387D01*
X159448993Y-62511387D01*
X159448996Y-62511389D01*
X159692542Y-62586513D01*
X159944565Y-62624500D01*
X160199435Y-62624500D01*
X160451458Y-62586513D01*
X160695004Y-62511389D01*
X160924634Y-62400805D01*
X161135217Y-62257232D01*
X161322050Y-62083877D01*
X161480959Y-61884612D01*
X161608393Y-61663888D01*
X161701508Y-61426637D01*
X161758222Y-61178157D01*
X161766384Y-61069232D01*
X161777268Y-60924004D01*
X161777268Y-60923995D01*
X161758222Y-60669845D01*
X161705754Y-60439969D01*
X161701508Y-60421363D01*
X161608393Y-60184112D01*
X161480959Y-59963388D01*
X161322050Y-59764123D01*
X161135217Y-59590768D01*
X160924634Y-59447195D01*
X160924630Y-59447193D01*
X160924627Y-59447191D01*
X160924626Y-59447190D01*
X160695006Y-59336612D01*
X160695008Y-59336612D01*
X160451466Y-59261489D01*
X160451462Y-59261488D01*
X160451458Y-59261487D01*
X160330231Y-59243214D01*
X160199440Y-59223500D01*
X160199435Y-59223500D01*
X159944565Y-59223500D01*
X159944559Y-59223500D01*
X159787609Y-59247157D01*
X159692542Y-59261487D01*
X159692539Y-59261488D01*
X159692533Y-59261489D01*
X159448992Y-59336612D01*
X159219373Y-59447190D01*
X159219372Y-59447191D01*
X159008782Y-59590768D01*
X158821952Y-59764121D01*
X158821950Y-59764123D01*
X158663041Y-59963388D01*
X158535608Y-60184109D01*
X158442492Y-60421362D01*
X158442490Y-60421369D01*
X158385777Y-60669845D01*
X158366732Y-60923995D01*
X155690648Y-60923995D01*
X155801154Y-60710729D01*
X155897384Y-60439964D01*
X155955848Y-60158618D01*
X155975458Y-59871932D01*
X155955848Y-59585246D01*
X155897384Y-59303900D01*
X155882310Y-59261487D01*
X155801155Y-59033138D01*
X155801156Y-59033138D01*
X155668951Y-58777996D01*
X155503237Y-58543231D01*
X155414676Y-58448405D01*
X155383304Y-58385975D01*
X155381300Y-58363769D01*
X155381300Y-56423994D01*
X158566859Y-56423994D01*
X158566859Y-56424005D01*
X158587385Y-56671729D01*
X158587387Y-56671738D01*
X158648412Y-56912717D01*
X158748266Y-57140364D01*
X158848564Y-57293882D01*
X159548212Y-56594234D01*
X159559482Y-56636292D01*
X159631890Y-56761708D01*
X159734292Y-56864110D01*
X159859708Y-56936518D01*
X159901765Y-56947787D01*
X159201942Y-57647609D01*
X159248768Y-57684055D01*
X159248770Y-57684056D01*
X159467385Y-57802364D01*
X159467396Y-57802369D01*
X159702506Y-57883083D01*
X159947707Y-57924000D01*
X160196293Y-57924000D01*
X160441493Y-57883083D01*
X160676603Y-57802369D01*
X160676614Y-57802364D01*
X160895228Y-57684057D01*
X160895231Y-57684055D01*
X160942056Y-57647609D01*
X160242234Y-56947787D01*
X160284292Y-56936518D01*
X160409708Y-56864110D01*
X160512110Y-56761708D01*
X160584518Y-56636292D01*
X160595787Y-56594235D01*
X161295434Y-57293882D01*
X161395731Y-57140369D01*
X161495587Y-56912717D01*
X161556612Y-56671738D01*
X161556614Y-56671729D01*
X161577141Y-56424005D01*
X161577141Y-56423994D01*
X165066859Y-56423994D01*
X165066859Y-56424005D01*
X165087385Y-56671729D01*
X165087387Y-56671738D01*
X165148412Y-56912717D01*
X165248266Y-57140364D01*
X165348564Y-57293882D01*
X166048212Y-56594234D01*
X166059482Y-56636292D01*
X166131890Y-56761708D01*
X166234292Y-56864110D01*
X166359708Y-56936518D01*
X166401765Y-56947787D01*
X165701942Y-57647609D01*
X165748768Y-57684055D01*
X165748770Y-57684056D01*
X165967385Y-57802364D01*
X165967396Y-57802369D01*
X166202506Y-57883083D01*
X166447707Y-57924000D01*
X166696293Y-57924000D01*
X166941493Y-57883083D01*
X167176603Y-57802369D01*
X167176614Y-57802364D01*
X167395228Y-57684057D01*
X167395231Y-57684055D01*
X167442056Y-57647609D01*
X166742234Y-56947787D01*
X166784292Y-56936518D01*
X166909708Y-56864110D01*
X167012110Y-56761708D01*
X167084518Y-56636292D01*
X167095787Y-56594235D01*
X167795434Y-57293882D01*
X167895731Y-57140369D01*
X167995587Y-56912717D01*
X168056612Y-56671738D01*
X168056614Y-56671729D01*
X168077141Y-56424005D01*
X168077141Y-56423994D01*
X168056614Y-56176270D01*
X168056612Y-56176261D01*
X167995587Y-55935282D01*
X167895731Y-55707630D01*
X167795434Y-55554116D01*
X167095787Y-56253764D01*
X167084518Y-56211708D01*
X167012110Y-56086292D01*
X166909708Y-55983890D01*
X166784292Y-55911482D01*
X166742235Y-55900212D01*
X167442057Y-55200390D01*
X167442056Y-55200389D01*
X167395229Y-55163943D01*
X167176614Y-55045635D01*
X167176603Y-55045630D01*
X166941493Y-54964916D01*
X166696293Y-54924000D01*
X166447707Y-54924000D01*
X166202506Y-54964916D01*
X165967396Y-55045630D01*
X165967390Y-55045632D01*
X165748761Y-55163949D01*
X165701942Y-55200388D01*
X165701942Y-55200390D01*
X166401765Y-55900212D01*
X166359708Y-55911482D01*
X166234292Y-55983890D01*
X166131890Y-56086292D01*
X166059482Y-56211708D01*
X166048212Y-56253764D01*
X165348564Y-55554116D01*
X165248267Y-55707632D01*
X165148412Y-55935282D01*
X165087387Y-56176261D01*
X165087385Y-56176270D01*
X165066859Y-56423994D01*
X161577141Y-56423994D01*
X161556614Y-56176270D01*
X161556612Y-56176261D01*
X161495587Y-55935282D01*
X161395731Y-55707630D01*
X161295434Y-55554116D01*
X160595787Y-56253764D01*
X160584518Y-56211708D01*
X160512110Y-56086292D01*
X160409708Y-55983890D01*
X160284292Y-55911482D01*
X160242235Y-55900212D01*
X160942057Y-55200390D01*
X160942056Y-55200389D01*
X160895229Y-55163943D01*
X160676614Y-55045635D01*
X160676603Y-55045630D01*
X160441493Y-54964916D01*
X160196293Y-54924000D01*
X159947707Y-54924000D01*
X159702506Y-54964916D01*
X159467396Y-55045630D01*
X159467390Y-55045632D01*
X159248761Y-55163949D01*
X159201942Y-55200388D01*
X159201942Y-55200390D01*
X159901765Y-55900212D01*
X159859708Y-55911482D01*
X159734292Y-55983890D01*
X159631890Y-56086292D01*
X159559482Y-56211708D01*
X159548212Y-56253764D01*
X158848564Y-55554116D01*
X158748267Y-55707632D01*
X158648412Y-55935282D01*
X158587387Y-56176261D01*
X158587385Y-56176270D01*
X158566859Y-56423994D01*
X155381300Y-56423994D01*
X155381300Y-54353445D01*
X155351740Y-54166813D01*
X155293345Y-53987095D01*
X155207559Y-53818732D01*
X155153563Y-53744413D01*
X155153563Y-53744412D01*
X155153561Y-53744411D01*
X155130733Y-53712991D01*
X155096493Y-53665861D01*
X154164876Y-52734244D01*
X154164874Y-52734242D01*
X154011999Y-52623172D01*
X153843636Y-52537386D01*
X153663918Y-52478991D01*
X153477286Y-52449432D01*
X153477281Y-52449432D01*
X139635735Y-52449432D01*
X139568696Y-52429747D01*
X139551394Y-52416331D01*
X139444017Y-52316700D01*
X139233434Y-52173127D01*
X139233430Y-52173125D01*
X139233427Y-52173123D01*
X139233426Y-52173122D01*
X139003806Y-52062544D01*
X139003808Y-52062544D01*
X138760266Y-51987421D01*
X138760262Y-51987420D01*
X138760258Y-51987419D01*
X138639031Y-51969146D01*
X138508240Y-51949432D01*
X138508235Y-51949432D01*
X138253365Y-51949432D01*
X138253359Y-51949432D01*
X138096409Y-51973089D01*
X138001342Y-51987419D01*
X138001339Y-51987420D01*
X138001333Y-51987421D01*
X137757792Y-52062544D01*
X137528173Y-52173122D01*
X137528172Y-52173123D01*
X137317582Y-52316700D01*
X137130752Y-52490053D01*
X137130750Y-52490055D01*
X136971841Y-52689320D01*
X136844408Y-52910041D01*
X136751292Y-53147294D01*
X136751290Y-53147301D01*
X136694577Y-53395777D01*
X136675532Y-53649927D01*
X136675532Y-53649936D01*
X136694577Y-53904086D01*
X136713524Y-53987100D01*
X136751292Y-54152569D01*
X136844407Y-54389820D01*
X136971841Y-54610544D01*
X137130750Y-54809809D01*
X137317583Y-54983164D01*
X137528166Y-55126737D01*
X137528171Y-55126739D01*
X137528172Y-55126740D01*
X137528173Y-55126741D01*
X137650128Y-55185470D01*
X137757792Y-55237319D01*
X137757793Y-55237319D01*
X137757796Y-55237321D01*
X138001342Y-55312445D01*
X138253365Y-55350432D01*
X138508235Y-55350432D01*
X138760258Y-55312445D01*
X139003804Y-55237321D01*
X139233434Y-55126737D01*
X139444017Y-54983164D01*
X139551394Y-54883532D01*
X139613926Y-54852365D01*
X139635735Y-54850432D01*
X152834174Y-54850432D01*
X152901213Y-54870117D01*
X152921855Y-54886751D01*
X152943981Y-54908877D01*
X152977466Y-54970200D01*
X152980300Y-54996558D01*
X152980300Y-57886979D01*
X152960615Y-57954018D01*
X152907811Y-57999773D01*
X152905705Y-58000712D01*
X152901422Y-58002572D01*
X152655903Y-58151876D01*
X152433000Y-58333221D01*
X152236862Y-58543231D01*
X152071148Y-58777996D01*
X151938944Y-59033138D01*
X151842717Y-59303894D01*
X151842716Y-59303897D01*
X151784251Y-59585251D01*
X151764642Y-59871932D01*
X151784251Y-60158612D01*
X151842716Y-60439966D01*
X151842717Y-60439969D01*
X151938944Y-60710725D01*
X151938943Y-60710725D01*
X152071148Y-60965867D01*
X152236862Y-61200632D01*
X152321973Y-61291763D01*
X152432997Y-61410640D01*
X152655903Y-61591987D01*
X152901425Y-61741293D01*
X152905700Y-61743149D01*
X152959347Y-61787912D01*
X152980278Y-61854572D01*
X152980300Y-61856885D01*
X152980300Y-78052127D01*
X152960615Y-78119166D01*
X152914910Y-78160799D01*
X152915045Y-78161020D01*
X152913913Y-78161707D01*
X152913345Y-78162226D01*
X152911431Y-78163217D01*
X152665903Y-78312526D01*
X152443000Y-78493871D01*
X152442997Y-78493873D01*
X152442997Y-78493874D01*
X152434265Y-78503224D01*
X152246862Y-78703881D01*
X152081148Y-78938646D01*
X151948944Y-79193788D01*
X151852717Y-79464544D01*
X151852716Y-79464547D01*
X151794251Y-79745901D01*
X151774642Y-80032582D01*
X151794251Y-80319262D01*
X151852716Y-80600616D01*
X151852717Y-80600619D01*
X151948944Y-80871375D01*
X151948943Y-80871375D01*
X152081148Y-81126517D01*
X152246862Y-81361282D01*
X152331973Y-81452413D01*
X152442997Y-81571290D01*
X152665903Y-81752637D01*
X152911425Y-81901943D01*
X152911428Y-81901944D01*
X152911431Y-81901946D01*
X152913345Y-81902938D01*
X152913838Y-81903410D01*
X152915045Y-81904144D01*
X152914882Y-81904410D01*
X152963813Y-81951256D01*
X152980300Y-82013037D01*
X152980300Y-86292418D01*
X153009859Y-86479050D01*
X153068254Y-86658768D01*
X153154040Y-86827131D01*
X153265110Y-86980006D01*
X153265112Y-86980008D01*
X158531981Y-92246877D01*
X158565466Y-92308200D01*
X158568300Y-92334558D01*
X158568300Y-95228738D01*
X158548615Y-95295777D01*
X158495811Y-95341532D01*
X158426653Y-95351476D01*
X158369990Y-95328006D01*
X158313012Y-95285353D01*
X158313011Y-95285352D01*
X158313008Y-95285350D01*
X158313005Y-95285348D01*
X158080694Y-95158496D01*
X158080690Y-95158494D01*
X157832673Y-95065989D01*
X157574034Y-95009726D01*
X157574027Y-95009725D01*
X157310001Y-94990841D01*
X157309999Y-94990841D01*
X157045972Y-95009725D01*
X157045965Y-95009726D01*
X156787326Y-95065989D01*
X156539309Y-95158494D01*
X156539305Y-95158496D01*
X156306994Y-95285348D01*
X156306986Y-95285353D01*
X156095092Y-95443974D01*
X156095074Y-95443990D01*
X155907922Y-95631142D01*
X155907906Y-95631160D01*
X155749285Y-95843054D01*
X155749280Y-95843062D01*
X155622428Y-96075373D01*
X155622426Y-96075377D01*
X155529921Y-96323394D01*
X155473658Y-96582033D01*
X155473657Y-96582040D01*
X155454773Y-96846066D01*
X155454773Y-96846069D01*
X155473657Y-97110095D01*
X155473658Y-97110102D01*
X155529921Y-97368741D01*
X155622426Y-97616758D01*
X155622428Y-97616762D01*
X155749280Y-97849073D01*
X155749285Y-97849081D01*
X155907906Y-98060975D01*
X155907922Y-98060993D01*
X156095074Y-98248145D01*
X156095092Y-98248161D01*
X156306986Y-98406782D01*
X156306994Y-98406787D01*
X156539305Y-98533639D01*
X156539309Y-98533641D01*
X156539311Y-98533642D01*
X156787322Y-98626145D01*
X156787325Y-98626145D01*
X156787326Y-98626146D01*
X156982552Y-98668614D01*
X157045974Y-98682411D01*
X157289660Y-98699840D01*
X157309999Y-98701295D01*
X157310000Y-98701295D01*
X157310001Y-98701295D01*
X157328885Y-98699944D01*
X157574026Y-98682411D01*
X157832678Y-98626145D01*
X158080689Y-98533642D01*
X158313011Y-98406784D01*
X158369991Y-98364129D01*
X158435454Y-98339713D01*
X158503727Y-98354565D01*
X158553132Y-98403970D01*
X158568300Y-98463397D01*
X158568300Y-109271306D01*
X158548615Y-109338345D01*
X158531981Y-109358987D01*
X152948187Y-114942781D01*
X152886864Y-114976266D01*
X152860506Y-114979100D01*
X130726318Y-114979100D01*
X130539690Y-115008659D01*
X130359970Y-115067054D01*
X130191605Y-115152840D01*
X130038728Y-115263912D01*
X126236715Y-119065924D01*
X126234392Y-119068645D01*
X126175886Y-119106839D01*
X126106018Y-119107339D01*
X126046971Y-119069986D01*
X126017492Y-119006640D01*
X126016100Y-118988115D01*
X126016100Y-116271026D01*
X126035785Y-116203987D01*
X126052419Y-116183345D01*
X129967770Y-112267994D01*
X137233659Y-112267994D01*
X137233659Y-112268005D01*
X137254185Y-112515729D01*
X137254187Y-112515738D01*
X137315212Y-112756717D01*
X137415066Y-112984364D01*
X137515364Y-113137882D01*
X138215012Y-112438234D01*
X138226282Y-112480292D01*
X138298690Y-112605708D01*
X138401092Y-112708110D01*
X138526508Y-112780518D01*
X138568565Y-112791787D01*
X137868742Y-113491609D01*
X137915568Y-113528055D01*
X137915570Y-113528056D01*
X138134185Y-113646364D01*
X138134196Y-113646369D01*
X138369306Y-113727083D01*
X138614507Y-113768000D01*
X138863093Y-113768000D01*
X139108293Y-113727083D01*
X139343403Y-113646369D01*
X139343414Y-113646364D01*
X139562028Y-113528057D01*
X139562031Y-113528055D01*
X139608856Y-113491609D01*
X138909034Y-112791787D01*
X138951092Y-112780518D01*
X139076508Y-112708110D01*
X139178910Y-112605708D01*
X139251318Y-112480292D01*
X139262587Y-112438234D01*
X139962234Y-113137882D01*
X140062531Y-112984369D01*
X140162387Y-112756717D01*
X140223412Y-112515738D01*
X140223414Y-112515729D01*
X140243941Y-112268005D01*
X140243941Y-112267994D01*
X143733659Y-112267994D01*
X143733659Y-112268005D01*
X143754185Y-112515729D01*
X143754187Y-112515738D01*
X143815212Y-112756717D01*
X143915066Y-112984364D01*
X144015364Y-113137882D01*
X144715012Y-112438234D01*
X144726282Y-112480292D01*
X144798690Y-112605708D01*
X144901092Y-112708110D01*
X145026508Y-112780518D01*
X145068565Y-112791787D01*
X144368742Y-113491609D01*
X144415568Y-113528055D01*
X144415570Y-113528056D01*
X144634185Y-113646364D01*
X144634196Y-113646369D01*
X144869306Y-113727083D01*
X145114507Y-113768000D01*
X145363093Y-113768000D01*
X145608293Y-113727083D01*
X145843403Y-113646369D01*
X145843414Y-113646364D01*
X146062028Y-113528057D01*
X146062031Y-113528055D01*
X146108856Y-113491609D01*
X145409034Y-112791787D01*
X145451092Y-112780518D01*
X145576508Y-112708110D01*
X145678910Y-112605708D01*
X145751318Y-112480292D01*
X145762587Y-112438234D01*
X146462234Y-113137882D01*
X146562531Y-112984369D01*
X146662387Y-112756717D01*
X146723412Y-112515738D01*
X146723414Y-112515729D01*
X146743941Y-112268005D01*
X146743941Y-112267994D01*
X146723414Y-112020270D01*
X146723412Y-112020261D01*
X146662387Y-111779282D01*
X146562531Y-111551630D01*
X146462234Y-111398116D01*
X145762587Y-112097764D01*
X145751318Y-112055708D01*
X145678910Y-111930292D01*
X145576508Y-111827890D01*
X145451092Y-111755482D01*
X145409035Y-111744212D01*
X146108857Y-111044390D01*
X146108856Y-111044389D01*
X146062029Y-111007943D01*
X145843414Y-110889635D01*
X145843403Y-110889630D01*
X145608293Y-110808916D01*
X145363093Y-110768000D01*
X145114507Y-110768000D01*
X144869306Y-110808916D01*
X144634196Y-110889630D01*
X144634190Y-110889632D01*
X144415561Y-111007949D01*
X144368742Y-111044388D01*
X144368742Y-111044390D01*
X145068565Y-111744212D01*
X145026508Y-111755482D01*
X144901092Y-111827890D01*
X144798690Y-111930292D01*
X144726282Y-112055708D01*
X144715012Y-112097764D01*
X144015364Y-111398116D01*
X143915067Y-111551632D01*
X143815212Y-111779282D01*
X143754187Y-112020261D01*
X143754185Y-112020270D01*
X143733659Y-112267994D01*
X140243941Y-112267994D01*
X140223414Y-112020270D01*
X140223412Y-112020261D01*
X140162387Y-111779282D01*
X140062531Y-111551630D01*
X139962234Y-111398116D01*
X139262587Y-112097764D01*
X139251318Y-112055708D01*
X139178910Y-111930292D01*
X139076508Y-111827890D01*
X138951092Y-111755482D01*
X138909035Y-111744212D01*
X139608857Y-111044390D01*
X139608856Y-111044389D01*
X139562029Y-111007943D01*
X139343414Y-110889635D01*
X139343403Y-110889630D01*
X139108293Y-110808916D01*
X138863093Y-110768000D01*
X138614507Y-110768000D01*
X138369306Y-110808916D01*
X138134196Y-110889630D01*
X138134190Y-110889632D01*
X137915561Y-111007949D01*
X137868742Y-111044388D01*
X137868742Y-111044390D01*
X138568565Y-111744212D01*
X138526508Y-111755482D01*
X138401092Y-111827890D01*
X138298690Y-111930292D01*
X138226282Y-112055708D01*
X138215012Y-112097764D01*
X137515364Y-111398116D01*
X137415067Y-111551632D01*
X137315212Y-111779282D01*
X137254187Y-112020261D01*
X137254185Y-112020270D01*
X137233659Y-112267994D01*
X129967770Y-112267994D01*
X133230945Y-109004819D01*
X133292268Y-108971334D01*
X133318626Y-108968500D01*
X133424467Y-108968500D01*
X133491506Y-108988185D01*
X133537261Y-109040989D01*
X133547205Y-109110147D01*
X133523734Y-109166810D01*
X133399285Y-109333054D01*
X133399280Y-109333062D01*
X133272428Y-109565373D01*
X133272426Y-109565377D01*
X133179921Y-109813394D01*
X133123658Y-110072033D01*
X133123657Y-110072040D01*
X133104773Y-110336066D01*
X133104773Y-110336069D01*
X133123657Y-110600095D01*
X133123658Y-110600102D01*
X133179921Y-110858741D01*
X133272426Y-111106758D01*
X133272428Y-111106762D01*
X133399280Y-111339073D01*
X133399285Y-111339081D01*
X133557906Y-111550975D01*
X133557922Y-111550993D01*
X133745074Y-111738145D01*
X133745092Y-111738161D01*
X133956986Y-111896782D01*
X133956994Y-111896787D01*
X134189305Y-112023639D01*
X134189309Y-112023641D01*
X134189311Y-112023642D01*
X134437322Y-112116145D01*
X134437325Y-112116145D01*
X134437326Y-112116146D01*
X134632552Y-112158614D01*
X134695974Y-112172411D01*
X134939660Y-112189840D01*
X134959999Y-112191295D01*
X134960000Y-112191295D01*
X134960001Y-112191295D01*
X134978885Y-112189944D01*
X135224026Y-112172411D01*
X135482678Y-112116145D01*
X135730689Y-112023642D01*
X135963011Y-111896784D01*
X136174915Y-111738155D01*
X136362087Y-111550983D01*
X136520716Y-111339079D01*
X136647574Y-111106757D01*
X136740077Y-110858746D01*
X136796343Y-110600094D01*
X136815227Y-110336068D01*
X136796343Y-110072042D01*
X136740077Y-109813390D01*
X136647574Y-109565379D01*
X136594673Y-109468499D01*
X136520719Y-109333062D01*
X136520714Y-109333054D01*
X136396266Y-109166810D01*
X136371849Y-109101346D01*
X136386701Y-109033073D01*
X136436106Y-108983668D01*
X136495533Y-108968500D01*
X137483865Y-108968500D01*
X137550904Y-108988185D01*
X137568203Y-109001599D01*
X137675583Y-109101232D01*
X137886166Y-109244805D01*
X137886171Y-109244807D01*
X137886172Y-109244808D01*
X137886173Y-109244809D01*
X138008128Y-109303538D01*
X138115792Y-109355387D01*
X138115793Y-109355387D01*
X138115796Y-109355389D01*
X138359342Y-109430513D01*
X138611365Y-109468500D01*
X138866235Y-109468500D01*
X139118258Y-109430513D01*
X139361804Y-109355389D01*
X139591434Y-109244805D01*
X139802017Y-109101232D01*
X139988850Y-108927877D01*
X140147759Y-108728612D01*
X140275193Y-108507888D01*
X140368308Y-108270637D01*
X140425022Y-108022157D01*
X140444068Y-107768000D01*
X140444068Y-107767995D01*
X143533532Y-107767995D01*
X143533532Y-107768004D01*
X143552577Y-108022154D01*
X143552578Y-108022157D01*
X143609292Y-108270637D01*
X143702407Y-108507888D01*
X143829841Y-108728612D01*
X143988750Y-108927877D01*
X144175583Y-109101232D01*
X144386166Y-109244805D01*
X144386171Y-109244807D01*
X144386172Y-109244808D01*
X144386173Y-109244809D01*
X144508128Y-109303538D01*
X144615792Y-109355387D01*
X144615793Y-109355387D01*
X144615796Y-109355389D01*
X144859342Y-109430513D01*
X145111365Y-109468500D01*
X145366235Y-109468500D01*
X145618258Y-109430513D01*
X145861804Y-109355389D01*
X146091434Y-109244805D01*
X146302017Y-109101232D01*
X146488850Y-108927877D01*
X146647759Y-108728612D01*
X146775193Y-108507888D01*
X146868308Y-108270637D01*
X146925022Y-108022157D01*
X146944068Y-107768000D01*
X146925022Y-107513843D01*
X146868308Y-107265363D01*
X146775193Y-107028112D01*
X146647759Y-106807388D01*
X146488850Y-106608123D01*
X146302017Y-106434768D01*
X146091434Y-106291195D01*
X146091430Y-106291193D01*
X146091427Y-106291191D01*
X146091426Y-106291190D01*
X145861806Y-106180612D01*
X145861808Y-106180612D01*
X145618266Y-106105489D01*
X145618262Y-106105488D01*
X145618258Y-106105487D01*
X145497031Y-106087214D01*
X145366240Y-106067500D01*
X145366235Y-106067500D01*
X145111365Y-106067500D01*
X145111359Y-106067500D01*
X144954409Y-106091157D01*
X144859342Y-106105487D01*
X144859339Y-106105488D01*
X144859333Y-106105489D01*
X144615792Y-106180612D01*
X144386173Y-106291190D01*
X144386172Y-106291191D01*
X144175582Y-106434768D01*
X143988752Y-106608121D01*
X143988750Y-106608123D01*
X143829841Y-106807388D01*
X143702408Y-107028109D01*
X143609292Y-107265362D01*
X143609290Y-107265369D01*
X143552577Y-107513845D01*
X143533532Y-107767995D01*
X140444068Y-107767995D01*
X140425022Y-107513843D01*
X140368308Y-107265363D01*
X140275193Y-107028112D01*
X140147759Y-106807388D01*
X140048008Y-106682305D01*
X140021600Y-106617619D01*
X140034357Y-106548924D01*
X140082227Y-106498030D01*
X140088662Y-106494508D01*
X140201997Y-106436761D01*
X140201996Y-106436761D01*
X140201999Y-106436760D01*
X140354874Y-106325690D01*
X144318570Y-102361994D01*
X145615659Y-102361994D01*
X145615659Y-102362005D01*
X145636185Y-102609729D01*
X145636187Y-102609738D01*
X145697212Y-102850717D01*
X145797066Y-103078364D01*
X145897364Y-103231882D01*
X146597012Y-102532234D01*
X146608282Y-102574292D01*
X146680690Y-102699708D01*
X146783092Y-102802110D01*
X146908508Y-102874518D01*
X146950565Y-102885787D01*
X146250742Y-103585609D01*
X146297568Y-103622055D01*
X146297570Y-103622056D01*
X146516185Y-103740364D01*
X146516196Y-103740369D01*
X146751306Y-103821083D01*
X146996507Y-103862000D01*
X147245093Y-103862000D01*
X147490293Y-103821083D01*
X147725403Y-103740369D01*
X147725414Y-103740364D01*
X147944028Y-103622057D01*
X147944031Y-103622055D01*
X147990856Y-103585609D01*
X147291034Y-102885787D01*
X147333092Y-102874518D01*
X147458508Y-102802110D01*
X147560910Y-102699708D01*
X147633318Y-102574292D01*
X147644587Y-102532235D01*
X148344234Y-103231882D01*
X148444531Y-103078369D01*
X148544387Y-102850717D01*
X148605412Y-102609738D01*
X148605414Y-102609729D01*
X148625941Y-102362005D01*
X148625941Y-102361994D01*
X152115659Y-102361994D01*
X152115659Y-102362005D01*
X152136185Y-102609729D01*
X152136187Y-102609738D01*
X152197212Y-102850717D01*
X152297066Y-103078364D01*
X152397364Y-103231882D01*
X153097012Y-102532234D01*
X153108282Y-102574292D01*
X153180690Y-102699708D01*
X153283092Y-102802110D01*
X153408508Y-102874518D01*
X153450565Y-102885787D01*
X152750742Y-103585609D01*
X152797568Y-103622055D01*
X152797570Y-103622056D01*
X153016185Y-103740364D01*
X153016196Y-103740369D01*
X153251306Y-103821083D01*
X153496507Y-103862000D01*
X153745093Y-103862000D01*
X153990293Y-103821083D01*
X154225403Y-103740369D01*
X154225414Y-103740364D01*
X154444028Y-103622057D01*
X154444031Y-103622055D01*
X154490856Y-103585609D01*
X153791034Y-102885787D01*
X153833092Y-102874518D01*
X153958508Y-102802110D01*
X154060910Y-102699708D01*
X154133318Y-102574292D01*
X154144587Y-102532235D01*
X154844234Y-103231882D01*
X154944531Y-103078369D01*
X155044387Y-102850717D01*
X155105412Y-102609738D01*
X155105414Y-102609729D01*
X155125941Y-102362005D01*
X155125941Y-102361994D01*
X155105414Y-102114270D01*
X155105412Y-102114261D01*
X155044387Y-101873282D01*
X154944531Y-101645630D01*
X154844234Y-101492116D01*
X154144587Y-102191764D01*
X154133318Y-102149708D01*
X154060910Y-102024292D01*
X153958508Y-101921890D01*
X153833092Y-101849482D01*
X153791035Y-101838212D01*
X154490857Y-101138390D01*
X154490856Y-101138389D01*
X154444029Y-101101943D01*
X154225414Y-100983635D01*
X154225403Y-100983630D01*
X153990293Y-100902916D01*
X153745093Y-100862000D01*
X153496507Y-100862000D01*
X153251306Y-100902916D01*
X153016196Y-100983630D01*
X153016190Y-100983632D01*
X152797561Y-101101949D01*
X152750742Y-101138388D01*
X152750742Y-101138390D01*
X153450565Y-101838212D01*
X153408508Y-101849482D01*
X153283092Y-101921890D01*
X153180690Y-102024292D01*
X153108282Y-102149708D01*
X153097012Y-102191764D01*
X152397364Y-101492116D01*
X152297067Y-101645632D01*
X152197212Y-101873282D01*
X152136187Y-102114261D01*
X152136185Y-102114270D01*
X152115659Y-102361994D01*
X148625941Y-102361994D01*
X148605414Y-102114270D01*
X148605412Y-102114261D01*
X148544387Y-101873282D01*
X148444531Y-101645630D01*
X148344234Y-101492116D01*
X147644587Y-102191764D01*
X147633318Y-102149708D01*
X147560910Y-102024292D01*
X147458508Y-101921890D01*
X147333092Y-101849482D01*
X147291035Y-101838212D01*
X147990857Y-101138390D01*
X147990856Y-101138389D01*
X147944029Y-101101943D01*
X147725414Y-100983635D01*
X147725403Y-100983630D01*
X147490293Y-100902916D01*
X147245093Y-100862000D01*
X146996507Y-100862000D01*
X146751306Y-100902916D01*
X146516196Y-100983630D01*
X146516190Y-100983632D01*
X146297561Y-101101949D01*
X146250742Y-101138388D01*
X146250742Y-101138390D01*
X146950565Y-101838212D01*
X146908508Y-101849482D01*
X146783092Y-101921890D01*
X146680690Y-102024292D01*
X146608282Y-102149708D01*
X146597012Y-102191764D01*
X145897364Y-101492116D01*
X145797067Y-101645632D01*
X145697212Y-101873282D01*
X145636187Y-102114261D01*
X145636185Y-102114270D01*
X145615659Y-102361994D01*
X144318570Y-102361994D01*
X147081745Y-99598819D01*
X147143068Y-99565334D01*
X147169426Y-99562500D01*
X147248235Y-99562500D01*
X147500258Y-99524513D01*
X147743804Y-99449389D01*
X147973434Y-99338805D01*
X148184017Y-99195232D01*
X148370850Y-99021877D01*
X148529759Y-98822612D01*
X148657193Y-98601888D01*
X148750308Y-98364637D01*
X148807022Y-98116157D01*
X148826068Y-97862000D01*
X148826068Y-97861995D01*
X151915532Y-97861995D01*
X151915532Y-97862004D01*
X151934577Y-98116154D01*
X151988114Y-98350717D01*
X151991292Y-98364637D01*
X152084407Y-98601888D01*
X152211841Y-98822612D01*
X152370750Y-99021877D01*
X152557583Y-99195232D01*
X152768166Y-99338805D01*
X152768171Y-99338807D01*
X152768172Y-99338808D01*
X152768173Y-99338809D01*
X152890128Y-99397538D01*
X152997792Y-99449387D01*
X152997793Y-99449387D01*
X152997796Y-99449389D01*
X153241342Y-99524513D01*
X153493365Y-99562500D01*
X153748235Y-99562500D01*
X154000258Y-99524513D01*
X154243804Y-99449389D01*
X154473434Y-99338805D01*
X154684017Y-99195232D01*
X154870850Y-99021877D01*
X155029759Y-98822612D01*
X155157193Y-98601888D01*
X155250308Y-98364637D01*
X155307022Y-98116157D01*
X155326068Y-97862000D01*
X155325099Y-97849073D01*
X155309010Y-97634372D01*
X155307022Y-97607843D01*
X155250308Y-97359363D01*
X155157193Y-97122112D01*
X155029759Y-96901388D01*
X154870850Y-96702123D01*
X154684017Y-96528768D01*
X154473434Y-96385195D01*
X154473430Y-96385193D01*
X154473427Y-96385191D01*
X154473426Y-96385190D01*
X154243806Y-96274612D01*
X154243808Y-96274612D01*
X154000266Y-96199489D01*
X154000262Y-96199488D01*
X154000258Y-96199487D01*
X153879031Y-96181214D01*
X153748240Y-96161500D01*
X153748235Y-96161500D01*
X153493365Y-96161500D01*
X153493359Y-96161500D01*
X153336409Y-96185157D01*
X153241342Y-96199487D01*
X153241339Y-96199488D01*
X153241333Y-96199489D01*
X152997792Y-96274612D01*
X152768173Y-96385190D01*
X152768172Y-96385191D01*
X152557582Y-96528768D01*
X152370752Y-96702121D01*
X152370750Y-96702123D01*
X152211841Y-96901388D01*
X152084408Y-97122109D01*
X151991292Y-97359362D01*
X151991290Y-97359369D01*
X151934577Y-97607845D01*
X151915532Y-97861995D01*
X148826068Y-97861995D01*
X148825099Y-97849073D01*
X148809010Y-97634372D01*
X148807022Y-97607843D01*
X148750308Y-97359363D01*
X148657193Y-97122112D01*
X148529759Y-96901388D01*
X148370850Y-96702123D01*
X148184017Y-96528768D01*
X147973434Y-96385195D01*
X147973430Y-96385193D01*
X147973427Y-96385191D01*
X147973426Y-96385190D01*
X147743806Y-96274612D01*
X147743808Y-96274612D01*
X147500266Y-96199489D01*
X147500262Y-96199488D01*
X147500258Y-96199487D01*
X147379031Y-96181214D01*
X147248240Y-96161500D01*
X147248235Y-96161500D01*
X146993365Y-96161500D01*
X146993359Y-96161500D01*
X146836409Y-96185157D01*
X146741342Y-96199487D01*
X146741339Y-96199488D01*
X146741333Y-96199489D01*
X146497792Y-96274612D01*
X146268173Y-96385190D01*
X146268172Y-96385191D01*
X146057582Y-96528768D01*
X145870752Y-96702121D01*
X145870750Y-96702123D01*
X145711841Y-96901388D01*
X145584408Y-97122109D01*
X145491292Y-97359362D01*
X145491290Y-97359369D01*
X145434577Y-97607845D01*
X145418362Y-97824230D01*
X145393723Y-97889611D01*
X145382390Y-97902645D01*
X139111855Y-104173181D01*
X139050532Y-104206666D01*
X139024174Y-104209500D01*
X136697230Y-104209500D01*
X136630191Y-104189815D01*
X136584436Y-104137011D01*
X136574492Y-104067853D01*
X136603517Y-104004297D01*
X136660678Y-103967009D01*
X136717804Y-103949389D01*
X136947434Y-103838805D01*
X137158017Y-103695232D01*
X137344850Y-103521877D01*
X137503759Y-103322612D01*
X137631193Y-103101888D01*
X137724308Y-102864637D01*
X137781022Y-102616157D01*
X137800068Y-102362000D01*
X137781022Y-102107843D01*
X137724308Y-101859363D01*
X137631193Y-101622112D01*
X137503759Y-101401388D01*
X137344850Y-101202123D01*
X137158017Y-101028768D01*
X136947434Y-100885195D01*
X136947430Y-100885193D01*
X136947427Y-100885191D01*
X136947426Y-100885190D01*
X136717806Y-100774612D01*
X136717808Y-100774612D01*
X136474266Y-100699489D01*
X136474262Y-100699488D01*
X136474258Y-100699487D01*
X136353031Y-100681214D01*
X136222240Y-100661500D01*
X136222235Y-100661500D01*
X135967365Y-100661500D01*
X135967359Y-100661500D01*
X135810409Y-100685157D01*
X135715342Y-100699487D01*
X135715339Y-100699488D01*
X135715333Y-100699489D01*
X135471792Y-100774612D01*
X135242173Y-100885190D01*
X135242172Y-100885191D01*
X135031582Y-101028768D01*
X134844752Y-101202121D01*
X134844750Y-101202123D01*
X134685841Y-101401388D01*
X134558408Y-101622109D01*
X134465292Y-101859362D01*
X134465290Y-101859369D01*
X134408577Y-102107845D01*
X134389532Y-102361995D01*
X134389532Y-102362004D01*
X134408577Y-102616154D01*
X134462114Y-102850717D01*
X134465292Y-102864637D01*
X134558407Y-103101888D01*
X134685841Y-103322612D01*
X134844750Y-103521877D01*
X135031583Y-103695232D01*
X135242166Y-103838805D01*
X135242171Y-103838807D01*
X135242172Y-103838808D01*
X135242173Y-103838809D01*
X135364128Y-103897538D01*
X135471792Y-103949387D01*
X135471793Y-103949387D01*
X135471796Y-103949389D01*
X135528921Y-103967009D01*
X135587179Y-104005579D01*
X135615337Y-104069524D01*
X135604453Y-104138541D01*
X135557984Y-104190718D01*
X135492370Y-104209500D01*
X132629351Y-104209500D01*
X132442718Y-104239059D01*
X132263000Y-104297454D01*
X132094637Y-104383240D01*
X131941760Y-104494312D01*
X122820581Y-113615492D01*
X122759258Y-113648977D01*
X122689566Y-113643993D01*
X122633633Y-113602121D01*
X122609216Y-113536657D01*
X122608900Y-113527811D01*
X122608900Y-111097025D01*
X122628585Y-111029986D01*
X122645219Y-111009344D01*
X129555744Y-104098819D01*
X129617067Y-104065334D01*
X129643425Y-104062500D01*
X129722235Y-104062500D01*
X129974258Y-104024513D01*
X130217804Y-103949389D01*
X130447434Y-103838805D01*
X130658017Y-103695232D01*
X130844850Y-103521877D01*
X131003759Y-103322612D01*
X131131193Y-103101888D01*
X131224308Y-102864637D01*
X131281022Y-102616157D01*
X131300068Y-102362000D01*
X131281022Y-102107843D01*
X131224308Y-101859363D01*
X131131193Y-101622112D01*
X131003759Y-101401388D01*
X130987036Y-101380418D01*
X130960628Y-101315731D01*
X130973385Y-101247035D01*
X131021256Y-101196142D01*
X131027667Y-101192632D01*
X131035269Y-101188760D01*
X131188144Y-101077690D01*
X134386275Y-97879557D01*
X134447596Y-97846074D01*
X134517288Y-97851058D01*
X134573221Y-97892930D01*
X134597530Y-97957000D01*
X134610185Y-98109729D01*
X134610187Y-98109738D01*
X134671212Y-98350717D01*
X134771066Y-98578364D01*
X134871364Y-98731882D01*
X135571012Y-98032233D01*
X135582282Y-98074292D01*
X135654690Y-98199708D01*
X135757092Y-98302110D01*
X135882508Y-98374518D01*
X135924565Y-98385787D01*
X135224742Y-99085609D01*
X135271568Y-99122055D01*
X135271570Y-99122056D01*
X135490185Y-99240364D01*
X135490196Y-99240369D01*
X135725306Y-99321083D01*
X135970507Y-99362000D01*
X136219093Y-99362000D01*
X136464293Y-99321083D01*
X136699403Y-99240369D01*
X136699414Y-99240364D01*
X136918028Y-99122057D01*
X136918031Y-99122055D01*
X136964856Y-99085609D01*
X136265034Y-98385787D01*
X136307092Y-98374518D01*
X136432508Y-98302110D01*
X136534910Y-98199708D01*
X136607318Y-98074292D01*
X136618587Y-98032235D01*
X137318234Y-98731882D01*
X137418531Y-98578369D01*
X137518387Y-98350717D01*
X137579412Y-98109738D01*
X137579414Y-98109729D01*
X137599941Y-97862005D01*
X137599941Y-97861994D01*
X137579414Y-97614270D01*
X137579412Y-97614261D01*
X137518387Y-97373282D01*
X137418531Y-97145630D01*
X137318234Y-96992116D01*
X136618587Y-97691764D01*
X136607318Y-97649708D01*
X136534910Y-97524292D01*
X136432508Y-97421890D01*
X136307092Y-97349482D01*
X136265033Y-97338212D01*
X136964857Y-96638389D01*
X136918029Y-96601943D01*
X136699414Y-96483635D01*
X136699403Y-96483630D01*
X136464293Y-96402916D01*
X136219093Y-96362000D01*
X135970507Y-96362000D01*
X135725306Y-96402916D01*
X135720932Y-96404024D01*
X135651111Y-96401394D01*
X135593797Y-96361434D01*
X135567185Y-96296830D01*
X135566500Y-96283816D01*
X135566500Y-92877426D01*
X135586185Y-92810387D01*
X135602819Y-92789745D01*
X135936570Y-92455994D01*
X137233659Y-92455994D01*
X137233659Y-92456005D01*
X137254185Y-92703729D01*
X137254187Y-92703738D01*
X137315212Y-92944717D01*
X137415066Y-93172364D01*
X137515364Y-93325882D01*
X138215012Y-92626234D01*
X138226282Y-92668292D01*
X138298690Y-92793708D01*
X138401092Y-92896110D01*
X138526508Y-92968518D01*
X138568565Y-92979787D01*
X137868742Y-93679609D01*
X137915568Y-93716055D01*
X137915570Y-93716056D01*
X138134185Y-93834364D01*
X138134196Y-93834369D01*
X138369306Y-93915083D01*
X138614507Y-93956000D01*
X138863093Y-93956000D01*
X139108293Y-93915083D01*
X139343403Y-93834369D01*
X139343414Y-93834364D01*
X139562028Y-93716057D01*
X139562031Y-93716055D01*
X139608856Y-93679609D01*
X138909034Y-92979787D01*
X138951092Y-92968518D01*
X139076508Y-92896110D01*
X139178910Y-92793708D01*
X139251318Y-92668292D01*
X139262587Y-92626234D01*
X139962234Y-93325882D01*
X140062531Y-93172369D01*
X140162387Y-92944717D01*
X140223412Y-92703738D01*
X140223414Y-92703729D01*
X140243941Y-92456005D01*
X140243941Y-92455994D01*
X143733659Y-92455994D01*
X143733659Y-92456005D01*
X143754185Y-92703729D01*
X143754187Y-92703738D01*
X143815212Y-92944717D01*
X143915066Y-93172364D01*
X144015364Y-93325882D01*
X144715012Y-92626234D01*
X144726282Y-92668292D01*
X144798690Y-92793708D01*
X144901092Y-92896110D01*
X145026508Y-92968518D01*
X145068565Y-92979787D01*
X144368742Y-93679609D01*
X144415568Y-93716055D01*
X144415570Y-93716056D01*
X144634185Y-93834364D01*
X144634196Y-93834369D01*
X144869306Y-93915083D01*
X145114507Y-93956000D01*
X145363093Y-93956000D01*
X145608293Y-93915083D01*
X145843403Y-93834369D01*
X145843414Y-93834364D01*
X146062028Y-93716057D01*
X146062031Y-93716055D01*
X146108856Y-93679609D01*
X145409034Y-92979787D01*
X145451092Y-92968518D01*
X145576508Y-92896110D01*
X145678910Y-92793708D01*
X145751318Y-92668292D01*
X145762587Y-92626234D01*
X146462234Y-93325882D01*
X146562531Y-93172369D01*
X146662387Y-92944717D01*
X146723412Y-92703738D01*
X146723414Y-92703729D01*
X146743941Y-92456005D01*
X146743941Y-92455994D01*
X146723414Y-92208270D01*
X146723412Y-92208261D01*
X146662387Y-91967282D01*
X146562531Y-91739630D01*
X146462234Y-91586116D01*
X145762587Y-92285764D01*
X145751318Y-92243708D01*
X145678910Y-92118292D01*
X145576508Y-92015890D01*
X145451092Y-91943482D01*
X145409035Y-91932212D01*
X146108857Y-91232390D01*
X146108856Y-91232389D01*
X146062029Y-91195943D01*
X145843414Y-91077635D01*
X145843403Y-91077630D01*
X145608293Y-90996916D01*
X145363093Y-90956000D01*
X145114507Y-90956000D01*
X144869306Y-90996916D01*
X144634196Y-91077630D01*
X144634190Y-91077632D01*
X144415561Y-91195949D01*
X144368742Y-91232388D01*
X144368742Y-91232390D01*
X145068565Y-91932212D01*
X145026508Y-91943482D01*
X144901092Y-92015890D01*
X144798690Y-92118292D01*
X144726282Y-92243708D01*
X144715012Y-92285764D01*
X144015364Y-91586116D01*
X143915067Y-91739632D01*
X143815212Y-91967282D01*
X143754187Y-92208261D01*
X143754185Y-92208270D01*
X143733659Y-92455994D01*
X140243941Y-92455994D01*
X140223414Y-92208270D01*
X140223412Y-92208261D01*
X140162387Y-91967282D01*
X140062531Y-91739630D01*
X139962234Y-91586116D01*
X139262587Y-92285764D01*
X139251318Y-92243708D01*
X139178910Y-92118292D01*
X139076508Y-92015890D01*
X138951092Y-91943482D01*
X138909035Y-91932212D01*
X139608857Y-91232390D01*
X139608856Y-91232389D01*
X139562029Y-91195943D01*
X139343414Y-91077635D01*
X139343403Y-91077630D01*
X139108293Y-90996916D01*
X138863093Y-90956000D01*
X138614507Y-90956000D01*
X138369306Y-90996916D01*
X138134196Y-91077630D01*
X138134190Y-91077632D01*
X137915561Y-91195949D01*
X137868742Y-91232388D01*
X137868742Y-91232390D01*
X138568565Y-91932212D01*
X138526508Y-91943482D01*
X138401092Y-92015890D01*
X138298690Y-92118292D01*
X138226282Y-92243708D01*
X138215012Y-92285764D01*
X137515364Y-91586116D01*
X137415067Y-91739632D01*
X137315212Y-91967282D01*
X137254187Y-92208261D01*
X137254185Y-92208270D01*
X137233659Y-92455994D01*
X135936570Y-92455994D01*
X138699745Y-89692819D01*
X138761068Y-89659334D01*
X138787426Y-89656500D01*
X138866235Y-89656500D01*
X139118258Y-89618513D01*
X139361804Y-89543389D01*
X139591434Y-89432805D01*
X139802017Y-89289232D01*
X139988850Y-89115877D01*
X140147759Y-88916612D01*
X140275193Y-88695888D01*
X140368308Y-88458637D01*
X140425022Y-88210157D01*
X140444068Y-87956000D01*
X140444068Y-87955995D01*
X143533532Y-87955995D01*
X143533532Y-87956004D01*
X143552577Y-88210154D01*
X143552578Y-88210157D01*
X143609292Y-88458637D01*
X143702407Y-88695888D01*
X143829841Y-88916612D01*
X143988750Y-89115877D01*
X144175583Y-89289232D01*
X144386166Y-89432805D01*
X144386171Y-89432807D01*
X144386172Y-89432808D01*
X144386173Y-89432809D01*
X144508128Y-89491538D01*
X144615792Y-89543387D01*
X144615793Y-89543387D01*
X144615796Y-89543389D01*
X144859342Y-89618513D01*
X145111365Y-89656500D01*
X145366235Y-89656500D01*
X145618258Y-89618513D01*
X145861804Y-89543389D01*
X146091434Y-89432805D01*
X146302017Y-89289232D01*
X146488850Y-89115877D01*
X146647759Y-88916612D01*
X146775193Y-88695888D01*
X146868308Y-88458637D01*
X146925022Y-88210157D01*
X146944068Y-87956000D01*
X146925022Y-87701843D01*
X146868308Y-87453363D01*
X146775193Y-87216112D01*
X146647759Y-86995388D01*
X146488850Y-86796123D01*
X146302017Y-86622768D01*
X146091434Y-86479195D01*
X146091430Y-86479193D01*
X146091427Y-86479191D01*
X146091426Y-86479190D01*
X145861806Y-86368612D01*
X145861808Y-86368612D01*
X145618266Y-86293489D01*
X145618262Y-86293488D01*
X145618258Y-86293487D01*
X145497031Y-86275214D01*
X145366240Y-86255500D01*
X145366235Y-86255500D01*
X145111365Y-86255500D01*
X145111359Y-86255500D01*
X144954409Y-86279157D01*
X144859342Y-86293487D01*
X144859339Y-86293488D01*
X144859333Y-86293489D01*
X144615792Y-86368612D01*
X144386173Y-86479190D01*
X144386172Y-86479191D01*
X144175582Y-86622768D01*
X143988752Y-86796121D01*
X143988750Y-86796123D01*
X143829841Y-86995388D01*
X143702408Y-87216109D01*
X143609292Y-87453362D01*
X143609290Y-87453369D01*
X143552577Y-87701845D01*
X143533532Y-87955995D01*
X140444068Y-87955995D01*
X140425022Y-87701843D01*
X140368308Y-87453363D01*
X140275193Y-87216112D01*
X140147759Y-86995388D01*
X139988850Y-86796123D01*
X139802017Y-86622768D01*
X139591434Y-86479195D01*
X139591430Y-86479193D01*
X139591427Y-86479191D01*
X139591426Y-86479190D01*
X139361806Y-86368612D01*
X139361808Y-86368612D01*
X139118266Y-86293489D01*
X139118262Y-86293488D01*
X139118258Y-86293487D01*
X138997031Y-86275214D01*
X138866240Y-86255500D01*
X138866235Y-86255500D01*
X138611365Y-86255500D01*
X138611359Y-86255500D01*
X138454409Y-86279157D01*
X138359342Y-86293487D01*
X138359339Y-86293488D01*
X138359333Y-86293489D01*
X138115792Y-86368612D01*
X137886173Y-86479190D01*
X137886172Y-86479191D01*
X137675582Y-86622768D01*
X137488752Y-86796121D01*
X137488750Y-86796123D01*
X137329841Y-86995388D01*
X137202408Y-87216109D01*
X137109292Y-87453362D01*
X137109290Y-87453369D01*
X137052577Y-87701845D01*
X137036362Y-87918230D01*
X137011723Y-87983611D01*
X137000390Y-87996645D01*
X133450312Y-91546723D01*
X133450307Y-91546729D01*
X133345162Y-91691450D01*
X133340611Y-91697713D01*
X133339239Y-91699602D01*
X133253454Y-91867963D01*
X133195059Y-92047681D01*
X133165500Y-92234313D01*
X133165500Y-95653443D01*
X133145815Y-95720482D01*
X133129181Y-95741124D01*
X131269417Y-97600887D01*
X131208094Y-97634372D01*
X131138402Y-97629388D01*
X131082469Y-97587516D01*
X131061530Y-97543646D01*
X131018388Y-97373283D01*
X130918531Y-97145630D01*
X130818234Y-96992116D01*
X130118586Y-97691763D01*
X130107318Y-97649708D01*
X130034910Y-97524292D01*
X129932508Y-97421890D01*
X129807092Y-97349482D01*
X129765035Y-97338212D01*
X130464857Y-96638390D01*
X130464856Y-96638389D01*
X130418029Y-96601943D01*
X130199414Y-96483635D01*
X130199403Y-96483630D01*
X129964293Y-96402916D01*
X129719093Y-96362000D01*
X129470507Y-96362000D01*
X129225306Y-96402916D01*
X128990196Y-96483630D01*
X128990190Y-96483632D01*
X128771561Y-96601949D01*
X128724742Y-96638388D01*
X128724742Y-96638390D01*
X129424565Y-97338212D01*
X129382508Y-97349482D01*
X129257092Y-97421890D01*
X129154690Y-97524292D01*
X129082282Y-97649708D01*
X129071012Y-97691765D01*
X128371364Y-96992116D01*
X128271067Y-97145632D01*
X128171212Y-97373282D01*
X128110187Y-97614261D01*
X128110185Y-97614270D01*
X128089659Y-97861994D01*
X128089659Y-97862005D01*
X128110185Y-98109729D01*
X128110187Y-98109738D01*
X128171212Y-98350717D01*
X128271067Y-98578367D01*
X128396057Y-98769679D01*
X128416244Y-98836568D01*
X128397064Y-98903754D01*
X128344606Y-98949904D01*
X128292248Y-98961500D01*
X124787513Y-98961500D01*
X124600885Y-98991059D01*
X124421165Y-99049454D01*
X124252800Y-99135240D01*
X124099923Y-99246312D01*
X118792710Y-104553525D01*
X118738656Y-104627926D01*
X118738655Y-104627927D01*
X118681640Y-104706400D01*
X118595854Y-104874763D01*
X118537459Y-105054481D01*
X118507900Y-105241113D01*
X118507900Y-136262086D01*
X118537459Y-136448718D01*
X118595854Y-136628436D01*
X118681640Y-136796799D01*
X118792710Y-136949674D01*
X118792711Y-136949675D01*
X118792712Y-136949676D01*
X125632158Y-143789121D01*
X125665643Y-143850444D01*
X125666782Y-143856372D01*
X125667288Y-143859403D01*
X125667291Y-143859417D01*
X125667292Y-143859421D01*
X125682280Y-143918607D01*
X125728337Y-144100481D01*
X125828226Y-144328206D01*
X125964233Y-144536382D01*
X125964235Y-144536384D01*
X125964236Y-144536385D01*
X126132656Y-144719338D01*
X126328891Y-144872074D01*
X126547590Y-144990428D01*
X126782786Y-145071171D01*
X127028065Y-145112100D01*
X127276735Y-145112100D01*
X127522014Y-145071171D01*
X127757210Y-144990428D01*
X127975909Y-144872074D01*
X128172144Y-144719338D01*
X128331171Y-144546588D01*
X128391057Y-144510599D01*
X128460895Y-144512699D01*
X128513628Y-144546588D01*
X128672656Y-144719338D01*
X128868891Y-144872074D01*
X129087590Y-144990428D01*
X129322786Y-145071171D01*
X129568065Y-145112100D01*
X129816735Y-145112100D01*
X130062014Y-145071171D01*
X130297210Y-144990428D01*
X130515909Y-144872074D01*
X130712144Y-144719338D01*
X130871171Y-144546588D01*
X130931057Y-144510599D01*
X131000895Y-144512699D01*
X131053628Y-144546588D01*
X131212656Y-144719338D01*
X131408891Y-144872074D01*
X131627590Y-144990428D01*
X131862786Y-145071171D01*
X132108065Y-145112100D01*
X132356735Y-145112100D01*
X132602014Y-145071171D01*
X132837210Y-144990428D01*
X133055909Y-144872074D01*
X133252144Y-144719338D01*
X133411171Y-144546588D01*
X133471057Y-144510599D01*
X133540895Y-144512699D01*
X133593628Y-144546588D01*
X133752656Y-144719338D01*
X133948891Y-144872074D01*
X134167590Y-144990428D01*
X134402786Y-145071171D01*
X134648065Y-145112100D01*
X134896735Y-145112100D01*
X135142014Y-145071171D01*
X135377210Y-144990428D01*
X135595909Y-144872074D01*
X135792144Y-144719338D01*
X135951171Y-144546588D01*
X136011057Y-144510599D01*
X136080895Y-144512699D01*
X136133628Y-144546588D01*
X136292656Y-144719338D01*
X136488891Y-144872074D01*
X136707590Y-144990428D01*
X136942786Y-145071171D01*
X137188065Y-145112100D01*
X137436735Y-145112100D01*
X137682014Y-145071171D01*
X137917210Y-144990428D01*
X138135909Y-144872074D01*
X138332144Y-144719338D01*
X138491171Y-144546588D01*
X138551057Y-144510599D01*
X138620895Y-144512699D01*
X138673628Y-144546588D01*
X138832656Y-144719338D01*
X139028891Y-144872074D01*
X139247590Y-144990428D01*
X139482786Y-145071171D01*
X139728065Y-145112100D01*
X139976735Y-145112100D01*
X140222014Y-145071171D01*
X140457210Y-144990428D01*
X140675909Y-144872074D01*
X140872144Y-144719338D01*
X141031171Y-144546588D01*
X141091057Y-144510599D01*
X141160895Y-144512699D01*
X141213628Y-144546588D01*
X141372656Y-144719338D01*
X141568891Y-144872074D01*
X141787590Y-144990428D01*
X142022786Y-145071171D01*
X142268065Y-145112100D01*
X142516735Y-145112100D01*
X142762014Y-145071171D01*
X142997210Y-144990428D01*
X143215909Y-144872074D01*
X143412144Y-144719338D01*
X143571171Y-144546588D01*
X143631057Y-144510599D01*
X143700895Y-144512699D01*
X143753628Y-144546588D01*
X143912656Y-144719338D01*
X144108891Y-144872074D01*
X144327590Y-144990428D01*
X144562786Y-145071171D01*
X144808065Y-145112100D01*
X145056735Y-145112100D01*
X145302014Y-145071171D01*
X145537210Y-144990428D01*
X145755909Y-144872074D01*
X145952144Y-144719338D01*
X146111171Y-144546588D01*
X146171057Y-144510599D01*
X146240895Y-144512699D01*
X146293628Y-144546588D01*
X146452656Y-144719338D01*
X146648891Y-144872074D01*
X146867590Y-144990428D01*
X147102786Y-145071171D01*
X147348065Y-145112100D01*
X147596735Y-145112100D01*
X147842014Y-145071171D01*
X148077210Y-144990428D01*
X148295909Y-144872074D01*
X148492144Y-144719338D01*
X148651171Y-144546588D01*
X148711057Y-144510599D01*
X148780895Y-144512699D01*
X148833628Y-144546588D01*
X148992656Y-144719338D01*
X149188891Y-144872074D01*
X149407590Y-144990428D01*
X149642786Y-145071171D01*
X149888065Y-145112100D01*
X150136735Y-145112100D01*
X150382014Y-145071171D01*
X150617210Y-144990428D01*
X150835909Y-144872074D01*
X151032144Y-144719338D01*
X151191171Y-144546588D01*
X151251057Y-144510599D01*
X151320895Y-144512699D01*
X151373628Y-144546588D01*
X151532656Y-144719338D01*
X151728891Y-144872074D01*
X151947590Y-144990428D01*
X152182786Y-145071171D01*
X152428065Y-145112100D01*
X152676735Y-145112100D01*
X152922014Y-145071171D01*
X153157210Y-144990428D01*
X153375909Y-144872074D01*
X153572144Y-144719338D01*
X153740564Y-144536385D01*
X153839357Y-144385169D01*
X153892503Y-144339813D01*
X153961734Y-144330389D01*
X154025070Y-144359891D01*
X154044741Y-144381868D01*
X154092739Y-144450417D01*
X154253579Y-144611257D01*
X154439917Y-144741734D01*
X154646073Y-144837865D01*
X154646082Y-144837869D01*
X154842399Y-144890472D01*
X154842400Y-144890471D01*
X154842400Y-144044612D01*
X154899407Y-144077525D01*
X155026574Y-144111600D01*
X155158226Y-144111600D01*
X155285393Y-144077525D01*
X155342400Y-144044612D01*
X155342400Y-144890472D01*
X155538717Y-144837869D01*
X155538726Y-144837865D01*
X155744882Y-144741734D01*
X155931220Y-144611257D01*
X156092058Y-144450419D01*
X156140057Y-144381869D01*
X156194634Y-144338243D01*
X156264132Y-144331049D01*
X156326487Y-144362571D01*
X156345442Y-144385169D01*
X156444236Y-144536385D01*
X156612656Y-144719338D01*
X156808891Y-144872074D01*
X157027590Y-144990428D01*
X157262786Y-145071171D01*
X157508065Y-145112100D01*
X157756735Y-145112100D01*
X158002014Y-145071171D01*
X158237210Y-144990428D01*
X158455909Y-144872074D01*
X158652144Y-144719338D01*
X158811171Y-144546588D01*
X158871057Y-144510599D01*
X158940895Y-144512699D01*
X158993628Y-144546588D01*
X159152656Y-144719338D01*
X159348891Y-144872074D01*
X159567590Y-144990428D01*
X159802786Y-145071171D01*
X160048065Y-145112100D01*
X160296735Y-145112100D01*
X160542014Y-145071171D01*
X160777210Y-144990428D01*
X160995909Y-144872074D01*
X161141710Y-144758592D01*
X161206702Y-144732950D01*
X161275242Y-144746516D01*
X161323987Y-144792295D01*
X161356928Y-144846785D01*
X161356931Y-144846789D01*
X161477211Y-144967069D01*
X161477213Y-144967070D01*
X161477215Y-144967072D01*
X161622794Y-145055078D01*
X161785204Y-145105686D01*
X161855784Y-145112100D01*
X161855787Y-145112100D01*
X163569013Y-145112100D01*
X163569016Y-145112100D01*
X163639596Y-145105686D01*
X163802006Y-145055078D01*
X163947585Y-144967072D01*
X164067872Y-144846785D01*
X164155878Y-144701206D01*
X164206486Y-144538796D01*
X164212900Y-144468216D01*
X164212900Y-142754984D01*
X164206486Y-142684404D01*
X164155878Y-142521994D01*
X164067872Y-142376415D01*
X164067870Y-142376413D01*
X164067869Y-142376411D01*
X163947588Y-142256130D01*
X163928151Y-142244380D01*
X163802006Y-142168122D01*
X163639596Y-142117514D01*
X163639594Y-142117513D01*
X163639592Y-142117513D01*
X163590178Y-142113023D01*
X163569016Y-142111100D01*
X161855784Y-142111100D01*
X161836545Y-142112848D01*
X161785207Y-142117513D01*
X161622793Y-142168122D01*
X161477211Y-142256130D01*
X161356930Y-142376411D01*
X161323987Y-142430905D01*
X161272458Y-142478091D01*
X161203599Y-142489929D01*
X161141709Y-142464607D01*
X161098409Y-142430905D01*
X160995909Y-142351126D01*
X160995907Y-142351125D01*
X160995906Y-142351124D01*
X160777211Y-142232772D01*
X160777202Y-142232769D01*
X160542016Y-142152029D01*
X160296735Y-142111100D01*
X160048065Y-142111100D01*
X159802783Y-142152029D01*
X159567597Y-142232769D01*
X159567588Y-142232772D01*
X159348893Y-142351124D01*
X159152657Y-142503861D01*
X158993630Y-142676610D01*
X158933742Y-142712601D01*
X158863904Y-142710500D01*
X158811170Y-142676610D01*
X158756670Y-142617408D01*
X158652144Y-142503862D01*
X158455909Y-142351126D01*
X158455907Y-142351125D01*
X158455906Y-142351124D01*
X158237211Y-142232772D01*
X158237202Y-142232769D01*
X158002016Y-142152029D01*
X157756735Y-142111100D01*
X157508065Y-142111100D01*
X157262783Y-142152029D01*
X157027597Y-142232769D01*
X157027588Y-142232772D01*
X156808893Y-142351124D01*
X156612657Y-142503861D01*
X156444232Y-142686819D01*
X156345441Y-142838030D01*
X156292295Y-142883386D01*
X156223064Y-142892810D01*
X156159728Y-142863308D01*
X156140058Y-142841331D01*
X156092059Y-142772781D01*
X155931220Y-142611942D01*
X155744882Y-142481465D01*
X155538728Y-142385334D01*
X155342400Y-142332727D01*
X155342400Y-143178588D01*
X155285393Y-143145675D01*
X155158226Y-143111600D01*
X155026574Y-143111600D01*
X154899407Y-143145675D01*
X154842400Y-143178588D01*
X154842400Y-142332727D01*
X154646071Y-142385334D01*
X154439917Y-142481465D01*
X154253579Y-142611942D01*
X154092742Y-142772779D01*
X154044741Y-142841332D01*
X153990163Y-142884957D01*
X153920665Y-142892149D01*
X153858310Y-142860627D01*
X153839357Y-142838029D01*
X153740566Y-142686817D01*
X153712347Y-142656163D01*
X153572144Y-142503862D01*
X153375909Y-142351126D01*
X153375907Y-142351125D01*
X153375906Y-142351124D01*
X153157211Y-142232772D01*
X153157202Y-142232769D01*
X152922016Y-142152029D01*
X152676735Y-142111100D01*
X152428065Y-142111100D01*
X152182783Y-142152029D01*
X151947597Y-142232769D01*
X151947588Y-142232772D01*
X151728893Y-142351124D01*
X151532657Y-142503861D01*
X151373630Y-142676610D01*
X151313742Y-142712601D01*
X151243904Y-142710500D01*
X151191170Y-142676610D01*
X151136670Y-142617408D01*
X151032144Y-142503862D01*
X150835909Y-142351126D01*
X150835907Y-142351125D01*
X150835906Y-142351124D01*
X150617211Y-142232772D01*
X150617202Y-142232769D01*
X150382016Y-142152029D01*
X150136735Y-142111100D01*
X149888065Y-142111100D01*
X149642783Y-142152029D01*
X149407597Y-142232769D01*
X149407588Y-142232772D01*
X149188893Y-142351124D01*
X148992657Y-142503861D01*
X148833630Y-142676610D01*
X148773742Y-142712601D01*
X148703904Y-142710500D01*
X148651170Y-142676610D01*
X148596670Y-142617408D01*
X148492144Y-142503862D01*
X148295909Y-142351126D01*
X148295907Y-142351125D01*
X148295906Y-142351124D01*
X148077211Y-142232772D01*
X148077202Y-142232769D01*
X147842016Y-142152029D01*
X147596735Y-142111100D01*
X147348065Y-142111100D01*
X147102783Y-142152029D01*
X146867597Y-142232769D01*
X146867588Y-142232772D01*
X146648893Y-142351124D01*
X146452657Y-142503861D01*
X146293630Y-142676610D01*
X146233742Y-142712601D01*
X146163904Y-142710500D01*
X146111170Y-142676610D01*
X146056670Y-142617408D01*
X145952144Y-142503862D01*
X145755909Y-142351126D01*
X145755907Y-142351125D01*
X145755906Y-142351124D01*
X145537211Y-142232772D01*
X145537205Y-142232770D01*
X145459589Y-142206124D01*
X145402574Y-142165738D01*
X145376444Y-142100938D01*
X145389496Y-142032298D01*
X145412169Y-142001165D01*
X148172585Y-139240751D01*
X148233908Y-139207266D01*
X148260266Y-139204432D01*
X168902852Y-139204432D01*
X169089484Y-139174872D01*
X169269198Y-139116479D01*
X169319205Y-139090998D01*
X169387874Y-139078103D01*
X169452614Y-139104379D01*
X169492872Y-139161485D01*
X169499500Y-139201484D01*
X169499500Y-145679386D01*
X169479815Y-145746425D01*
X169427011Y-145792180D01*
X169357853Y-145802124D01*
X169294297Y-145773099D01*
X169268115Y-145741389D01*
X169232736Y-145680111D01*
X169163021Y-145589256D01*
X169085066Y-145487663D01*
X169085060Y-145487656D01*
X168913543Y-145316139D01*
X168913536Y-145316133D01*
X168721093Y-145168467D01*
X168721092Y-145168466D01*
X168721089Y-145168464D01*
X168511012Y-145047176D01*
X168511005Y-145047173D01*
X168286904Y-144954347D01*
X168052585Y-144891561D01*
X167812089Y-144859900D01*
X167812088Y-144859900D01*
X167569512Y-144859900D01*
X167569511Y-144859900D01*
X167329014Y-144891561D01*
X167094695Y-144954347D01*
X166870594Y-145047173D01*
X166870585Y-145047177D01*
X166660506Y-145168467D01*
X166468063Y-145316133D01*
X166468056Y-145316139D01*
X166296539Y-145487656D01*
X166296533Y-145487663D01*
X166148867Y-145680106D01*
X166027577Y-145890185D01*
X166027573Y-145890194D01*
X165934747Y-146114295D01*
X165871961Y-146348614D01*
X165840300Y-146589111D01*
X165840300Y-146831688D01*
X165871961Y-147072185D01*
X165934747Y-147306504D01*
X166005784Y-147478001D01*
X166027576Y-147530612D01*
X166148864Y-147740689D01*
X166148866Y-147740692D01*
X166148867Y-147740693D01*
X166296533Y-147933136D01*
X166296539Y-147933143D01*
X166468056Y-148104660D01*
X166468062Y-148104665D01*
X166660511Y-148252336D01*
X166687840Y-148268114D01*
X166736054Y-148318681D01*
X166749276Y-148387288D01*
X166723308Y-148452153D01*
X166666393Y-148492680D01*
X166625838Y-148499500D01*
X164546010Y-148499500D01*
X164478971Y-148479815D01*
X164433216Y-148427011D01*
X164422010Y-148375500D01*
X164422010Y-145524484D01*
X158995000Y-145524484D01*
X158995000Y-148375500D01*
X158975315Y-148442539D01*
X158922511Y-148488294D01*
X158871000Y-148499500D01*
X120433479Y-148499500D01*
X120366440Y-148479815D01*
X120320685Y-148427011D01*
X120310741Y-148357853D01*
X120339766Y-148294297D01*
X120357993Y-148277124D01*
X120393809Y-148249640D01*
X120450338Y-148206265D01*
X120621865Y-148034738D01*
X120769536Y-147842289D01*
X120890824Y-147632212D01*
X120983654Y-147408100D01*
X121046438Y-147173789D01*
X121078100Y-146933288D01*
X121078100Y-146690712D01*
X121046438Y-146450211D01*
X120983654Y-146215900D01*
X120890824Y-145991788D01*
X120769536Y-145781711D01*
X120621865Y-145589262D01*
X120621860Y-145589256D01*
X120450343Y-145417739D01*
X120450336Y-145417733D01*
X120257893Y-145270067D01*
X120257892Y-145270066D01*
X120257889Y-145270064D01*
X120047812Y-145148776D01*
X120047805Y-145148773D01*
X119823704Y-145055947D01*
X119589385Y-144993161D01*
X119348889Y-144961500D01*
X119348888Y-144961500D01*
X119106312Y-144961500D01*
X119106311Y-144961500D01*
X118865814Y-144993161D01*
X118631495Y-145055947D01*
X118407394Y-145148773D01*
X118407385Y-145148777D01*
X118197306Y-145270067D01*
X118004863Y-145417733D01*
X118004856Y-145417739D01*
X117833339Y-145589256D01*
X117833333Y-145589263D01*
X117722876Y-145733214D01*
X117666448Y-145774417D01*
X117596702Y-145778572D01*
X117535782Y-145744360D01*
X117503029Y-145682642D01*
X117500500Y-145657728D01*
X117500500Y-83366066D01*
X133104773Y-83366066D01*
X133104773Y-83366069D01*
X133123657Y-83630095D01*
X133123658Y-83630102D01*
X133179921Y-83888741D01*
X133272426Y-84136758D01*
X133272428Y-84136762D01*
X133399280Y-84369073D01*
X133399285Y-84369081D01*
X133557906Y-84580975D01*
X133557922Y-84580993D01*
X133745074Y-84768145D01*
X133745092Y-84768161D01*
X133956986Y-84926782D01*
X133956994Y-84926787D01*
X134189305Y-85053639D01*
X134189309Y-85053641D01*
X134189311Y-85053642D01*
X134437322Y-85146145D01*
X134437325Y-85146145D01*
X134437326Y-85146146D01*
X134632552Y-85188614D01*
X134695974Y-85202411D01*
X134939660Y-85219840D01*
X134959999Y-85221295D01*
X134960000Y-85221295D01*
X134960001Y-85221295D01*
X134978885Y-85219944D01*
X135224026Y-85202411D01*
X135482678Y-85146145D01*
X135730689Y-85053642D01*
X135963011Y-84926784D01*
X136174915Y-84768155D01*
X136362087Y-84580983D01*
X136520716Y-84369079D01*
X136647574Y-84136757D01*
X136740077Y-83888746D01*
X136796343Y-83630094D01*
X136815227Y-83366068D01*
X136796343Y-83102042D01*
X136740077Y-82843390D01*
X136647574Y-82595379D01*
X136520716Y-82363057D01*
X136520714Y-82363054D01*
X136362093Y-82151160D01*
X136362077Y-82151142D01*
X136174925Y-81963990D01*
X136174907Y-81963974D01*
X135963013Y-81805353D01*
X135963005Y-81805348D01*
X135730694Y-81678496D01*
X135730690Y-81678494D01*
X135482673Y-81585989D01*
X135224034Y-81529726D01*
X135224027Y-81529725D01*
X134960001Y-81510841D01*
X134959999Y-81510841D01*
X134695972Y-81529725D01*
X134695965Y-81529726D01*
X134437326Y-81585989D01*
X134189309Y-81678494D01*
X134189305Y-81678496D01*
X133956994Y-81805348D01*
X133956986Y-81805353D01*
X133745092Y-81963974D01*
X133745074Y-81963990D01*
X133557922Y-82151142D01*
X133557906Y-82151160D01*
X133399285Y-82363054D01*
X133399280Y-82363062D01*
X133272428Y-82595373D01*
X133272426Y-82595377D01*
X133179921Y-82843394D01*
X133123658Y-83102033D01*
X133123657Y-83102040D01*
X133104773Y-83366066D01*
X117500500Y-83366066D01*
X117500500Y-80041932D01*
X125644642Y-80041932D01*
X125664251Y-80328612D01*
X125722716Y-80609966D01*
X125722717Y-80609969D01*
X125818944Y-80880725D01*
X125818943Y-80880725D01*
X125951148Y-81135867D01*
X126116862Y-81370632D01*
X126201973Y-81461763D01*
X126312997Y-81580640D01*
X126535903Y-81761987D01*
X126770106Y-81904410D01*
X126781432Y-81911297D01*
X126968287Y-81992458D01*
X127044992Y-82025776D01*
X127321692Y-82103303D01*
X127571970Y-82137703D01*
X127606371Y-82142432D01*
X127606372Y-82142432D01*
X127893729Y-82142432D01*
X127924420Y-82138213D01*
X128178408Y-82103303D01*
X128455108Y-82025776D01*
X128626671Y-81951256D01*
X128718667Y-81911297D01*
X128718670Y-81911295D01*
X128718675Y-81911293D01*
X128964197Y-81761987D01*
X129187103Y-81580640D01*
X129383239Y-81370630D01*
X129548951Y-81135868D01*
X129681154Y-80880729D01*
X129777384Y-80609964D01*
X129835848Y-80328618D01*
X129855458Y-80041932D01*
X129835848Y-79755246D01*
X129777384Y-79473900D01*
X129681155Y-79203138D01*
X129681156Y-79203138D01*
X129548951Y-78947996D01*
X129383237Y-78713231D01*
X129304604Y-78629037D01*
X129187103Y-78503224D01*
X128964197Y-78321877D01*
X128964196Y-78321876D01*
X128718667Y-78172566D01*
X128455113Y-78058090D01*
X128455111Y-78058089D01*
X128455108Y-78058088D01*
X128325628Y-78021809D01*
X128178414Y-77980562D01*
X128178409Y-77980561D01*
X128178408Y-77980561D01*
X128036068Y-77960996D01*
X127893729Y-77941432D01*
X127893728Y-77941432D01*
X127606372Y-77941432D01*
X127606371Y-77941432D01*
X127321692Y-77980561D01*
X127321685Y-77980562D01*
X127113911Y-78038777D01*
X127044992Y-78058088D01*
X127044989Y-78058088D01*
X127044986Y-78058090D01*
X127044985Y-78058090D01*
X126781432Y-78172566D01*
X126535903Y-78321876D01*
X126313000Y-78503221D01*
X126116862Y-78713231D01*
X125951148Y-78947996D01*
X125818944Y-79203138D01*
X125722717Y-79473894D01*
X125722716Y-79473897D01*
X125664251Y-79755251D01*
X125644642Y-80041932D01*
X117500500Y-80041932D01*
X117500500Y-59841932D01*
X125644642Y-59841932D01*
X125664251Y-60128612D01*
X125722716Y-60409966D01*
X125722717Y-60409969D01*
X125818944Y-60680725D01*
X125818943Y-60680725D01*
X125951148Y-60935867D01*
X126116862Y-61170632D01*
X126201973Y-61261763D01*
X126312997Y-61380640D01*
X126535903Y-61561987D01*
X126703474Y-61663890D01*
X126781432Y-61711297D01*
X126957820Y-61787912D01*
X127044992Y-61825776D01*
X127321692Y-61903303D01*
X127571970Y-61937703D01*
X127606371Y-61942432D01*
X127606372Y-61942432D01*
X127893729Y-61942432D01*
X127924420Y-61938213D01*
X128178408Y-61903303D01*
X128455108Y-61825776D01*
X128570733Y-61775553D01*
X128718667Y-61711297D01*
X128718670Y-61711295D01*
X128718675Y-61711293D01*
X128964197Y-61561987D01*
X129187103Y-61380640D01*
X129383239Y-61170630D01*
X129548951Y-60935868D01*
X129681154Y-60680729D01*
X129777384Y-60409964D01*
X129835848Y-60128618D01*
X129855458Y-59841932D01*
X129835848Y-59555246D01*
X129777384Y-59273900D01*
X129772972Y-59261487D01*
X129681155Y-59003138D01*
X129681156Y-59003138D01*
X129548951Y-58747996D01*
X129383237Y-58513231D01*
X129243648Y-58363769D01*
X129187103Y-58303224D01*
X128964197Y-58121877D01*
X128964196Y-58121876D01*
X128718667Y-57972566D01*
X128455113Y-57858090D01*
X128455111Y-57858089D01*
X128455108Y-57858088D01*
X128325628Y-57821809D01*
X128178414Y-57780562D01*
X128178409Y-57780561D01*
X128178408Y-57780561D01*
X128036068Y-57760996D01*
X127893729Y-57741432D01*
X127893728Y-57741432D01*
X127606372Y-57741432D01*
X127606371Y-57741432D01*
X127321692Y-57780561D01*
X127321685Y-57780562D01*
X127113911Y-57838777D01*
X127044992Y-57858088D01*
X127044989Y-57858088D01*
X127044986Y-57858090D01*
X127044985Y-57858090D01*
X126781432Y-57972566D01*
X126535903Y-58121876D01*
X126313000Y-58303221D01*
X126116862Y-58513231D01*
X125951148Y-58747996D01*
X125818944Y-59003138D01*
X125722717Y-59273894D01*
X125722716Y-59273897D01*
X125664251Y-59555251D01*
X125644642Y-59841932D01*
X117500500Y-59841932D01*
X117500500Y-53649927D01*
X130175532Y-53649927D01*
X130175532Y-53649936D01*
X130194577Y-53904086D01*
X130213524Y-53987100D01*
X130251292Y-54152569D01*
X130344407Y-54389820D01*
X130471841Y-54610544D01*
X130630750Y-54809809D01*
X130817583Y-54983164D01*
X131028166Y-55126737D01*
X131028171Y-55126739D01*
X131028172Y-55126740D01*
X131028173Y-55126741D01*
X131150128Y-55185470D01*
X131257792Y-55237319D01*
X131257793Y-55237319D01*
X131257796Y-55237321D01*
X131501342Y-55312445D01*
X131753365Y-55350432D01*
X132008235Y-55350432D01*
X132260258Y-55312445D01*
X132503804Y-55237321D01*
X132733434Y-55126737D01*
X132944017Y-54983164D01*
X133130850Y-54809809D01*
X133289759Y-54610544D01*
X133417193Y-54389820D01*
X133510308Y-54152569D01*
X133567022Y-53904089D01*
X133578988Y-53744411D01*
X133586068Y-53649936D01*
X133586068Y-53649927D01*
X133567022Y-53395777D01*
X133510309Y-53147301D01*
X133510308Y-53147295D01*
X133417193Y-52910044D01*
X133289759Y-52689320D01*
X133130850Y-52490055D01*
X132944017Y-52316700D01*
X132733434Y-52173127D01*
X132733430Y-52173125D01*
X132733427Y-52173123D01*
X132733426Y-52173122D01*
X132503806Y-52062544D01*
X132503808Y-52062544D01*
X132260266Y-51987421D01*
X132260262Y-51987420D01*
X132260258Y-51987419D01*
X132139031Y-51969146D01*
X132008240Y-51949432D01*
X132008235Y-51949432D01*
X131753365Y-51949432D01*
X131753359Y-51949432D01*
X131596409Y-51973089D01*
X131501342Y-51987419D01*
X131501339Y-51987420D01*
X131501333Y-51987421D01*
X131257792Y-52062544D01*
X131028173Y-52173122D01*
X131028172Y-52173123D01*
X130817582Y-52316700D01*
X130630752Y-52490053D01*
X130630750Y-52490055D01*
X130471841Y-52689320D01*
X130344408Y-52910041D01*
X130251292Y-53147294D01*
X130251290Y-53147301D01*
X130194577Y-53395777D01*
X130175532Y-53649927D01*
X117500500Y-53649927D01*
X117500500Y-50184384D01*
X117520185Y-50117345D01*
X117572989Y-50071590D01*
X117642147Y-50061646D01*
X117705703Y-50090671D01*
X117731885Y-50122381D01*
X117838064Y-50306289D01*
X117838066Y-50306292D01*
X117838067Y-50306293D01*
X117985733Y-50498736D01*
X117985739Y-50498743D01*
X118157256Y-50670260D01*
X118157262Y-50670265D01*
X118349711Y-50817936D01*
X118559788Y-50939224D01*
X118783900Y-51032054D01*
X119018211Y-51094838D01*
X119198586Y-51118584D01*
X119258711Y-51126500D01*
X119258712Y-51126500D01*
X119501289Y-51126500D01*
X119549388Y-51120167D01*
X119741789Y-51094838D01*
X119976100Y-51032054D01*
X120200212Y-50939224D01*
X120410289Y-50817936D01*
X120602738Y-50670265D01*
X120774265Y-50498738D01*
X120921936Y-50306289D01*
X121043224Y-50096212D01*
X121136054Y-49872100D01*
X121198838Y-49637789D01*
X121230500Y-49397288D01*
X121230500Y-49154712D01*
X121198838Y-48914211D01*
X121136054Y-48679900D01*
X121043224Y-48455788D01*
X120921936Y-48245711D01*
X120774265Y-48053262D01*
X120774260Y-48053256D01*
X120602743Y-47881739D01*
X120602736Y-47881733D01*
X120410292Y-47734066D01*
X120410289Y-47734064D01*
X120406517Y-47731886D01*
X120358302Y-47681322D01*
X120345078Y-47612715D01*
X120371045Y-47547850D01*
X120427959Y-47507321D01*
X120468517Y-47500500D01*
X131322683Y-47500500D01*
X131389722Y-47520185D01*
G37*
%TD.AperFunction*%
%TA.AperFunction,Conductor*%
G36*
X160422400Y-129650472D02*
G01*
X160618717Y-129597869D01*
X160618726Y-129597865D01*
X160824882Y-129501734D01*
X161011220Y-129371257D01*
X161172058Y-129210419D01*
X161220057Y-129141869D01*
X161274634Y-129098243D01*
X161344132Y-129091049D01*
X161406487Y-129122571D01*
X161425442Y-129145169D01*
X161524236Y-129296385D01*
X161692656Y-129479338D01*
X161888891Y-129632074D01*
X162107590Y-129750428D01*
X162342786Y-129831171D01*
X162588065Y-129872100D01*
X162836735Y-129872100D01*
X163082014Y-129831171D01*
X163317210Y-129750428D01*
X163535909Y-129632074D01*
X163702138Y-129502693D01*
X163767132Y-129477050D01*
X163835672Y-129490617D01*
X163885996Y-129539085D01*
X163902300Y-129600546D01*
X163902300Y-131517500D01*
X163882615Y-131584539D01*
X163829811Y-131630294D01*
X163778300Y-131641500D01*
X142042997Y-131641500D01*
X141975958Y-131621815D01*
X141955316Y-131605181D01*
X140332172Y-129982037D01*
X140298687Y-129920714D01*
X140303671Y-129851022D01*
X140345543Y-129795089D01*
X140379591Y-129777075D01*
X140457199Y-129750432D01*
X140457202Y-129750430D01*
X140457210Y-129750428D01*
X140675909Y-129632074D01*
X140872144Y-129479338D01*
X141031171Y-129306588D01*
X141091057Y-129270599D01*
X141160895Y-129272699D01*
X141213628Y-129306588D01*
X141372656Y-129479338D01*
X141568891Y-129632074D01*
X141787590Y-129750428D01*
X142022786Y-129831171D01*
X142268065Y-129872100D01*
X142516735Y-129872100D01*
X142762014Y-129831171D01*
X142997210Y-129750428D01*
X143215909Y-129632074D01*
X143412144Y-129479338D01*
X143571171Y-129306588D01*
X143631057Y-129270599D01*
X143700895Y-129272699D01*
X143753628Y-129306588D01*
X143912656Y-129479338D01*
X144108891Y-129632074D01*
X144327590Y-129750428D01*
X144562786Y-129831171D01*
X144808065Y-129872100D01*
X145056735Y-129872100D01*
X145302014Y-129831171D01*
X145537210Y-129750428D01*
X145755909Y-129632074D01*
X145952144Y-129479338D01*
X146111171Y-129306588D01*
X146171057Y-129270599D01*
X146240895Y-129272699D01*
X146293628Y-129306588D01*
X146452656Y-129479338D01*
X146648891Y-129632074D01*
X146867590Y-129750428D01*
X147102786Y-129831171D01*
X147348065Y-129872100D01*
X147596735Y-129872100D01*
X147842014Y-129831171D01*
X148077210Y-129750428D01*
X148295909Y-129632074D01*
X148492144Y-129479338D01*
X148651171Y-129306588D01*
X148711057Y-129270599D01*
X148780895Y-129272699D01*
X148833628Y-129306588D01*
X148992656Y-129479338D01*
X149188891Y-129632074D01*
X149407590Y-129750428D01*
X149642786Y-129831171D01*
X149888065Y-129872100D01*
X150136735Y-129872100D01*
X150382014Y-129831171D01*
X150617210Y-129750428D01*
X150835909Y-129632074D01*
X151032144Y-129479338D01*
X151191171Y-129306588D01*
X151251057Y-129270599D01*
X151320895Y-129272699D01*
X151373628Y-129306588D01*
X151532656Y-129479338D01*
X151728891Y-129632074D01*
X151947590Y-129750428D01*
X152182786Y-129831171D01*
X152428065Y-129872100D01*
X152676735Y-129872100D01*
X152922014Y-129831171D01*
X153157210Y-129750428D01*
X153375909Y-129632074D01*
X153572144Y-129479338D01*
X153731171Y-129306588D01*
X153791057Y-129270599D01*
X153860895Y-129272699D01*
X153913628Y-129306588D01*
X154072656Y-129479338D01*
X154268891Y-129632074D01*
X154487590Y-129750428D01*
X154722786Y-129831171D01*
X154968065Y-129872100D01*
X155216735Y-129872100D01*
X155462014Y-129831171D01*
X155697210Y-129750428D01*
X155915909Y-129632074D01*
X156112144Y-129479338D01*
X156271171Y-129306588D01*
X156331057Y-129270599D01*
X156400895Y-129272699D01*
X156453628Y-129306588D01*
X156612656Y-129479338D01*
X156808891Y-129632074D01*
X157027590Y-129750428D01*
X157262786Y-129831171D01*
X157508065Y-129872100D01*
X157756735Y-129872100D01*
X158002014Y-129831171D01*
X158237210Y-129750428D01*
X158455909Y-129632074D01*
X158652144Y-129479338D01*
X158820564Y-129296385D01*
X158919357Y-129145169D01*
X158972503Y-129099813D01*
X159041734Y-129090389D01*
X159105070Y-129119891D01*
X159124741Y-129141868D01*
X159172739Y-129210417D01*
X159333579Y-129371257D01*
X159519917Y-129501734D01*
X159726073Y-129597865D01*
X159726082Y-129597869D01*
X159922399Y-129650472D01*
X159922400Y-129650471D01*
X159922400Y-128804612D01*
X159979407Y-128837525D01*
X160106574Y-128871600D01*
X160238226Y-128871600D01*
X160365393Y-128837525D01*
X160422400Y-128804612D01*
X160422400Y-129650472D01*
G37*
%TD.AperFunction*%
%TA.AperFunction,Conductor*%
G36*
X138339832Y-120799785D02*
G01*
X138385587Y-120852589D01*
X138395531Y-120921747D01*
X138366506Y-120985303D01*
X138320245Y-121018661D01*
X138139288Y-121093614D01*
X138139272Y-121093622D01*
X137945727Y-121205366D01*
X137945711Y-121205377D01*
X137768404Y-121341429D01*
X137768397Y-121341435D01*
X137610367Y-121499465D01*
X137610361Y-121499472D01*
X137474309Y-121676779D01*
X137474298Y-121676795D01*
X137362554Y-121870340D01*
X137362546Y-121870356D01*
X137277020Y-122076837D01*
X137219172Y-122292728D01*
X137208201Y-122376068D01*
X138678309Y-122376068D01*
X138630934Y-122423443D01*
X138587489Y-122498693D01*
X138565000Y-122582623D01*
X138565000Y-122669513D01*
X138587489Y-122753443D01*
X138630934Y-122828693D01*
X138678309Y-122876068D01*
X137208201Y-122876068D01*
X137219172Y-122959407D01*
X137277020Y-123175298D01*
X137362546Y-123381779D01*
X137362554Y-123381795D01*
X137474298Y-123575340D01*
X137474309Y-123575356D01*
X137610361Y-123752663D01*
X137610367Y-123752670D01*
X137768397Y-123910700D01*
X137768404Y-123910706D01*
X137945711Y-124046758D01*
X137945727Y-124046769D01*
X138139272Y-124158513D01*
X138139288Y-124158521D01*
X138345769Y-124244047D01*
X138561660Y-124301895D01*
X138783238Y-124331066D01*
X138783255Y-124331068D01*
X139450000Y-124331068D01*
X139450000Y-122956068D01*
X139950000Y-122956068D01*
X139950000Y-124331068D01*
X140616745Y-124331068D01*
X140616761Y-124331066D01*
X140838339Y-124301895D01*
X141054230Y-124244047D01*
X141260711Y-124158521D01*
X141260727Y-124158513D01*
X141454272Y-124046769D01*
X141454288Y-124046758D01*
X141631595Y-123910706D01*
X141631602Y-123910700D01*
X141789632Y-123752670D01*
X141789638Y-123752663D01*
X141925690Y-123575356D01*
X141925701Y-123575340D01*
X142037445Y-123381795D01*
X142037453Y-123381779D01*
X142122979Y-123175298D01*
X142180827Y-122959407D01*
X142191799Y-122876068D01*
X140721691Y-122876068D01*
X140769066Y-122828693D01*
X140812511Y-122753443D01*
X140835000Y-122669513D01*
X140835000Y-122582623D01*
X140812511Y-122498693D01*
X140769066Y-122423443D01*
X140721691Y-122376068D01*
X142191798Y-122376068D01*
X142180827Y-122292728D01*
X142122979Y-122076837D01*
X142037453Y-121870356D01*
X142037445Y-121870340D01*
X141925701Y-121676795D01*
X141925690Y-121676779D01*
X141789638Y-121499472D01*
X141789632Y-121499465D01*
X141631602Y-121341435D01*
X141631595Y-121341429D01*
X141454288Y-121205377D01*
X141454272Y-121205366D01*
X141260727Y-121093622D01*
X141260711Y-121093614D01*
X141079755Y-121018661D01*
X141025351Y-120974820D01*
X141003286Y-120908526D01*
X141020565Y-120840827D01*
X141071702Y-120793216D01*
X141127207Y-120780100D01*
X149921077Y-120780100D01*
X149988116Y-120799785D01*
X150033871Y-120852589D01*
X150043815Y-120921747D01*
X150018690Y-120980570D01*
X150014531Y-120985878D01*
X149926522Y-121131461D01*
X149875913Y-121293875D01*
X149869500Y-121364454D01*
X149869500Y-123887681D01*
X149875913Y-123958260D01*
X149926522Y-124120674D01*
X150014530Y-124266256D01*
X150134811Y-124386537D01*
X150134813Y-124386538D01*
X150134815Y-124386540D01*
X150280394Y-124474546D01*
X150442804Y-124525154D01*
X150513384Y-124531568D01*
X150513387Y-124531568D01*
X154646613Y-124531568D01*
X154646616Y-124531568D01*
X154717196Y-124525154D01*
X154879606Y-124474546D01*
X155025185Y-124386540D01*
X155145472Y-124266253D01*
X155233478Y-124120674D01*
X155284086Y-123958264D01*
X155285805Y-123939345D01*
X155311476Y-123874363D01*
X155368204Y-123833575D01*
X155409296Y-123826568D01*
X157549612Y-123826568D01*
X157616651Y-123846253D01*
X157637293Y-123862887D01*
X160702687Y-126928281D01*
X160736172Y-126989604D01*
X160731188Y-127059296D01*
X160689316Y-127115229D01*
X160623852Y-127139646D01*
X160582912Y-127135737D01*
X160422400Y-127092727D01*
X160422400Y-127938588D01*
X160365393Y-127905675D01*
X160238226Y-127871600D01*
X160106574Y-127871600D01*
X159979407Y-127905675D01*
X159922400Y-127938588D01*
X159922400Y-127092727D01*
X159726071Y-127145334D01*
X159519917Y-127241465D01*
X159333579Y-127371942D01*
X159172742Y-127532779D01*
X159124741Y-127601332D01*
X159070163Y-127644957D01*
X159000665Y-127652149D01*
X158938310Y-127620627D01*
X158919357Y-127598029D01*
X158820566Y-127446817D01*
X158792347Y-127416163D01*
X158652144Y-127263862D01*
X158455909Y-127111126D01*
X158455907Y-127111125D01*
X158455906Y-127111124D01*
X158237211Y-126992772D01*
X158237202Y-126992769D01*
X158002016Y-126912029D01*
X157756735Y-126871100D01*
X157508065Y-126871100D01*
X157262783Y-126912029D01*
X157027597Y-126992769D01*
X157027588Y-126992772D01*
X156808893Y-127111124D01*
X156612657Y-127263861D01*
X156453630Y-127436610D01*
X156393742Y-127472601D01*
X156323904Y-127470500D01*
X156271170Y-127436610D01*
X156216670Y-127377408D01*
X156112144Y-127263862D01*
X155915909Y-127111126D01*
X155915907Y-127111125D01*
X155915906Y-127111124D01*
X155697211Y-126992772D01*
X155697202Y-126992769D01*
X155462016Y-126912029D01*
X155216735Y-126871100D01*
X154968065Y-126871100D01*
X154722783Y-126912029D01*
X154487597Y-126992769D01*
X154487588Y-126992772D01*
X154268893Y-127111124D01*
X154072657Y-127263861D01*
X153913630Y-127436610D01*
X153853742Y-127472601D01*
X153783904Y-127470500D01*
X153731170Y-127436610D01*
X153676670Y-127377408D01*
X153572144Y-127263862D01*
X153375909Y-127111126D01*
X153375907Y-127111125D01*
X153375906Y-127111124D01*
X153157211Y-126992772D01*
X153157202Y-126992769D01*
X152922016Y-126912029D01*
X152676735Y-126871100D01*
X152428065Y-126871100D01*
X152182783Y-126912029D01*
X151947597Y-126992769D01*
X151947588Y-126992772D01*
X151728893Y-127111124D01*
X151532657Y-127263861D01*
X151373630Y-127436610D01*
X151313742Y-127472601D01*
X151243904Y-127470500D01*
X151191170Y-127436610D01*
X151136670Y-127377408D01*
X151032144Y-127263862D01*
X150835909Y-127111126D01*
X150835907Y-127111125D01*
X150835906Y-127111124D01*
X150617211Y-126992772D01*
X150617202Y-126992769D01*
X150382016Y-126912029D01*
X150136735Y-126871100D01*
X149888065Y-126871100D01*
X149642783Y-126912029D01*
X149407597Y-126992769D01*
X149407588Y-126992772D01*
X149188893Y-127111124D01*
X148992657Y-127263861D01*
X148833630Y-127436610D01*
X148773742Y-127472601D01*
X148703904Y-127470500D01*
X148651170Y-127436610D01*
X148596670Y-127377408D01*
X148492144Y-127263862D01*
X148295909Y-127111126D01*
X148295907Y-127111125D01*
X148295906Y-127111124D01*
X148077211Y-126992772D01*
X148077202Y-126992769D01*
X147842016Y-126912029D01*
X147596735Y-126871100D01*
X147348065Y-126871100D01*
X147102783Y-126912029D01*
X146867597Y-126992769D01*
X146867588Y-126992772D01*
X146648893Y-127111124D01*
X146452657Y-127263861D01*
X146293630Y-127436610D01*
X146233742Y-127472601D01*
X146163904Y-127470500D01*
X146111170Y-127436610D01*
X146056670Y-127377408D01*
X145952144Y-127263862D01*
X145755909Y-127111126D01*
X145755907Y-127111125D01*
X145755906Y-127111124D01*
X145537211Y-126992772D01*
X145537202Y-126992769D01*
X145302016Y-126912029D01*
X145056735Y-126871100D01*
X144808065Y-126871100D01*
X144562783Y-126912029D01*
X144327597Y-126992769D01*
X144327588Y-126992772D01*
X144108893Y-127111124D01*
X143912657Y-127263861D01*
X143753630Y-127436610D01*
X143693742Y-127472601D01*
X143623904Y-127470500D01*
X143571170Y-127436610D01*
X143516670Y-127377408D01*
X143412144Y-127263862D01*
X143215909Y-127111126D01*
X143215907Y-127111125D01*
X143215906Y-127111124D01*
X142997211Y-126992772D01*
X142997202Y-126992769D01*
X142762016Y-126912029D01*
X142516735Y-126871100D01*
X142268065Y-126871100D01*
X142022783Y-126912029D01*
X141787597Y-126992769D01*
X141787588Y-126992772D01*
X141568893Y-127111124D01*
X141372657Y-127263861D01*
X141213630Y-127436610D01*
X141153742Y-127472601D01*
X141083904Y-127470500D01*
X141031170Y-127436610D01*
X140976670Y-127377408D01*
X140872144Y-127263862D01*
X140675909Y-127111126D01*
X140675907Y-127111125D01*
X140675906Y-127111124D01*
X140457211Y-126992772D01*
X140457202Y-126992769D01*
X140222016Y-126912029D01*
X139976735Y-126871100D01*
X139728065Y-126871100D01*
X139482783Y-126912029D01*
X139247597Y-126992769D01*
X139247588Y-126992772D01*
X139028893Y-127111124D01*
X138832657Y-127263861D01*
X138673630Y-127436610D01*
X138613742Y-127472601D01*
X138543904Y-127470500D01*
X138491170Y-127436610D01*
X138436670Y-127377408D01*
X138332144Y-127263862D01*
X138135909Y-127111126D01*
X138135907Y-127111125D01*
X138135906Y-127111124D01*
X137917211Y-126992772D01*
X137917202Y-126992769D01*
X137682016Y-126912029D01*
X137436735Y-126871100D01*
X137188065Y-126871100D01*
X136942783Y-126912029D01*
X136707597Y-126992769D01*
X136707588Y-126992772D01*
X136488893Y-127111124D01*
X136292657Y-127263861D01*
X136292656Y-127263862D01*
X136193162Y-127371942D01*
X136188130Y-127377408D01*
X136128243Y-127413398D01*
X136058405Y-127411298D01*
X136000788Y-127371774D01*
X135973687Y-127307375D01*
X135972900Y-127293425D01*
X135972900Y-120904100D01*
X135992585Y-120837061D01*
X136045389Y-120791306D01*
X136096900Y-120780100D01*
X138272793Y-120780100D01*
X138339832Y-120799785D01*
G37*
%TD.AperFunction*%
%TD*%
M02*
