%TF.GenerationSoftware,KiCad,Pcbnew,8.0.2*%
%TF.CreationDate,2024-05-08T14:27:53+01:00*%
%TF.ProjectId,Left_Controller_PCB_Bluetooth,4c656674-5f43-46f6-9e74-726f6c6c6572,V01*%
%TF.SameCoordinates,Original*%
%TF.FileFunction,Legend,Bot*%
%TF.FilePolarity,Positive*%
%FSLAX46Y46*%
G04 Gerber Fmt 4.6, Leading zero omitted, Abs format (unit mm)*
G04 Created by KiCad (PCBNEW 8.0.2) date 2024-05-08 14:27:53*
%MOMM*%
%LPD*%
G01*
G04 APERTURE LIST*
%ADD10C,0.150000*%
%ADD11C,0.120000*%
G04 APERTURE END LIST*
D10*
X148186210Y-140415180D02*
X148233829Y-140462800D01*
X148233829Y-140462800D02*
X148376686Y-140510419D01*
X148376686Y-140510419D02*
X148471924Y-140510419D01*
X148471924Y-140510419D02*
X148614781Y-140462800D01*
X148614781Y-140462800D02*
X148710019Y-140367561D01*
X148710019Y-140367561D02*
X148757638Y-140272323D01*
X148757638Y-140272323D02*
X148805257Y-140081847D01*
X148805257Y-140081847D02*
X148805257Y-139938990D01*
X148805257Y-139938990D02*
X148757638Y-139748514D01*
X148757638Y-139748514D02*
X148710019Y-139653276D01*
X148710019Y-139653276D02*
X148614781Y-139558038D01*
X148614781Y-139558038D02*
X148471924Y-139510419D01*
X148471924Y-139510419D02*
X148376686Y-139510419D01*
X148376686Y-139510419D02*
X148233829Y-139558038D01*
X148233829Y-139558038D02*
X148186210Y-139605657D01*
X147376686Y-140462800D02*
X147471924Y-140510419D01*
X147471924Y-140510419D02*
X147662400Y-140510419D01*
X147662400Y-140510419D02*
X147757638Y-140462800D01*
X147757638Y-140462800D02*
X147805257Y-140367561D01*
X147805257Y-140367561D02*
X147805257Y-139986609D01*
X147805257Y-139986609D02*
X147757638Y-139891371D01*
X147757638Y-139891371D02*
X147662400Y-139843752D01*
X147662400Y-139843752D02*
X147471924Y-139843752D01*
X147471924Y-139843752D02*
X147376686Y-139891371D01*
X147376686Y-139891371D02*
X147329067Y-139986609D01*
X147329067Y-139986609D02*
X147329067Y-140081847D01*
X147329067Y-140081847D02*
X147805257Y-140177085D01*
X146900495Y-139843752D02*
X146900495Y-140510419D01*
X146900495Y-139938990D02*
X146852876Y-139891371D01*
X146852876Y-139891371D02*
X146757638Y-139843752D01*
X146757638Y-139843752D02*
X146614781Y-139843752D01*
X146614781Y-139843752D02*
X146519543Y-139891371D01*
X146519543Y-139891371D02*
X146471924Y-139986609D01*
X146471924Y-139986609D02*
X146471924Y-140510419D01*
X146138590Y-139843752D02*
X145757638Y-139843752D01*
X145995733Y-139510419D02*
X145995733Y-140367561D01*
X145995733Y-140367561D02*
X145948114Y-140462800D01*
X145948114Y-140462800D02*
X145852876Y-140510419D01*
X145852876Y-140510419D02*
X145757638Y-140510419D01*
X145424304Y-140510419D02*
X145424304Y-139843752D01*
X145424304Y-140034228D02*
X145376685Y-139938990D01*
X145376685Y-139938990D02*
X145329066Y-139891371D01*
X145329066Y-139891371D02*
X145233828Y-139843752D01*
X145233828Y-139843752D02*
X145138590Y-139843752D01*
X144376685Y-140510419D02*
X144376685Y-139986609D01*
X144376685Y-139986609D02*
X144424304Y-139891371D01*
X144424304Y-139891371D02*
X144519542Y-139843752D01*
X144519542Y-139843752D02*
X144710018Y-139843752D01*
X144710018Y-139843752D02*
X144805256Y-139891371D01*
X144376685Y-140462800D02*
X144471923Y-140510419D01*
X144471923Y-140510419D02*
X144710018Y-140510419D01*
X144710018Y-140510419D02*
X144805256Y-140462800D01*
X144805256Y-140462800D02*
X144852875Y-140367561D01*
X144852875Y-140367561D02*
X144852875Y-140272323D01*
X144852875Y-140272323D02*
X144805256Y-140177085D01*
X144805256Y-140177085D02*
X144710018Y-140129466D01*
X144710018Y-140129466D02*
X144471923Y-140129466D01*
X144471923Y-140129466D02*
X144376685Y-140081847D01*
X143757637Y-140510419D02*
X143852875Y-140462800D01*
X143852875Y-140462800D02*
X143900494Y-140367561D01*
X143900494Y-140367561D02*
X143900494Y-139510419D01*
X143043351Y-139986609D02*
X142900494Y-140034228D01*
X142900494Y-140034228D02*
X142852875Y-140081847D01*
X142852875Y-140081847D02*
X142805256Y-140177085D01*
X142805256Y-140177085D02*
X142805256Y-140319942D01*
X142805256Y-140319942D02*
X142852875Y-140415180D01*
X142852875Y-140415180D02*
X142900494Y-140462800D01*
X142900494Y-140462800D02*
X142995732Y-140510419D01*
X142995732Y-140510419D02*
X143376684Y-140510419D01*
X143376684Y-140510419D02*
X143376684Y-139510419D01*
X143376684Y-139510419D02*
X143043351Y-139510419D01*
X143043351Y-139510419D02*
X142948113Y-139558038D01*
X142948113Y-139558038D02*
X142900494Y-139605657D01*
X142900494Y-139605657D02*
X142852875Y-139700895D01*
X142852875Y-139700895D02*
X142852875Y-139796133D01*
X142852875Y-139796133D02*
X142900494Y-139891371D01*
X142900494Y-139891371D02*
X142948113Y-139938990D01*
X142948113Y-139938990D02*
X143043351Y-139986609D01*
X143043351Y-139986609D02*
X143376684Y-139986609D01*
X142233827Y-140510419D02*
X142329065Y-140462800D01*
X142329065Y-140462800D02*
X142376684Y-140415180D01*
X142376684Y-140415180D02*
X142424303Y-140319942D01*
X142424303Y-140319942D02*
X142424303Y-140034228D01*
X142424303Y-140034228D02*
X142376684Y-139938990D01*
X142376684Y-139938990D02*
X142329065Y-139891371D01*
X142329065Y-139891371D02*
X142233827Y-139843752D01*
X142233827Y-139843752D02*
X142090970Y-139843752D01*
X142090970Y-139843752D02*
X141995732Y-139891371D01*
X141995732Y-139891371D02*
X141948113Y-139938990D01*
X141948113Y-139938990D02*
X141900494Y-140034228D01*
X141900494Y-140034228D02*
X141900494Y-140319942D01*
X141900494Y-140319942D02*
X141948113Y-140415180D01*
X141948113Y-140415180D02*
X141995732Y-140462800D01*
X141995732Y-140462800D02*
X142090970Y-140510419D01*
X142090970Y-140510419D02*
X142233827Y-140510419D01*
X141043351Y-140510419D02*
X141043351Y-139986609D01*
X141043351Y-139986609D02*
X141090970Y-139891371D01*
X141090970Y-139891371D02*
X141186208Y-139843752D01*
X141186208Y-139843752D02*
X141376684Y-139843752D01*
X141376684Y-139843752D02*
X141471922Y-139891371D01*
X141043351Y-140462800D02*
X141138589Y-140510419D01*
X141138589Y-140510419D02*
X141376684Y-140510419D01*
X141376684Y-140510419D02*
X141471922Y-140462800D01*
X141471922Y-140462800D02*
X141519541Y-140367561D01*
X141519541Y-140367561D02*
X141519541Y-140272323D01*
X141519541Y-140272323D02*
X141471922Y-140177085D01*
X141471922Y-140177085D02*
X141376684Y-140129466D01*
X141376684Y-140129466D02*
X141138589Y-140129466D01*
X141138589Y-140129466D02*
X141043351Y-140081847D01*
X140567160Y-140510419D02*
X140567160Y-139843752D01*
X140567160Y-140034228D02*
X140519541Y-139938990D01*
X140519541Y-139938990D02*
X140471922Y-139891371D01*
X140471922Y-139891371D02*
X140376684Y-139843752D01*
X140376684Y-139843752D02*
X140281446Y-139843752D01*
X139519541Y-140510419D02*
X139519541Y-139510419D01*
X139519541Y-140462800D02*
X139614779Y-140510419D01*
X139614779Y-140510419D02*
X139805255Y-140510419D01*
X139805255Y-140510419D02*
X139900493Y-140462800D01*
X139900493Y-140462800D02*
X139948112Y-140415180D01*
X139948112Y-140415180D02*
X139995731Y-140319942D01*
X139995731Y-140319942D02*
X139995731Y-140034228D01*
X139995731Y-140034228D02*
X139948112Y-139938990D01*
X139948112Y-139938990D02*
X139900493Y-139891371D01*
X139900493Y-139891371D02*
X139805255Y-139843752D01*
X139805255Y-139843752D02*
X139614779Y-139843752D01*
X139614779Y-139843752D02*
X139519541Y-139891371D01*
X138519541Y-140510419D02*
X139090969Y-140510419D01*
X138805255Y-140510419D02*
X138805255Y-139510419D01*
X138805255Y-139510419D02*
X138900493Y-139653276D01*
X138900493Y-139653276D02*
X138995731Y-139748514D01*
X138995731Y-139748514D02*
X139090969Y-139796133D01*
X127697580Y-137253504D02*
X126888057Y-137253504D01*
X126888057Y-137253504D02*
X126792819Y-137205885D01*
X126792819Y-137205885D02*
X126745200Y-137158266D01*
X126745200Y-137158266D02*
X126697580Y-137063028D01*
X126697580Y-137063028D02*
X126697580Y-136872552D01*
X126697580Y-136872552D02*
X126745200Y-136777314D01*
X126745200Y-136777314D02*
X126792819Y-136729695D01*
X126792819Y-136729695D02*
X126888057Y-136682076D01*
X126888057Y-136682076D02*
X127697580Y-136682076D01*
X126745200Y-136253504D02*
X126697580Y-136110647D01*
X126697580Y-136110647D02*
X126697580Y-135872552D01*
X126697580Y-135872552D02*
X126745200Y-135777314D01*
X126745200Y-135777314D02*
X126792819Y-135729695D01*
X126792819Y-135729695D02*
X126888057Y-135682076D01*
X126888057Y-135682076D02*
X126983295Y-135682076D01*
X126983295Y-135682076D02*
X127078533Y-135729695D01*
X127078533Y-135729695D02*
X127126152Y-135777314D01*
X127126152Y-135777314D02*
X127173771Y-135872552D01*
X127173771Y-135872552D02*
X127221390Y-136063028D01*
X127221390Y-136063028D02*
X127269009Y-136158266D01*
X127269009Y-136158266D02*
X127316628Y-136205885D01*
X127316628Y-136205885D02*
X127411866Y-136253504D01*
X127411866Y-136253504D02*
X127507104Y-136253504D01*
X127507104Y-136253504D02*
X127602342Y-136205885D01*
X127602342Y-136205885D02*
X127649961Y-136158266D01*
X127649961Y-136158266D02*
X127697580Y-136063028D01*
X127697580Y-136063028D02*
X127697580Y-135824933D01*
X127697580Y-135824933D02*
X127649961Y-135682076D01*
X127221390Y-134920171D02*
X127173771Y-134777314D01*
X127173771Y-134777314D02*
X127126152Y-134729695D01*
X127126152Y-134729695D02*
X127030914Y-134682076D01*
X127030914Y-134682076D02*
X126888057Y-134682076D01*
X126888057Y-134682076D02*
X126792819Y-134729695D01*
X126792819Y-134729695D02*
X126745200Y-134777314D01*
X126745200Y-134777314D02*
X126697580Y-134872552D01*
X126697580Y-134872552D02*
X126697580Y-135253504D01*
X126697580Y-135253504D02*
X127697580Y-135253504D01*
X127697580Y-135253504D02*
X127697580Y-134920171D01*
X127697580Y-134920171D02*
X127649961Y-134824933D01*
X127649961Y-134824933D02*
X127602342Y-134777314D01*
X127602342Y-134777314D02*
X127507104Y-134729695D01*
X127507104Y-134729695D02*
X127411866Y-134729695D01*
X127411866Y-134729695D02*
X127316628Y-134777314D01*
X127316628Y-134777314D02*
X127269009Y-134824933D01*
X127269009Y-134824933D02*
X127221390Y-134920171D01*
X127221390Y-134920171D02*
X127221390Y-135253504D01*
X147999047Y-122557077D02*
X147856190Y-122604696D01*
X147856190Y-122604696D02*
X147808571Y-122652315D01*
X147808571Y-122652315D02*
X147760952Y-122747553D01*
X147760952Y-122747553D02*
X147760952Y-122890410D01*
X147760952Y-122890410D02*
X147808571Y-122985648D01*
X147808571Y-122985648D02*
X147856190Y-123033268D01*
X147856190Y-123033268D02*
X147951428Y-123080887D01*
X147951428Y-123080887D02*
X148332380Y-123080887D01*
X148332380Y-123080887D02*
X148332380Y-122080887D01*
X148332380Y-122080887D02*
X147999047Y-122080887D01*
X147999047Y-122080887D02*
X147903809Y-122128506D01*
X147903809Y-122128506D02*
X147856190Y-122176125D01*
X147856190Y-122176125D02*
X147808571Y-122271363D01*
X147808571Y-122271363D02*
X147808571Y-122366601D01*
X147808571Y-122366601D02*
X147856190Y-122461839D01*
X147856190Y-122461839D02*
X147903809Y-122509458D01*
X147903809Y-122509458D02*
X147999047Y-122557077D01*
X147999047Y-122557077D02*
X148332380Y-122557077D01*
X147379999Y-122795172D02*
X146903809Y-122795172D01*
X147475237Y-123080887D02*
X147141904Y-122080887D01*
X147141904Y-122080887D02*
X146808571Y-123080887D01*
X146618094Y-122080887D02*
X146046666Y-122080887D01*
X146332380Y-123080887D02*
X146332380Y-122080887D01*
X145665713Y-123080887D02*
X145475237Y-123080887D01*
X145475237Y-123080887D02*
X145379999Y-123033268D01*
X145379999Y-123033268D02*
X145332380Y-122985648D01*
X145332380Y-122985648D02*
X145237142Y-122842791D01*
X145237142Y-122842791D02*
X145189523Y-122652315D01*
X145189523Y-122652315D02*
X145189523Y-122271363D01*
X145189523Y-122271363D02*
X145237142Y-122176125D01*
X145237142Y-122176125D02*
X145284761Y-122128506D01*
X145284761Y-122128506D02*
X145379999Y-122080887D01*
X145379999Y-122080887D02*
X145570475Y-122080887D01*
X145570475Y-122080887D02*
X145665713Y-122128506D01*
X145665713Y-122128506D02*
X145713332Y-122176125D01*
X145713332Y-122176125D02*
X145760951Y-122271363D01*
X145760951Y-122271363D02*
X145760951Y-122509458D01*
X145760951Y-122509458D02*
X145713332Y-122604696D01*
X145713332Y-122604696D02*
X145665713Y-122652315D01*
X145665713Y-122652315D02*
X145570475Y-122699934D01*
X145570475Y-122699934D02*
X145379999Y-122699934D01*
X145379999Y-122699934D02*
X145284761Y-122652315D01*
X145284761Y-122652315D02*
X145237142Y-122604696D01*
X145237142Y-122604696D02*
X145189523Y-122509458D01*
X144903808Y-122080887D02*
X144570475Y-123080887D01*
X144570475Y-123080887D02*
X144237142Y-122080887D01*
X143379999Y-123080887D02*
X143951427Y-123080887D01*
X143665713Y-123080887D02*
X143665713Y-122080887D01*
X143665713Y-122080887D02*
X143760951Y-122223744D01*
X143760951Y-122223744D02*
X143856189Y-122318982D01*
X143856189Y-122318982D02*
X143951427Y-122366601D01*
X139773866Y-119362847D02*
X139773866Y-120124752D01*
X152653866Y-119362847D02*
X152653866Y-120124752D01*
X153034819Y-119743799D02*
X152272914Y-119743799D01*
D11*
%TO.C,CentralBoard1*%
X120672400Y-132051600D02*
X131092400Y-132051600D01*
X120672400Y-139931600D02*
X120672400Y-132051600D01*
X123212400Y-132051600D02*
X123212400Y-126971600D01*
X123212400Y-139931600D02*
X123212400Y-145011600D01*
X123212400Y-145011600D02*
X161442400Y-145011600D01*
X125882400Y-126971600D02*
X125882400Y-129641600D01*
X125882400Y-129641600D02*
X163982400Y-129641600D01*
X125882400Y-142341600D02*
X161442400Y-142341600D01*
X125882400Y-145011600D02*
X125882400Y-142341600D01*
X131092400Y-132051600D02*
X131092400Y-139931600D01*
X131092400Y-139931600D02*
X120672400Y-139931600D01*
X161442400Y-145011600D02*
X161442400Y-142341600D01*
X163982400Y-126971600D02*
X163982400Y-129641600D01*
X163982400Y-142341600D02*
X161442400Y-142341600D01*
X163982400Y-145011600D02*
X163982400Y-142341600D01*
X163982400Y-145011600D02*
X166652400Y-145011600D01*
X166652400Y-126971600D02*
X123212400Y-126971600D01*
X166652400Y-145011600D02*
X166652400Y-126971600D01*
%TO.C,BAT9V1*%
X130300000Y-119086068D02*
X130300000Y-69526068D01*
X133200000Y-119086068D02*
X130300000Y-119086068D01*
X133200000Y-124686068D02*
X133200000Y-119086068D01*
X137880000Y-124686068D02*
X133200000Y-124686068D01*
X141580000Y-124686068D02*
X149930000Y-124686068D01*
X155130000Y-125026068D02*
X158130000Y-125026068D01*
X155230000Y-124686068D02*
X157790000Y-124686068D01*
X157790000Y-119086068D02*
X161890000Y-119086068D01*
X157790000Y-124686068D02*
X157790000Y-119086068D01*
X158130000Y-122026068D02*
X158130000Y-125026068D01*
X161890000Y-69526068D02*
X130300000Y-69526068D01*
X161890000Y-119086068D02*
X161890000Y-69526068D01*
%TD*%
M02*
